<?xml version="1.0" encoding="UTF-8"?>
<svg width="24px" height="24px" viewBox="0 0 24 24" version="1.1" xmlns="http://www.w3.org/2000/svg" xmlns:xlink="http://www.w3.org/1999/xlink">
    <!-- Generator: Sketch 49.3 (51167) - http://www.bohemiancoding.com/sketch -->
    <title>Icon/Subway Line/Green C/Default</title>
    <desc>Created with Sketch.</desc>
    <defs></defs>
    <g id="Icon/Subway-Line/Green-C/Default" stroke="none" stroke-width="1" fill="none" fill-rule="evenodd">
        <g id="icon-green-line-c-default">
            <path d="M12,0 C5.372583,-4.05812251e-16 8.11624501e-16,5.372583 0,12 C-8.11624501e-16,18.627417 5.372583,24 12,24 C18.627417,24 24,18.627417 24,12 C24,8.81740212 22.7357179,5.76515517 20.4852814,3.51471863 C18.2348448,1.26428208 15.1825979,1.94877915e-16 12,0" id="Shape" fill="#00843D" fill-rule="nonzero"></path>
            <text id="C" fill="#FFFFFF" font-family="HelveticaNeue-CondensedBlack, Helvetica Neue" font-size="29" font-style="condensed" font-weight="700">
                <tspan x="6.62745" y="31.0349">C</tspan>
            </text>
            <path d="M12,0 C5.372583,-4.05812251e-16 8.11624501e-16,5.372583 0,12 C-8.11624501e-16,18.627417 5.372583,24 12,24 C18.627417,24 24,18.627417 24,12 C24,8.81740212 22.7357179,5.76515517 20.4852814,3.51471863 C18.2348448,1.26428208 15.1825979,1.94877915e-16 12,0" id="Shape" fill="#00843D" fill-rule="nonzero"></path>
            <text id="C" fill="#FFFFFF" font-family="HelveticaNeue-CondensedBlack, Helvetica Neue" font-size="29" font-style="condensed" font-weight="700">
                <tspan x="6.62745" y="31.0349">C</tspan>
            </text>
            <path d="M12,0 C5.372583,-4.05812251e-16 8.11624501e-16,5.372583 0,12 C-8.11624501e-16,18.627417 5.372583,24 12,24 C18.627417,24 24,18.627417 24,12 C24,8.81740212 22.7357179,5.76515517 20.4852814,3.51471863 C18.2348448,1.26428208 15.1825979,1.94877915e-16 12,0" id="Shape" fill="#00843D" fill-rule="nonzero"></path>
            <path d="M14.26955,9.593 C14.1334664,9.3750422 13.9618037,9.18144206 13.7617,9.02025 C13.5555026,8.85429663 13.3227418,8.72438401 13.07325,8.636 C12.8149804,8.54397784 12.5427223,8.49738913 12.26855,8.4983 C11.8153086,8.48448906 11.3660686,8.58685039 10.96355,8.79565 C10.6132677,8.98707046 10.3147123,9.26069476 10.09355,9.593 C9.86524917,9.94054554 9.70088303,10.3260872 9.6082,10.73145 C9.50584012,11.1637348 9.45470516,11.6065632 9.45585,12.0508 C9.45494503,12.4783494 9.50610486,12.9044183 9.6082,13.3196 C9.70277729,13.7152863 9.86713133,14.0909454 10.09355,14.42895 C10.3163336,14.7579529 10.6146484,15.0288365 10.96355,15.21895 C11.366027,15.4278631 11.815297,15.5302313 12.26855,15.5163 C12.8791679,15.5504838 13.4745158,15.3177017 13.9,14.8784 C14.3110875,14.4077391 14.5622376,13.8187811 14.6173,13.1963 L16.8214,13.1963 C16.7741286,13.8027426 16.6221301,14.3964077 16.37215,14.95095 C16.1437671,15.4541538 15.8185302,15.9074603 15.415,16.285 C15.0123598,16.6562153 14.5388472,16.9422243 14.0229,17.12585 C13.4595911,17.3244949 12.8657691,17.4226529 12.2685,17.41585 C11.5347275,17.4274966 10.8065125,17.2868522 10.12985,17.0028 C9.5195904,16.7437321 8.97282388,16.3553097 8.5273,15.86435 C8.08459133,15.3681109 7.74454916,14.7891046 7.5268,14.16075 C7.29047853,13.482619 7.17270742,12.7688546 7.17865,12.05075 C7.17201455,11.3185191 7.28973708,10.5904755 7.5268,9.89765 C7.74434921,9.26041082 8.08420502,8.67176901 8.5273,8.16475 C8.97062472,7.66598025 9.51762754,7.27015662 10.13,7.005 C11.3234054,6.5118291 12.6514343,6.45026098 13.88535,6.8309 C14.3784302,6.98783675 14.8398213,7.23085593 15.24815,7.5487 C15.6536144,7.86775789 15.991269,8.26458657 16.2413,8.7159 C16.5114225,9.20893314 16.6791767,9.75144746 16.7345,10.3109 L14.53025,10.3109 C14.4939889,10.0561319 14.4052145,9.81167048 14.26955,9.593 Z" id="Shape" fill="#FFFFFF" fill-rule="nonzero"></path>
        </g>
    </g>
</svg>