<?xml version="1.0" encoding="UTF-8"?>
<svg width="16px" height="16px" viewBox="0 0 16 16" version="1.1" xmlns="http://www.w3.org/2000/svg" xmlns:xlink="http://www.w3.org/1999/xlink">
    <!-- Generator: Sketch 49.3 (51167) - http://www.bohemiancoding.com/sketch -->
    <title>Icon/Subway Line/Green C/Small</title>
    <desc>Created with Sketch.</desc>
    <defs></defs>
    <g id="Icon/Subway-Line/Green-C/Small" stroke="none" stroke-width="1" fill="none" fill-rule="evenodd">
        <g id="icon-green-line-c-small" fill-rule="nonzero">
            <path d="M8,0 C3.581722,-2.705415e-16 5.41083001e-16,3.581722 0,8 C-5.41083001e-16,12.418278 3.581722,16 8,16 C12.418278,16 16,12.418278 16,8 C16,3.581722 12.418278,2.04689834e-15 8,1.77635684e-15" id="Shape" fill="#00843D"></path>
            <path d="M9.9124,6.2224 C9.81229087,6.06130845 9.68571352,5.91826656 9.538,5.7993 C9.22512339,5.54832292 8.83569805,5.4121264 8.4346,5.4134 C8.10003333,5.40347165 7.76847898,5.47920043 7.4714,5.6334 C7.2123983,5.77483176 6.9916605,5.97710611 6.8282,6.2228 C6.6598006,6.47933153 6.53834451,6.76375616 6.4695,7.0628 C6.39449338,7.38225522 6.3569405,7.70935796 6.3576,8.0375 C6.3571303,8.35319408 6.39470108,8.66779477 6.4695,8.9745 C6.53954504,9.26673821 6.66100264,9.54419113 6.8282,9.7939 C6.99288877,10.0370324 7.21344852,10.2371547 7.4714,10.3775 C7.76837708,10.5319771 8.10000463,10.6077226 8.4346,10.5975 C8.88558997,10.6230841 9.32538413,10.4511161 9.6394,10.1264 C9.94353079,9.7790647 10.1291645,9.34391135 10.1694,8.884 L11.798,8.884 C11.762984,9.33189865 11.6504451,9.77031311 11.4654,10.1797 C11.2971723,10.5516045 11.056872,10.8864614 10.7584,11.1649 C10.4611625,11.4392143 10.1114743,11.6505239 9.7304,11.7861 C9.31434717,11.9328168 8.87573322,12.0052196 8.4346,12 C7.8927554,12.0083794 7.35505234,11.9043935 6.8554,11.6946 C6.40475146,11.503039 6.00090545,11.2162053 5.6716,10.8538 C5.34482936,10.4872889 5.09386946,10.0596987 4.9332,9.5957 C4.75855019,9.09490484 4.67150982,8.5677575 4.6759,8.0374 C4.67097936,7.49665137 4.75798448,6.95899829 4.9332,6.4474 C5.09394252,5.97686097 5.34473961,5.54210979 5.6716,5.1674 C5.99929027,4.7992886 6.40326217,4.50700787 6.8554,4.3109 C7.35412008,4.09749769 7.89220615,3.9915637 8.4346,4 C8.83979341,3.99748991 9.24284664,4.0589114 9.6289,4.182 C9.99316212,4.29812501 10.3341095,4.47753538 10.6361,4.712 C10.9354164,4.94778252 11.1846531,5.24094415 11.3692,5.5743 C11.5683507,5.93841266 11.6921124,6.33891205 11.7331,6.7519 L10.1058,6.7519 C10.0785683,6.56394388 10.0127198,6.38366068 9.9124,6.2224 Z" id="Shape" fill="#FFFFFF"></path>
        </g>
    </g>
</svg>