<?xml version="1.0" encoding="UTF-8"?>
<svg width="24px" height="24px" viewBox="0 0 24 24" version="1.1" xmlns="http://www.w3.org/2000/svg" xmlns:xlink="http://www.w3.org/1999/xlink">
    <!-- Generator: Sketch 49.3 (51167) - http://www.bohemiancoding.com/sketch -->
    <title>Icon/Mode/Black/Subway/Default</title>
    <desc>Created with Sketch.</desc>
    <defs></defs>
    <g id="Icon/Mode/Black/Subway/Default" stroke="none" stroke-width="1" fill="none" fill-rule="evenodd">
        <g id="icon-subway-default" transform="translate(4.000000, 0.000000)" fill="#1C1E23" fill-rule="nonzero">
            <path d="M4.15,17.15 C4.9,17.15 5.5,16.55 5.5,15.8 C5.5,15.05 4.9,14.45 4.15,14.45 C3.4,14.45 2.8,15.05 2.8,15.8 C2.8,16.55 3.4,17.15 4.15,17.15 Z M9.5,4.5 C9.8,4.5 10,4.3 10,4 L10,3.15 C10,2.9 9.75,2.65 9.5,2.65 L6.55,2.65 C6.3,2.65 6.05,2.85 6.05,3.15 L6.05,4 C6.05,4.3 6.3,4.5 6.55,4.5 L9.5,4.5 Z M11.65,10.05 C12.45,10.1 13.15,9.45 13.15,8.65 C13.15,8.6 13.15,8.55 13.15,8.5 L13.15,6.55 C13.2,5.75 12.6,5.05 11.8,5 C11.75,5 11.7,5 11.65,5 L4.35,5 C3.55,4.95 2.85,5.55 2.85,6.35 L2.85,6.5 L2.85,8.45 C2.8,9.25 3.45,9.95 4.25,9.95 L4.4,9.95 L11.65,9.95 L11.65,10.05 Z M11.8,17.15 C12.55,17.15 13.1,16.55 13.1,15.8 C13.1,15.05 12.5,14.5 11.8,14.5 C11.1,14.5 10.5,15.1 10.5,15.85 C10.45,16.55 11.05,17.15 11.8,17.15 Z M9.15,1.7 C8.7,1.7 8.3,1.3 8.3,0.85 C8.3,0.4 8.7,-1.33226763e-15 9.15,-1.33226763e-15 C9.6,-1.33226763e-15 10,0.4 10,0.85 C10,1.3 9.6,1.7 9.15,1.7 Z M6.85,1.7 C6.4,1.7 6,1.3 6,0.85 C6,0.4 6.4,-1.33226763e-15 6.85,-1.33226763e-15 C7.3,-1.33226763e-15 7.7,0.4 7.7,0.85 C7.7,1.3 7.35,1.7 6.85,1.7 Z M8,20.3 L4.55,20.3 L2.05,24 L1.77635684e-15,24 L3.5,18.75 C2.15,18.45 1.2,17.25 1.15,15.85 L1.15,4.95 C1.2,3.3 2.55,2 4.2,2 L11.7,2 C13.35,2 14.7,3.3 14.75,4.95 L14.75,15.85 C14.75,17.25 13.75,18.45 12.4,18.75 L16,24 L14,24 L11.5,20.3 L8,20.3 Z" id="Shape"></path>
        </g>
    </g>
</svg>