<?xml version="1.0" encoding="UTF-8"?>
<svg width="16px" height="16px" viewBox="0 0 16 16" version="1.1" xmlns="http://www.w3.org/2000/svg" xmlns:xlink="http://www.w3.org/1999/xlink">
    <!-- Generator: Sketch 49.3 (51167) - http://www.bohemiancoding.com/sketch -->
    <title>Icon/Mode/Black/Subway/Small</title>
    <desc>Created with Sketch.</desc>
    <defs></defs>
    <g id="Icon/Mode/Black/Subway/Small" stroke="none" stroke-width="1" fill="none" fill-rule="evenodd">
        <g id="icon-subway-small" transform="translate(2.000000, 0.000000)" fill="#1C1E23" fill-rule="nonzero">
            <path d="M3.4,11.4 C3.9,11.4 4.3,11 4.3,10.5 C4.3,10 3.9,9.6 3.4,9.6 C2.9,9.6 2.5,10 2.5,10.5 C2.5,11 2.9,11.4 3.4,11.4 Z M7,3 C7.2,3 7.3,2.9 7.3,2.7 L7.3,2.1 C7.3,1.9 7.1,1.8 7,1.8 L5,1.8 C4.8,1.8 4.7,1.9 4.7,2.1 L4.7,2.7 C4.7,2.9 4.8,3 5,3 L7,3 Z M8.4,6.7 C8.9,6.7 9.4,6.3 9.4,5.8 L9.4,5.7 L9.4,4.4 C9.4,3.9 9,3.4 8.5,3.4 L8.4,3.4 L3.6,3.4 C3.1,3.4 2.6,3.8 2.6,4.3 L2.6,4.4 L2.6,5.7 C2.6,6.2 3,6.7 3.5,6.7 L3.6,6.7 L8.4,6.7 Z M8.5,11.4 C9,11.4 9.4,11 9.4,10.5 C9.4,10 9,9.6 8.5,9.6 C8,9.6 7.6,10 7.6,10.5 C7.6,11 8,11.4 8.5,11.4 Z M6.8,1.1 C6.5,1.1 6.2,0.8 6.2,0.5 C6.2,0.2 6.4,-3.33066907e-16 6.8,-3.33066907e-16 C7.1,-3.33066907e-16 7.4,0.3 7.4,0.6 C7.3,0.9 7.1,1.1 6.8,1.1 Z M5.2,1.1 C4.9,1.1 4.6,0.8 4.6,0.5 C4.6,0.2 4.9,-3.33066907e-16 5.2,-3.33066907e-16 C5.5,-3.33066907e-16 5.8,0.3 5.8,0.6 C5.8,0.9 5.6,1.1 5.2,1.1 Z M6,13.5 L3.7,13.5 L2,16 L0.7,16 L3,12.5 C2.1,12.3 1.5,11.5 1.4,10.6 L1.4,3.3 C1.4,2.2 2.3,1.3 3.4,1.3 L8.4,1.3 C9.5,1.3 10.4,2.2 10.4,3.3 L10.4,10.6 C10.4,11.5 9.7,12.3 8.8,12.5 L11.2,16 L10,16 L8.3,13.5 L6,13.5 Z" id="Shape"></path>
        </g>
    </g>
</svg>