<?xml version="1.0" encoding="UTF-8"?>
<svg width="24px" height="24px" viewBox="0 0 24 24" version="1.1" xmlns="http://www.w3.org/2000/svg" xmlns:xlink="http://www.w3.org/1999/xlink">
    <!-- Generator: Sketch 49.3 (51167) - http://www.bohemiancoding.com/sketch -->
    <title>Icon/Subway Line/Red - Mattapan/Default</title>
    <desc>Created with Sketch.</desc>
    <defs></defs>
    <g id="Icon/Subway-Line/Red---Mattapan/Default" stroke="none" stroke-width="1" fill="none" fill-rule="evenodd">
        <g id="icon-mattapan-line-default" fill-rule="nonzero">
            <path d="M12.015,0 C5.387583,-1.87739444e-15 0.015,5.372583 0.015,12 C0.015,18.627417 5.387583,24 12.015,24 C18.642417,24 24.015,18.627417 24.015,12 C24.015,5.372583 18.642417,5.73488277e-15 12.015,5.32907052e-15" id="Shape" fill="#DA291C"></path>
            <polygon id="Shape" fill="#FFFFFF" points="9.62972 6.931885 12.051105 14.0515 12.079915 14.0515 14.370915 6.93187 17.5755 6.93187 17.5755 17.28487 15.444175 17.28487 15.444175 9.948 15.415365 9.948 12.877765 17.28491 11.12337 17.28491 8.585775 10.0205 8.5565 10.0205 8.5565 17.2849 6.42515 17.2849 6.42515 6.9319"></polygon>
        </g>
    </g>
</svg>