<?xml version="1.0" encoding="UTF-8"?>
<svg width="24px" height="24px" viewBox="0 0 24 24" version="1.1" xmlns="http://www.w3.org/2000/svg" xmlns:xlink="http://www.w3.org/1999/xlink">
    <!-- Generator: Sketch 51.2 (57519) - http://www.bohemiancoding.com/sketch -->
    <title>Icon/Subway Line/Silver/Default</title>
    <desc>Created with Sketch.</desc>
    <defs></defs>
    <g id="Icon/Subway-Line/Silver/Default" stroke="none" stroke-width="1" fill="none" fill-rule="evenodd">
        <g id="icon-silver-line-default" fill="#7C878E" fill-rule="nonzero">
            <path d="M12.0579457,23.9998477 C18.7818968,23.8248477 24.166057,18.3598493 23.9960835,11.9348511 C23.960112,5.30822694 18.5603657,-0.0348257673 11.9347679,0.00017094249 C5.30917017,0.0351676523 -0.0338495573,5.43496414 0.000161475824,12.0615986 C0.0341725089,18.6882332 5.43233783,24.0328836 12.0579457,23.9998477" id="Shape"></path>
        </g>
        <path d="M4.316,14.208 C4.316,14.5920019 4.38533264,14.917332 4.524,15.184 C4.66266736,15.450668 4.84666552,15.6666658 5.076,15.832 C5.30533448,15.9973342 5.57466512,16.1199996 5.884,16.2 C6.19333488,16.2800004 6.51333168,16.32 6.844,16.32 C7.06800112,16.32 7.30799872,16.3013335 7.564,16.264 C7.82000128,16.2266665 8.05999888,16.1546672 8.284,16.048 C8.50800112,15.9413328 8.69466592,15.7946676 8.844,15.608 C8.99333408,15.4213324 9.068,15.1840014 9.068,14.896 C9.068,14.5866651 8.96933432,14.336001 8.772,14.144 C8.57466568,13.951999 8.3160016,13.7920006 7.996,13.664 C7.6759984,13.5359994 7.31333536,13.4240005 6.908,13.328 C6.50266464,13.2319995 6.09200208,13.1253339 5.676,13.008 C5.2493312,12.9013328 4.83333536,12.7706674 4.428,12.616 C4.02266464,12.4613326 3.6600016,12.2613346 3.34,12.016 C3.0199984,11.7706654 2.76133432,11.4640018 2.564,11.096 C2.36666568,10.7279982 2.268,10.2826693 2.268,9.76 C2.268,9.1733304 2.39333208,8.66400216 2.644,8.232 C2.89466792,7.79999784 3.22266464,7.44000144 3.628,7.152 C4.03333536,6.86399856 4.49199744,6.65066736 5.004,6.512 C5.51600256,6.37333264 6.02799744,6.304 6.54,6.304 C7.13733632,6.304 7.71066392,6.370666 8.26,6.504 C8.80933608,6.637334 9.2973312,6.85333184 9.724,7.152 C10.1506688,7.45066816 10.4893321,7.83199768 10.74,8.296 C10.9906679,8.76000232 11.116,9.32266336 11.116,9.984 L8.684,9.984 C8.66266656,9.64266496 8.59066728,9.36000112 8.468,9.136 C8.34533272,8.91199888 8.18266768,8.73600064 7.98,8.608 C7.77733232,8.47999936 7.54533464,8.3893336 7.284,8.336 C7.02266536,8.2826664 6.73733488,8.256 6.428,8.256 C6.22533232,8.256 6.02266768,8.27733312 5.82,8.32 C5.61733232,8.36266688 5.43333416,8.4373328 5.268,8.544 C5.10266584,8.6506672 4.9666672,8.7839992 4.86,8.944 C4.7533328,9.1040008 4.7,9.30666544 4.7,9.552 C4.7,9.77600112 4.74266624,9.95733264 4.828,10.096 C4.91333376,10.2346674 5.08133208,10.3626661 5.332,10.48 C5.58266792,10.5973339 5.92933112,10.7146661 6.372,10.832 C6.81466888,10.9493339 7.39332976,11.0986658 8.108,11.28 C8.3213344,11.3226669 8.61733144,11.3999994 8.996,11.512 C9.37466856,11.6240006 9.7506648,11.8026654 10.124,12.048 C10.4973352,12.2933346 10.8199986,12.6213313 11.092,13.032 C11.3640014,13.4426687 11.5,13.9679968 11.5,14.608 C11.5,15.1306693 11.3986677,15.6159978 11.196,16.064 C10.9933323,16.5120022 10.692002,16.898665 10.292,17.224 C9.891998,17.549335 9.39600296,17.8026658 8.804,17.984 C8.21199704,18.1653342 7.52667056,18.256 6.748,18.256 C6.11866352,18.256 5.50800296,18.1786674 4.916,18.024 C4.32399704,17.8693326 3.8013356,17.6266683 3.348,17.296 C2.8946644,16.9653317 2.534668,16.5440026 2.268,16.032 C2.001332,15.5199974 1.87333328,14.9120035 1.884,14.208 L4.316,14.208 Z M12.988,6.576 L15.5,6.576 L15.5,15.888 L21.068,15.888 L21.068,18 L12.988,18 L12.988,6.576 Z" id="SL" fill="#FFFFFF"></path>
    </g>
</svg>