<?xml version="1.0" encoding="UTF-8"?>
<svg width="16px" height="16px" viewBox="0 0 16 16" version="1.1" xmlns="http://www.w3.org/2000/svg" xmlns:xlink="http://www.w3.org/1999/xlink">
    <!-- Generator: Sketch 51.2 (57519) - http://www.bohemiancoding.com/sketch -->
    <title>Icon/Subway Line/Silver/Small</title>
    <desc>Created with Sketch.</desc>
    <defs></defs>
    <g id="Icon/Subway-Line/Silver/Small" stroke="none" stroke-width="1" fill="none" fill-rule="evenodd">
        <g id="icon-silver-line-small" fill-rule="nonzero">
            <path d="M14.25,7 L13.81,3.7 C13.69,3.1 13.3,2.87 12.72,2.62 C11.751984,2.29621685 10.7405164,2.1208958 9.72,2.1 C8.69931975,2.11918814 7.6875955,2.29455368 6.72,2.62 C6.14,2.87 5.72,3.1 5.62,3.7 L5.21,7 L5.21,11.55 L6,11.55 L6,12.33 C6.00170846,12.5309671 6.11289575,12.7150012 6.29,12.81 L6.41,12.87 L6.5,12.87 C6.55290514,12.8795576 6.60709486,12.8795576 6.66,12.87 L6.89,12.87 C7.23627632,12.8872781 7.5333443,12.6256809 7.56,12.28 L7.56,11.5 L11.92,11.5 L11.92,12.28 C11.9258257,12.4824828 12.0405458,12.666035 12.22,12.76 L12.33,12.82 L12.43,12.82 L12.58,12.82 L12.81,12.82 C13.1562763,12.8372781 13.4533443,12.5756809 13.48,12.23 L13.48,11.45 L14.23,11.45 L14.25,7 Z M7.6,3 L11.85,3 C12.06,3 12.22,3.23 12.22,3.5 C12.22,3.77 12.06,4.01 11.85,4.01 L7.6,4.01 C7.4,4.01 7.23,3.78 7.23,3.5 C7.23,3.22 7.4,3 7.6,3 Z M6.6,7.55 L6.9,5.22 C6.94148117,5.09347412 7.05697675,5.00585678 7.19,5 L12.31,5 C12.4705123,4.99349211 12.6094036,5.11068164 12.63,5.27 L13,7.57 L13,7.66 C13,7.84225397 12.852254,7.99 12.67,7.99 L6.87,7.99 C6.69166835,7.97926458 6.55426339,7.82856236 6.56,7.65 L6.6,7.55 Z M7.25,10.3 C6.93356801,10.3348908 6.62506009,10.1857176 6.45590174,9.91602887 C6.28674338,9.64634013 6.28674338,9.30365987 6.45590174,9.03397113 C6.62506009,8.76428238 6.93356801,8.61510924 7.25,8.65 C7.56643199,8.61510924 7.87493991,8.76428238 8.04409826,9.03397113 C8.21325662,9.30365987 8.21325662,9.64634013 8.04409826,9.91602887 C7.87493991,10.1857176 7.56643199,10.3348908 7.25,10.3 Z M12.25,10.3 C11.933568,10.3348908 11.6250601,10.1857176 11.4559017,9.91602887 C11.2867434,9.64634013 11.2867434,9.30365987 11.4559017,9.03397113 C11.6250601,8.76428238 11.933568,8.61510924 12.25,8.65 C12.566432,8.61510924 12.8749399,8.76428238 13.0440983,9.03397113 C13.2132566,9.30365987 13.2132566,9.64634013 13.0440983,9.91602887 C12.8749399,10.1857176 12.566432,10.3348908 12.25,10.3 Z" id="Shape" fill="#1C1E23"></path>
            <path d="M8,0 C3.581722,-2.705415e-16 5.41083001e-16,3.581722 0,8 C-5.41083001e-16,12.418278 3.581722,16 8,16 C12.418278,16 16,12.418278 16,8 C16,3.581722 12.418278,1.3527075e-15 8,0" id="Shape" fill="#7C878E"></path>
            <path d="M3.14,9.82 C3.21658988,9.98337739 3.33361773,10.1244992 3.48,10.23 C3.63604123,10.3344684 3.80840248,10.4121999 3.99,10.46 C4.18596371,10.511165 4.38747651,10.5380333 4.59,10.54 C4.74321192,10.5486295 4.89678808,10.5486295 5.05,10.54 C5.20687531,10.5192874 5.35906221,10.4719403 5.5,10.4 C5.63687578,10.3397819 5.75700996,10.247107 5.85,10.13 C5.95756911,9.99015915 6.01085466,9.81609302 6,9.64 C6.00784862,9.46318849 5.93851736,9.29168484 5.81,9.17 C5.67192355,9.03858221 5.50863376,8.93652609 5.33,8.87 C5.10567993,8.78254081 4.8750095,8.71233677 4.64,8.66 L3.87,8.46 C3.6049734,8.39325029 3.34444986,8.30974916 3.09,8.21 C2.84272013,8.11761493 2.61026505,7.98959619 2.4,7.83 C2.19887039,7.67883184 2.03473522,7.48392132 1.92,7.26 C1.78475504,7.00126548 1.71927,6.71175267 1.73,6.42 C1.71388184,6.07068334 1.79709744,5.72395169 1.97,5.42 C2.12438658,5.15067292 2.33603869,4.91853835 2.59,4.74 C2.85102808,4.55732915 3.14211937,4.42193785 3.45,4.34 C3.77536647,4.24889689 4.11215499,4.20511438 4.45,4.21 C4.81410706,4.2064462 5.17713669,4.25014421 5.53,4.34 C5.86012745,4.41110009 6.17284465,4.54706408 6.45,4.74 C6.68804185,4.94885084 6.87602092,5.20860374 7,5.5 C7.16557774,5.82801913 7.24474029,6.19285526 7.23,6.56 L5.75,6.56 C5.74489223,6.36533521 5.6971001,6.17416671 5.61,6 C5.54037185,5.86580199 5.43697453,5.75206493 5.31,5.67 C5.1749271,5.58697616 5.02580617,5.52936125 4.87,5.5 C4.69311835,5.45806496 4.51177271,5.43791544 4.33,5.44 C4.20371761,5.42604643 4.07628239,5.42604643 3.95,5.44 C3.82467536,5.46114072 3.70533213,5.50887801 3.6,5.58 C3.50006518,5.64488959 3.41488959,5.73006518 3.35,5.83 C3.27700726,5.94276643 3.24196907,6.07591155 3.25,6.21 C3.24660823,6.32836571 3.27418462,6.44556539 3.33,6.55 C3.40709276,6.65911922 3.51504872,6.74269802 3.64,6.79 C3.85352101,6.88150235 4.07428178,6.95508927 4.3,7.01 L5.39,7.29 L5.94,7.44 C6.19159657,7.51451415 6.43083476,7.62570936 6.65,7.77 C6.89399812,7.93228659 7.10170205,8.14339551 7.26,8.39 C7.44363438,8.69029402 7.53411371,9.03829147 7.52,9.39 C7.52130625,9.70437592 7.45300575,10.0151432 7.32,10.3 C7.19893456,10.5872784 7.0061065,10.8386435 6.76,11.03 C6.48389657,11.2543055 6.1635943,11.4178641 5.82,11.51 C5.40042098,11.6284477 4.96594021,11.6857048 4.53,11.68 C4.1417867,11.6800377 3.75521509,11.6296153 3.38,11.53 C3.01912219,11.4508039 2.67860833,11.2975727 2.38,11.08 C2.09468415,10.8693289 1.86195401,10.5955287 1.7,10.28 C1.52758609,9.92547842 1.44515778,9.53394392 1.46,9.14 L3,9.14 C2.98152124,9.37533898 3.0300603,9.61110011 3.14,9.82 Z" id="Shape" fill="#FFFFFF"></path>
            <polygon id="Shape" fill="#FFFFFF" points="10 4.42 10 10.26 13.49 10.26 13.49 11.59 8.45 11.59 8.45 4.42"></polygon>
        </g>
    </g>
</svg>