<?xml version="1.0" encoding="UTF-8"?>
<svg width="24px" height="24px" viewBox="0 0 24 24" version="1.1" xmlns="http://www.w3.org/2000/svg" xmlns:xlink="http://www.w3.org/1999/xlink">
    <!-- Generator: Sketch 51.2 (57519) - http://www.bohemiancoding.com/sketch -->
    <title>Icon/Subway Line/Blue/Default</title>
    <desc>Created with Sketch.</desc>
    <defs></defs>
    <g id="Icon/Subway-Line/Blue/Default" stroke="none" stroke-width="1" fill="none" fill-rule="evenodd">
        <g id="icon-blue-line-default" fill-rule="nonzero">
            <path d="M12,0 C5.372583,-4.05812251e-16 8.11624501e-16,5.372583 0,12 C-8.11624501e-16,18.627417 5.372583,24 12,24 C18.627417,24 24,18.627417 24,12 C24,5.372583 18.627417,5.73488277e-15 12,5.32907052e-15" id="Shape" fill="#003DA5"></path>
            <g id="Group" transform="translate(3.000000, 7.000000)" fill="#FFFFFF">
                <path d="M5.1067,0.3235 C5.55957531,0.319485037 6.0116105,0.363260653 6.4553,0.4541 C6.82782486,0.527318562 7.18245287,0.672624496 7.49925,0.88185 C7.78997891,1.08097829 8.02267703,1.35367005 8.1736,1.6721 C8.3440465,2.05483473 8.42583197,2.47112876 8.41285,2.8899 C8.42983637,3.35093242 8.30582021,3.80618162 8.05735,4.1949 C7.78940406,4.56862653 7.42647271,4.86397756 7.0061,5.0504 C7.58180648,5.19142025 8.08827426,5.53329709 8.43435,6.0145 C8.75795277,6.50659361 8.92243364,7.08628264 8.9055,7.675 C8.91735993,8.14506254 8.8128617,8.61077013 8.6013,9.0307 C8.40645511,9.40317788 8.12558498,9.72381481 7.782,9.966 C7.42558533,10.2136683 7.02760804,10.3953492 6.607,10.5024 C6.16458123,10.6187221 5.70895448,10.6772258 5.2515,10.67645 L0.2346,10.6764576 L0.2346,0.3235 L5.1067,0.3235 Z M4.8167,4.5139 C5.17287848,4.52873683 5.52416673,4.42691414 5.8172,4.2239 C6.09514748,3.99347289 6.24164554,3.64084502 6.2088,3.2813 C6.21691988,3.07523988 6.17202104,2.87054386 6.0784,2.6868 C5.99620223,2.53747307 5.87612481,2.41242906 5.73025,2.32425 C5.57581894,2.23397526 5.40623366,2.17258975 5.2298,2.1431 C5.03603291,2.10888094 4.8396149,2.09189787 4.64285,2.09235 L2.511,2.09234121 L2.511,4.5137 L4.8167,4.5139 Z M4.94705,8.90745 C5.16147859,8.90831494 5.37539874,8.8865274 5.58525,8.84245 C5.77611279,8.80396087 5.95811344,8.73018049 6.1219,8.6249 C6.2783194,8.52089466 6.40554858,8.37862243 6.4915,8.2116 C6.59071727,8.00369169 6.63797079,7.77480209 6.6292,7.5446 C6.67166023,7.11487431 6.50421114,6.6910572 6.1795,6.4064 C5.83169393,6.16461742 5.41362745,6.04478307 4.99055,6.0656 L2.511,6.0656 L2.511,8.9076 L4.94705,8.90745 Z" id="Shape"></path>
                <polygon id="Shape" points="12.719 0.3235 12.719 8.76245 17.7654 8.76245 17.7654 10.6765 10.44265 10.6765 10.44265 0.3235"></polygon>
            </g>
        </g>
    </g>
</svg>