<?xml version="1.0" encoding="UTF-8"?>
<svg width="21px" height="24px" viewBox="0 0 21 24" version="1.1" xmlns="http://www.w3.org/2000/svg" xmlns:xlink="http://www.w3.org/1999/xlink">
    <!-- Generator: Sketch 49.3 (51167) - http://www.bohemiancoding.com/sketch -->
    <title>Icon/Route/Stop/Default</title>
    <desc>Created with Sketch.</desc>
    <defs></defs>
    <g id="Icons" stroke="none" stroke-width="1" fill="none" fill-rule="evenodd">
        <g transform="translate(-653.000000, -496.000000)" fill="#000000" id="Icon/Route/Stop/Default">
            <g transform="translate(653.000000, 496.000000)">
                <g id="icon-stop-default">
                    <path d="M17.925,3.234155 C14.0949539,-0.854527387 7.68033776,-1.07803318 3.575,2.734155 C2.56303917,3.68261604 1.74755513,4.82089584 1.175,6.084155 C0.592195357,7.40650603 0.302235604,8.83924834 0.325,10.284155 L0.325,18.584155 C0.330224365,19.3868778 0.654841744,20.1544875 1.22713608,20.7174 C1.79943041,21.2803124 2.57230046,21.5921986 3.375,21.584155 L9.625,21.584155 L9.625,23.984155 L11.525,23.984155 L11.525,21.584155 L17.625,21.584155 C18.4355165,21.589432 19.2143658,21.2697885 19.7874997,20.6966547 C20.3606335,20.1235208 20.680277,19.3446715 20.675,18.534155 L20.675,10.234155 C20.6678449,7.63866638 19.6864113,5.14047154 17.925,3.234155 Z M4.925,4.234155 L16.075,4.234155 L16.075,6.834155 L11.925,6.834155 L11.925,13.734155 L9.075,13.734155 L9.075,6.834155 L4.925,6.834155 L4.925,4.234155 Z M18.775,18.684155 C18.7800539,18.9906754 18.6605172,19.286128 18.4437451,19.5029001 C18.226973,19.7196722 17.9315204,19.8392089 17.625,19.834155 L3.325,19.834155 C2.71969701,19.8288519 2.23030313,19.339458 2.225,18.734155 L2.225,16.184155 L18.725,16.184155 L18.725,18.684155 L18.775,18.684155 Z" id="Shape" fill-rule="nonzero"></path>
                </g>
            </g>
        </g>
    </g>
</svg>