<?xml version="1.0" encoding="UTF-8"?>
<svg width="24px" height="24px" viewBox="0 0 24 24" version="1.1" xmlns="http://www.w3.org/2000/svg" xmlns:xlink="http://www.w3.org/1999/xlink">
    <!-- Generator: Sketch 51.1 (57501) - http://www.bohemiancoding.com/sketch -->
    <title>Icon/Alert/Notice/Default</title>
    <desc>Created with Sketch.</desc>
    <defs></defs>
    <g id="Icon/Alert/Notice/Default" stroke="none" stroke-width="1" fill="none" fill-rule="evenodd">
        <g id="icon-notice-default" transform="translate(10.000000, 6.000000)" fill="#FFFFFF" fill-rule="nonzero">
            <path d="M3.5,0.0263 L3.5,2.402 L0.5,2.402 L0.5,0.0263 L3.5,0.0263 Z M3.5,3.87415 L3.5,12.41665 L0.5,12.41665 L0.5,3.87415 L3.5,3.87415 Z" id="Shape"></path>
        </g>
        <g id="sticky-note-solid-(1)" fill="#000000" fill-rule="nonzero">
            <path d="M16.7142857,15.4285714 L24,15.4285714 L24,1.28571429 C24,0.573214286 23.4267857,0 22.7142857,0 L1.28571429,0 C0.573214286,0 0,0.573214286 0,1.28571429 L0,22.7142857 C0,23.4267857 0.573214286,24 1.28571429,24 L15.4285714,24 L15.4285714,16.7142857 C15.4285714,16.0071429 16.0071429,15.4285714 16.7142857,15.4285714 Z M23.625,18.375 L18.375,23.625 C18.1339286,23.8660714 17.8071429,24 17.4642857,24 L17.1428571,24 L17.1428571,17.1428571 L24,17.1428571 L24,17.4696429 C24,17.8071429 23.8660714,18.1339286 23.625,18.375 Z" id="Shape"></path>
        </g>
    </g>
</svg>