<?xml version="1.0" encoding="UTF-8"?>
<svg width="24px" height="24px" viewBox="0 0 24 24" version="1.1" xmlns="http://www.w3.org/2000/svg" xmlns:xlink="http://www.w3.org/1999/xlink">
    <!-- Generator: Sketch 49.3 (51167) - http://www.bohemiancoding.com/sketch -->
    <title>Icon/Facilities/Accessible - Circle/Regular</title>
    <desc>Created with Sketch.</desc>
    <defs></defs>
    <g id="Icon/Facilities/Accessible---Circle/Regular" stroke="none" stroke-width="1" fill="none" fill-rule="evenodd">
        <g id="icon-accessible-default" fill-rule="nonzero">
            <path d="M21.3554472,0.00264348018 C21.3554472,0.00264348018 2.68270619,-0.00330435022 2.68866439,0.00264348018 C0.967475974,0.00264348018 0,0.890852819 0,2.70567153 L0,21.4136851 C0,23.1112167 0.869792835,24 2.58936104,24 L21.4092278,24 C23.1287437,24 24,23.1554603 24,21.4136851 L24,2.70567153 C24.0000523,0.93509633 23.1288483,0.00264348018 21.3554472,0.00264348018 Z" id="Shape" fill="#165C96"></path>
            <g id="Group" transform="translate(4.000000, 4.000000)" fill="#FFFFFF">
                <path d="M5.74915,16.4848485 C3.2777729,16.4910961 1.13722549,14.7195868 0.610210314,12.2318803 C0.0831951334,9.74417393 1.31261424,7.21482102 3.56175,6.15951212 L3.6808,7.75998485 C2.18430347,8.7432035 1.54314109,10.6595196 2.13369791,12.3839877 C2.72425473,14.1084558 4.39065604,15.1859106 6.1546652,14.9838479 C7.91867436,14.7817852 9.3146894,13.3535386 9.5232,11.5375394 L10.454,13.5002667 C9.54760501,15.3202666 7.73454,16.4704076 5.74915,16.4848485 Z" id="Shape"></path>
                <path d="M11.6918,14.7335909 L9.545,9.55090909 L4.31075,9.54946667 L3.80235,2.18140909 C3.68753896,1.96263109 3.62633192,1.71827104 3.62405,1.46957273 C3.62473433,0.676769613 4.23565384,0.0274357335 5.00474525,0.0020599173 C5.77383666,-0.0233158989 6.42382853,0.584414791 6.47374514,1.37554835 C6.52366175,2.16668191 5.95550724,2.8560003 5.1897,2.93342727 L5.34,5.68294545 L9.00885,5.68294545 L9.01965,6.86887576 L5.4686,6.86887576 L5.55255,8.20311818 L10.41925,8.16942727 L12.4965,13.1106061 L14.07395,12.5239515 L14.51045,13.594797 L11.6918,14.7335909 Z" id="Shape"></path>
            </g>
        </g>
    </g>
</svg>