<?xml version="1.0" encoding="UTF-8"?>
<svg width="16px" height="16px" viewBox="0 0 16 16" version="1.1" xmlns="http://www.w3.org/2000/svg" xmlns:xlink="http://www.w3.org/1999/xlink">
    <!-- Generator: Sketch 49.3 (51167) - http://www.bohemiancoding.com/sketch -->
    <title>Icon/Facilities/Accessible - Circle/Small</title>
    <desc>Created with Sketch.</desc>
    <defs></defs>
    <g id="Icon/Facilities/Accessible---Circle/Small" stroke="none" stroke-width="1" fill="none" fill-rule="evenodd">
        <g id="icon-accessible-small" fill-rule="nonzero">
            <rect id="Rectangle-path" fill="#165C96" x="0" y="0" width="16" height="16" rx="3.7484"></rect>
            <g id="Group" transform="translate(2.000000, 1.000000)" fill="#FFFFFF">
                <path d="M8.35,10.4385 C7.73808771,11.9177911 6.35307157,12.933012 4.7582,13.0713 C4.643,13.0801 4.5282,13.085 4.4125,13.085 C2.20713704,13.0775884 0.37394704,11.3843406 0.1918,9.1865 C0.0773694563,7.54114412 0.917351857,5.97613246 2.3518,5.1621 L2.4455,5.1094 L2.6613,6.4785 L2.6252,6.5049 C1.82558983,7.11467406 1.39135463,8.08952699 1.4729,9.0918 C1.60582975,10.7119886 3.02498909,11.9189405 4.6455,11.79 C6.12539433,11.6542317 7.27877548,10.4483679 7.3486,8.9639 L7.3586,8.709 L8.3645,10.4043 L8.35,10.4385 Z" id="Shape"></path>
                <path d="M9.259,10.9136 L7.4973,7.0844 L3.5562,7.0833 L3.25,1.9412 C3.11626436,1.70211172 3.02326,1.44242948 2.9748,1.1728 C2.97530333,0.57264232 3.45175403,0.0810630944 4.05160289,0.0618058652 C4.65145175,0.042548636 5.15845167,0.502555685 5.19744858,1.10144527 C5.23644549,1.70033486 4.7933809,2.2222057 4.1961,2.2809 L4.2855,4.0833 L7.5091,4.0833 L7.5091,5.0715 L4.3607,5.097 L4.4356,6.0961 L8.5091,6.0833 L9.9032,9.3464 L10.8943,8.9451 L11.3953,9.9163 L9.259,10.9136 Z" id="Shape"></path>
            </g>
        </g>
    </g>
</svg>