<?xml version="1.0" encoding="UTF-8"?>
<svg width="24px" height="24px" viewBox="0 0 24 24" version="1.1" xmlns="http://www.w3.org/2000/svg" xmlns:xlink="http://www.w3.org/1999/xlink">
    <!-- Generator: Sketch 49.3 (51167) - http://www.bohemiancoding.com/sketch -->
    <title>Icon - FA - Twitter</title>
    <desc>Created with Sketch.</desc>
    <defs></defs>
    <g id="Icons" stroke="none" stroke-width="1" fill="none" fill-rule="evenodd">
        <g transform="translate(-558.000000, -594.000000)" id="Icon/FontAwesome/Twitter_24px">
            <g transform="translate(558.000000, 594.000000)">
                <g id="Page-1">
                    <path d="M24,12 C24,18.6275 18.6275,24 12,24 C5.3725,24 0,18.6275 0,12 C0,5.3725 5.3725,0 12,0 C18.6275,0 24,5.3725 24,12" id="Fill-1" fill="#1DA1F2"></path>
                    <path d="M9.26025,18 C14.83325,18 17.88125,13.383 17.88125,9.379 C17.88125,9.2475 17.88125,9.117 17.87275,8.9875 C18.46525,8.558 18.97725,8.0275 19.38425,7.419 C18.83125,7.664 18.24475,7.8245 17.64375,7.8955 C18.27625,7.517 18.74975,6.9215 18.97575,6.2195 C18.38125,6.573 17.73025,6.8215 17.05175,6.955 C15.90475,5.735 13.98525,5.676 12.76475,6.8235 C11.97825,7.5635 11.64425,8.6665 11.88825,9.719 C9.45225,9.596 7.18225,8.446 5.64375,6.5525 C4.83975,7.9375 5.25025,9.7085 6.58175,10.5975 C6.09975,10.5835 5.62775,10.453 5.20675,10.2185 L5.20675,10.257 C5.20725,11.699 6.22375,12.9415 7.63725,13.227 C7.19125,13.3485 6.72325,13.366 6.26925,13.279 C6.66625,14.513 7.80375,15.359 9.10025,15.3835 C8.02725,16.226 6.70175,16.684 5.33725,16.6825 C5.09575,16.682 4.85525,16.6675 4.61575,16.639 C6.00125,17.5285 7.61375,18 9.26025,17.9975" id="Fill-3" fill="#FFFFFF"></path>
                </g>
            </g>
        </g>
    </g>
</svg>