<?xml version="1.0" encoding="UTF-8"?>
<svg width="24px" height="24px" viewBox="0 0 24 24" version="1.1" xmlns="http://www.w3.org/2000/svg" xmlns:xlink="http://www.w3.org/1999/xlink">
    <!-- Generator: Sketch 49.3 (51167) - http://www.bohemiancoding.com/sketch -->
    <title>Icon - FA - Youtube</title>
    <desc>Created with Sketch.</desc>
    <defs>
        <polygon id="path-1" points="0 0 23.9999 0 23.9999 24 0 24"></polygon>
    </defs>
    <g id="Icons" stroke="none" stroke-width="1" fill="none" fill-rule="evenodd">
        <g transform="translate(-366.000000, -594.000000)" id="Icon/FontAwesome/Youtube_24px">
            <g transform="translate(366.000000, 594.000000)">
                <g id="Page-1">
                    <g id="Group-3">
                        <mask id="mask-2" fill="white">
                            <use xlink:href="#path-1"></use>
                        </mask>
                        <g id="Clip-2"></g>
                        <path d="M23.9999,12 C23.9999,18.6275 18.6274,24 11.9999,24 C5.3729,24 -0.0001,18.6275 -0.0001,12 C-0.0001,5.3725 5.3729,0 11.9999,0 C18.6274,0 23.9999,5.3725 23.9999,12" id="Fill-1" fill="#ED2024" mask="url(#mask-2)"></path>
                    </g>
                    <path d="M10.25575,14.51415 L10.25575,9.48565 L14.67475,12.00015 L10.25575,14.51415 Z M20.08575,7.90365 C19.89125,7.17165 19.31825,6.59515 18.59075,6.39965 C17.27225,6.04415 11.98475,6.04415 11.98475,6.04415 C11.98475,6.04415 6.69775,6.04415 5.37925,6.39965 C4.65175,6.59515 4.07875,7.17165 3.88425,7.90365 C3.53075,9.23115 3.53075,12.00015 3.53075,12.00015 C3.53075,12.00015 3.53075,14.76915 3.88425,16.09615 C4.07875,16.82815 4.65175,17.40465 5.37925,17.60065 C6.69775,17.95615 11.98475,17.95615 11.98475,17.95615 C11.98475,17.95615 17.27225,17.95615 18.59075,17.60065 C19.31825,17.40465 19.89125,16.82815 20.08575,16.09615 C20.43925,14.76915 20.43925,12.00015 20.43925,12.00015 C20.43925,12.00015 20.43925,9.23115 20.08575,7.90365 Z" id="Fill-4" fill="#FFFFFF"></path>
                </g>
            </g>
        </g>
    </g>
</svg>