<?xml version="1.0" encoding="UTF-8"?>
<svg width="24px" height="24px" viewBox="0 0 24 24" version="1.1" xmlns="http://www.w3.org/2000/svg" xmlns:xlink="http://www.w3.org/1999/xlink">
    <!-- Generator: Sketch 49.3 (51167) - http://www.bohemiancoding.com/sketch -->
    <title>Icon/Mode/Commuter Rail/Default</title>
    <desc>Created with Sketch.</desc>
    <defs></defs>
    <g id="Icon/Mode/Commuter-Rail/Default" stroke="none" stroke-width="1" fill="none" fill-rule="evenodd">
        <g id="icon-mode-commuter-rail-default" fill-rule="nonzero">
            <path d="M12,0 C5.372583,-4.05812251e-16 8.11624501e-16,5.372583 0,12 C-8.11624501e-16,18.627417 5.372583,24 12,24 C18.627417,24 24,18.627417 24,12 C24,5.372583 18.627417,5.73488277e-15 12,5.32907052e-15" id="Shape" fill="#80276C"></path>
            <path d="M16.695,7.24 C16.5021282,7.11270641 16.3872191,6.89607456 16.39,6.665 L16.39,4.87 C16.3775838,4.34794783 16.0100565,3.90195968 15.5,3.79 C14.4287875,3.47702916 13.340284,3.22660659 12.24,3.04 C12.0700169,3.00415012 11.894255,3.00585654 11.725,3.045 C10.75,3.26 9.77,3.45 8.805,3.72 C8.235,3.875 7.635,4.19 7.635,4.87 L7.635,6.65 C7.64050355,6.88431306 7.52287625,7.10438994 7.325,7.23 C6.97637249,7.44492442 6.7643397,7.82544755 6.765,8.235 L6.765,15.805 C6.76849564,16.1588009 6.92986469,16.4925414 7.205,16.715 L9.12,18.115 L7.575,20.985 L8.835,20.985 L9.055,20.59 L14.97,20.59 L15.195,20.985 L16.445,20.985 L14.91,18.115 L14.915,18.115 L16.79,16.73 C17.0706361,16.5048686 17.2342473,16.164778 17.235,15.805 L17.235,8.235 C17.2351636,7.83327489 17.0319223,7.45878399 16.695,7.24 Z M12.92,4.44 C12.9199807,4.32658359 12.9714487,4.21929056 13.0599172,4.14832139 C13.1483856,4.07735223 13.2642878,4.05038119 13.375,4.075 L15.225,4.465 C15.3970118,4.49861034 15.520852,4.64973733 15.52,4.825 L15.52,5.925 C15.5200967,6.03686334 15.4703868,6.14296283 15.3843718,6.21448091 C15.2983568,6.285999 15.184967,6.31551056 15.075,6.295 L13.225,5.935 C13.0485297,5.89947561 12.921197,5.74500641 12.92,5.565 L12.92,4.44 Z M13.955,18.765 L10.06,18.765 L10.39,18.165 L13.62,18.165 L13.955,18.765 Z M12,8.32 C12.7469632,8.31862057 13.3536151,8.92303522 13.3549954,9.66999847 C13.3563757,10.4169617 12.7519617,11.0236142 12.0049985,11.0249954 C11.2580352,11.0263765 10.651382,10.4219632 10.65,9.675 C10.6491504,9.31623792 10.7909496,8.97185264 11.044164,8.71770034 C11.2973785,8.46354805 11.6412372,8.32047671 12,8.32 Z M8.595,4.825 C8.59251908,4.64743122 8.7198948,4.49458036 8.895,4.465 L10.74,4.075 C10.8501725,4.0505957 10.9654593,4.07780159 11.0530979,4.14888621 C11.1407364,4.21997082 11.1911456,4.32716282 11.19,4.44 L11.19,5.565 C11.1910729,5.74410883 11.0654627,5.89902812 10.89,5.935 L9.04,6.295 C8.93003304,6.31551056 8.81664323,6.285999 8.73062823,6.21448091 C8.64461324,6.14296283 8.59490327,6.03686334 8.595,5.925 L8.595,4.825 Z M8.995,16.78 C8.58705105,16.781011 8.21875564,16.5359129 8.06217294,16.1592098 C7.90559024,15.7825067 7.99162866,15.3485574 8.28009301,15.060093 C8.56855736,14.7716287 9.00250668,14.6855902 9.37920978,14.8421729 C9.75591288,14.9987556 10.001011,15.3670511 10,15.775 C10,16.3300462 9.55004617,16.78 8.995,16.78 Z M9.385,19.985 L9.73,19.365 L14.29,19.365 L14.635,19.985 L9.385,19.985 Z M14.995,16.78 C14.5870511,16.781011 14.2187556,16.5359129 14.0621729,16.1592098 C13.9055902,15.7825067 13.9916287,15.3485574 14.280093,15.060093 C14.5685574,14.7716287 15.0025067,14.6855902 15.3792098,14.8421729 C15.7559129,14.9987556 16.001011,15.3670511 16,15.775 C16,16.3300462 15.5500462,16.78 14.995,16.78 Z" id="Shape" fill="#FFFFFF"></path>
        </g>
    </g>
</svg>