<?xml version="1.0" encoding="UTF-8"?>
<svg width="24px" height="24px" viewBox="0 0 24 24" version="1.1" xmlns="http://www.w3.org/2000/svg" xmlns:xlink="http://www.w3.org/1999/xlink">
    <!-- Generator: Sketch 52.2 (67145) - http://www.bohemiancoding.com/sketch -->
    <title>Icon/Mode/The RIDE/Default</title>
    <desc>Created with Sketch.</desc>
    <g id="Icon/Mode/The-RIDE/Default" stroke="none" stroke-width="1" fill="none" fill-rule="evenodd">
        <path d="M20.7087348,20.7087348 C15.9741166,25.4433531 8.29458385,25.4401533 3.55601843,20.7015879 C-1.182547,15.9630224 -1.1857468,8.28348973 3.54887146,3.54887146 C8.28348973,-1.1857468 15.9630224,-1.182547 20.7015879,3.55601843 C25.4401533,8.29458385 25.4433531,15.9741166 20.7087348,20.7087348 Z" id="Oval" fill="#52BBC5"></path>
        <path d="M19.5337838,10.3191348 L18.6925676,10.3191348 L18.4341216,9.05837045 C18.4237223,9.00101421 18.4084638,8.94466076 18.3885135,8.88992824 L17.8108108,7.38926133 C17.8936457,7.26184172 17.9376824,7.11280563 17.9375,6.96049935 L17.9375,5.42920658 C17.9388472,5.05062757 17.7904832,4.68708889 17.5251885,4.41891293 C17.2598937,4.15073696 16.899505,3.99999757 16.5236486,4 L8.48141892,4 C7.70057038,4 7.06756757,4.63759231 7.06756757,5.42410228 L7.06756757,6.95539504 C7.06810107,7.10687465 7.11019125,7.25525837 7.18918919,7.38415702 L6.61655405,8.88482393 C6.61655405,8.94097133 6.58108108,8.99711874 6.56587838,9.05326614 L6.30743243,10.3140305 L5.46621622,10.3140305 C5.34256799,10.3140305 5.22398407,10.3635057 5.13655157,10.4515721 C5.04911907,10.5396385 5,10.6590822 5,10.783627 L5,12.401693 C5.00277737,12.6590484 5.21069821,12.8662003 5.46621622,12.8661851 L5.79054054,12.8661851 L5.79054054,18.7769752 L6.89527027,18.7769752 L6.89527027,19.9254448 C6.85750819,20.2956857 7.03232278,20.6552788 7.34583848,20.8522624 C7.65935417,21.0492459 8.05686204,21.0492459 8.37037774,20.8522624 C8.68389344,20.6552788 8.85870802,20.2956857 8.82094595,19.9254448 L8.82094595,18.7769752 L16.1638514,18.7769752 L16.1638514,19.9254448 C16.1260893,20.2956857 16.3009039,20.6552788 16.6144196,20.8522624 C16.9279353,21.0492459 17.3254431,21.0492459 17.6389588,20.8522624 C17.9524745,20.6552788 18.1272891,20.2956857 18.089527,19.9254448 L18.089527,18.7769752 L19.2094595,18.7769752 L19.2094595,12.8661851 L19.5337838,12.8661851 C19.7893018,12.8662003 19.9972226,12.6590484 20,12.401693 L20,10.768314 C19.9891405,10.5169695 19.7835552,10.3188969 19.5337838,10.3191348 Z M7.87837838,16.4443059 C7.50283996,16.4463729 7.16313691,16.2201048 7.01800039,15.8712285 C6.87286386,15.5223523 6.95094953,15.1197498 7.21577073,14.8515429 C7.48059193,14.5833361 7.87986254,14.5024794 8.22701759,14.6467544 C8.57417264,14.7910294 8.80067007,15.1319505 8.80067568,15.5102173 C8.79241523,16.0181302 8.38269567,16.4262853 7.87837838,16.428993 L7.87837838,16.4443059 Z M6.98141892,12.6671171 L7.48817568,9.83932976 C7.53378378,9.19108249 7.75168919,9.05837045 7.99493243,9.05326614 L16.9797297,9.05326614 C17.2331081,9.05326614 17.4510135,9.19108249 17.4864865,9.83932976 L17.9932432,12.6671171 L6.98141892,12.6671171 Z M17.1165541,16.4443059 C16.6063788,16.4442368 16.1920695,16.029105 16.1893272,15.5152382 C16.186585,15.0013713 16.5964398,14.5817773 17.1065848,14.5761841 C17.6167299,14.5705908 18.0355554,14.9810992 18.0439189,15.4949044 C18.0439493,16.0068267 17.6348963,16.4233982 17.1266892,16.428993 L17.1165541,16.4443059 Z" id="Shape" fill="#000000" fill-rule="nonzero"></path>
    </g>
</svg>