<?xml version="1.0" encoding="UTF-8"?>
<svg width="16px" height="16px" viewBox="0 0 16 16" version="1.1" xmlns="http://www.w3.org/2000/svg" xmlns:xlink="http://www.w3.org/1999/xlink">
    <!-- Generator: Sketch 52.2 (67145) - http://www.bohemiancoding.com/sketch -->
    <title>Icon/Mode/The RIDE/Small</title>
    <desc>Created with Sketch.</desc>
    <g id="Icon/Mode/The-RIDE/Small" stroke="none" stroke-width="1" fill="none" fill-rule="evenodd">
        <g id="icon-mode-ferry-small" transform="translate(8.000000, 2.000000)" fill="#FFFFFF" fill-rule="nonzero">
            <g id="Group">
                <polygon id="Shape" points="0 0 0.01 0 0.01 0.01 0 0.01"></polygon>
                <polygon id="Shape" points="1 0 1.01 0 1.01 0.01 1 0.01"></polygon>
                <polygon id="Shape" points="0 0 0.01 0 0.01 0.01 0 0.01"></polygon>
                <polygon id="Shape" points="1 0 1.01 0 1.01 0.01 1 0.01"></polygon>
            </g>
        </g>
        <g id="icon-the-ride-vehicle-small" transform="translate(-4.000000, -4.000000)">
            <circle id="Oval" fill="#52BBC5" transform="translate(12.003708, 12.000000) rotate(-45.000000) translate(-12.003708, -12.000000) " cx="12.0037085" cy="12" r="7.99999999"></circle>
            <path d="M17.21,10.52 L16.3,10.52 L16.13,9.65 C16.1356349,9.61354983 16.1356349,9.57645017 16.13,9.54 L15.74,8.54 C15.7920958,8.44857397 15.8196551,8.34522627 15.82,8.24 L15.82,7.16 C15.82,6.60771525 15.3722847,6.16 14.82,6.16 L9.23,6.16 C8.67771525,6.16 8.23,6.60771525 8.23,7.16 L8.23,8.22 C8.23383052,8.3260545 8.26481933,8.42935055 8.32,8.52 L7.92,9.52 L7.92,9.63 L7.74,10.5 L6.84,10.5 C6.65774603,10.5 6.51,10.647746 6.51,10.83 L6.51,13 C6.50995769,13.0866306 6.54504111,13.1695768 6.60723329,13.2298844 C6.66942547,13.290192 6.75341166,13.3227072 6.84,13.32 L7.38,13.32 L7.38,16.38 L8,16.38 L8,17.17 C8,18.17 10,18.17 10,17.17 L10,16.38 L14,16.38 L14,17.17 C14,18.17 16,18.17 16,17.17 L16,16.38 L16.64,16.38 L16.64,13.27 L17.19,13.27 C17.3563928,13.2824054 17.5043908,13.1648776 17.53,13 L17.53,10.85 C17.5327072,10.7634117 17.500192,10.6794255 17.4398844,10.6172333 C17.3795768,10.5550411 17.2966306,10.5199577 17.21,10.52 Z M9.53,15.32 C9.0881722,15.32 8.73,14.9618278 8.73,14.52 C8.73,14.0781722 9.0881722,13.72 9.53,13.72 C9.9718278,13.72 10.33,14.0781722 10.33,14.52 C10.33,14.9618278 9.9718278,15.32 9.53,15.32 Z M14.53,15.32 C14.0881722,15.32 13.73,14.9618278 13.73,14.52 C13.73,14.0781722 14.0881722,13.72 14.53,13.72 C14.9718278,13.72 15.33,14.0781722 15.33,14.52 C15.330153,14.7374748 15.2417619,14.9456399 15.0851802,15.096562 C14.9285985,15.2474841 14.7173219,15.3281554 14.5,15.32 L14.53,15.32 Z M12,12.11 L8.19,12.11 L8.55,10.17 C8.55,9.73 8.74,9.64 8.91,9.64 L12,9.63 L15.1,9.63 C15.27,9.63 15.42,9.72 15.46,10.16 L15.82,12.1 L12,12.11 Z" id="Shape" fill="#000000" fill-rule="nonzero"></path>
        </g>
    </g>
</svg>