<?xml version="1.0" encoding="UTF-8"?>
<svg width="19px" height="13px" viewBox="0 0 19 13" version="1.1" xmlns="http://www.w3.org/2000/svg" xmlns:xlink="http://www.w3.org/1999/xlink">
    <!-- Generator: Sketch 49.3 (51167) - http://www.bohemiancoding.com/sketch -->
    <title>Icon/FontAwesome/Newspaper/16px</title>
    <desc>Created with Sketch.</desc>
    <defs></defs>
    <g id="Icons" stroke="none" stroke-width="1" fill="none" fill-rule="evenodd">
        <g id="v" transform="translate(-285.000000, -89.000000)" fill="#165C96">
            <g id="Icon/FontAwesome/Newspaper/16px" transform="translate(285.000000, 88.000000)">
                <path d="M9.14285714,4.85714286 L5.71428571,4.85714286 L5.71428571,8.28571429 L9.14285714,8.28571429 L9.14285714,4.85714286 Z M10.2857143,10.5714286 L10.2857143,11.7142857 L4.57142857,11.7142857 L4.57142857,10.5714286 L10.2857143,10.5714286 Z M10.2857143,3.71428571 L10.2857143,9.42857143 L4.57142857,9.42857143 L4.57142857,3.71428571 L10.2857143,3.71428571 Z M16,10.5714286 L16,11.7142857 L11.4285714,11.7142857 L11.4285714,10.5714286 L16,10.5714286 Z M16,8.28571429 L16,9.42857143 L11.4285714,9.42857143 L11.4285714,8.28571429 L16,8.28571429 Z M16,6 L16,7.14285714 L11.4285714,7.14285714 L11.4285714,6 L16,6 Z M16,3.71428571 L16,4.85714286 L11.4285714,4.85714286 L11.4285714,3.71428571 L16,3.71428571 Z M2.28571429,12.2857143 L2.28571429,3.71428571 L1.14285714,3.71428571 L1.14285714,12.2857143 C1.14285714,12.440477 1.1994042,12.5744042 1.3125,12.6875 C1.4255958,12.8005958 1.55952304,12.8571429 1.71428571,12.8571429 C1.86904839,12.8571429 2.00297562,12.8005958 2.11607143,12.6875 C2.22916723,12.5744042 2.28571429,12.440477 2.28571429,12.2857143 Z M17.1428571,12.2857143 L17.1428571,2.57142857 L3.42857143,2.57142857 L3.42857143,12.2857143 C3.42857143,12.4821438 3.39583366,12.6726181 3.33035714,12.8571429 L16.5714286,12.8571429 C16.7261912,12.8571429 16.8601185,12.8005958 16.9732143,12.6875 C17.0863101,12.5744042 17.1428571,12.440477 17.1428571,12.2857143 Z M18.2857143,1.42857143 L18.2857143,12.2857143 C18.2857143,12.7619071 18.1190493,13.166665 17.7857143,13.5 C17.4523793,13.833335 17.0476214,14 16.5714286,14 L1.71428571,14 C1.23809286,14 0.833335,13.833335 0.5,13.5 C0.166665,13.166665 0,12.7619071 0,12.2857143 L0,2.57142857 L2.28571429,2.57142857 L2.28571429,1.42857143 L18.2857143,1.42857143 Z"></path>
            </g>
        </g>
    </g>
</svg>