<?xml version="1.0" encoding="UTF-8"?>
<svg width="24px" height="24px" viewBox="0 0 24 24" version="1.1" xmlns="http://www.w3.org/2000/svg" xmlns:xlink="http://www.w3.org/1999/xlink">
    <!-- Generator: Sketch 49.3 (51167) - http://www.bohemiancoding.com/sketch -->
    <title>Icon/Mode/Black/Ferry/Default</title>
    <desc>Created with Sketch.</desc>
    <defs></defs>
    <g id="Icon/Mode/Black/Ferry/Default" stroke="none" stroke-width="1" fill="none" fill-rule="evenodd">
        <g id="icon-ferry-default" transform="translate(1.000000, 0.000000)" fill="#1C1E23" fill-rule="nonzero">
            <path d="M8.18849026,3.67936311 L8.18849026,5.38039605 L6.36449437,5.38039605 L6.36449437,6.69928283 L10.9960866,4.69850289 L15.6276788,6.69928283 L15.6276788,5.38039605 L13.7962096,5.38039605 L13.7962096,3.67936311 L8.18849026,3.67936311 Z M12.5097881,20.0753487 C11.5833971,20.6473451 10.4089781,20.6473451 9.48258711,20.0753487 C8.66885728,19.6165851 7.66466108,19.6455148 6.87924477,20.150348 C5.96104057,20.6725939 4.82522828,20.6436576 3.93536126,20.0753487 C3.15822548,19.6201084 2.19237117,19.6201084 1.41523539,20.0753487 C0.997018208,20.3423568 0.512606806,20.4901435 0.0151486287,20.5024944 L0.0151486287,18.254417 C0.47933351,18.2514535 0.936048623,18.1384347 1.34706656,17.9248203 C3.1936339,16.8457311 4.0563988,18.1421181 5.07807282,18.1348182 L5.07807282,12.8890208 L3.51907694,9.1049087 C3.40425117,8.864089 3.39074625,8.5879654 3.48153331,8.33728595 C3.57232036,8.08660649 3.75996205,7.88190704 4.00317662,7.76822211 C4.03047782,7.7554889 4.0583008,7.74395568 4.08664557,7.73362245 L5.04025174,7.32892651 L5.04025174,4.03155958 L6.83410186,4.03155958 L6.83410186,2.30802686 L9.40719743,2.30802686 L9.40719743,0 L12.5855312,0 L12.5855312,2.30802686 L15.1586268,2.30802686 L15.1586268,4.03155958 L16.9824712,4.03155958 L16.9824712,7.30652674 L17.9360269,7.71117268 C18.4617941,7.90226396 18.7315691,8.47920391 18.5385888,8.99980976 C18.5281868,9.02790948 18.5165392,9.05547587 18.503646,9.08250893 L16.9370758,12.866771 L16.9370758,18.1120684 C17.9511755,18.1120684 18.7760688,16.8006815 20.6680821,17.8797207 C21.0781027,18.0968191 21.5350612,18.2125228 22,18.2169673 L22,20.4650448 C21.5037894,20.4454006 21.0212897,20.2981918 20.5999637,20.0378991 C19.8206522,19.5906009 18.8591494,19.5906009 18.0798379,20.0378991 C17.1899638,20.6061853 16.0541644,20.6351213 15.1359544,20.1128983 C14.3373823,19.6122643 13.3226259,19.597755 12.5097881,20.0753487 Z M12.5097881,23.537414 C11.5485203,24.0816205 10.3682127,24.0816205 9.40694496,23.537414 C8.61374635,23.0481192 7.60086062,23.0806701 6.8413732,23.6198632 C5.92316607,24.1420976 4.78736024,24.1131615 3.89748969,23.5448639 C3.11831448,23.0905674 2.14555203,23.1167596 1.39246195,23.6123132 C0.975361292,23.8687526 0.490661036,23.9965695 0,23.9795096 L0,21.6265331 C0.467713006,21.6553843 0.932983394,21.5402178 1.33196843,21.2968365 C2.29304793,20.6748427 3.16338714,20.7947415 4.3591189,21.4541849 C5.19490181,21.8066371 6.14871177,21.7540254 6.93978879,21.3118363 C8.0068582,20.7272922 8.58957545,20.8696907 9.70966505,21.3942355 C10.4971848,21.7994775 11.4346969,21.7994775 12.2222166,21.3942355 C13.3422557,20.8696907 13.9552702,20.7272922 15.0223396,21.3118363 C15.8077081,21.754837 16.757426,21.8075323 17.5878609,21.4541849 C18.7987413,20.7947415 19.6766043,20.7048424 20.6150114,21.2968365 C21.0106572,21.5479726 21.478528,21.6637828 21.9469798,21.6265331 L21.9469798,23.9797596 C21.4364602,24.0143495 20.9279427,23.8884687 20.4939233,23.6200632 C19.7508319,23.1280296 18.7885451,23.1018018 18.0192433,23.5526138 C17.1293763,24.1209227 15.993564,24.149859 15.0753598,23.6276131 C14.3134576,23.0977461 13.3077241,23.0623871 12.5097881,23.537414 Z" id="Shape"></path>
        </g>
    </g>
</svg>