<?xml version="1.0" encoding="UTF-8"?>
<svg width="16px" height="16px" viewBox="0 0 16 16" version="1.1" xmlns="http://www.w3.org/2000/svg" xmlns:xlink="http://www.w3.org/1999/xlink">
    <!-- Generator: Sketch 49.3 (51167) - http://www.bohemiancoding.com/sketch -->
    <title>Icon/Mode/Black/Ferry/Small</title>
    <desc>Created with Sketch.</desc>
    <defs></defs>
    <g id="Icon/Mode/Black/Ferry/Small" stroke="none" stroke-width="1" fill="none" fill-rule="evenodd">
        <g id="icon-ferry-small" fill="#1C1E23" fill-rule="nonzero">
            <path d="M15.03131,10.91992 C13.65531,10.20056 13.05536,11.07483 12.31787,11.07483 L11.11578,11.0769 C10.9838886,10.3595754 10.9417583,9.62862782 10.99036,8.9009 C11.15405,8.05933 13,6 13,6 L12,5.6 L12,2 L11,2 L11,1 L9,1 L9,2.66453526e-15 L7,2.66453526e-15 L7,1 L5,1 L5,2 L4,2 L4,5.6 L3,6 C3,6 4.82672,8.02917 4.99036,8.87079 C5.03663026,9.61275278 4.98946735,10.3575894 4.84998,11.08779 L3.69318,11.08979 C2.95018,11.09479 2.32269,10.23054 0.97968,10.94996 C0.67677449,11.0932762 0.346085803,11.1683075 0.01099,11.16975 L0.01099,12.66847 C0.36903716,12.6612877 0.719399076,12.5633172 1.02924,12.38374 C1.60247979,12.0802103 2.28882021,12.0802103 2.86206,12.38374 C3.52096413,12.7628675 4.32725226,12.7816666 5.00311,12.43366 C5.58487644,12.0968238 6.29777233,12.0780278 6.89648,12.38374 C7.58080169,12.7650207 8.41369831,12.7650207 9.09802,12.38374 C9.69717567,12.0654658 10.4173104,12.0748921 11.00793,12.40874 C11.6837705,12.7567495 12.4900472,12.7379464 13.14893,12.35881 C13.7234797,12.0606001 14.4072003,12.0606001 14.98175,12.35881 C15.2934975,12.5338143 15.6426937,12.6314417 16,12.64349 L16,11.14478 C15.6644447,11.1424112 15.333596,11.065612 15.03131,10.91992 Z M5,5.2 L5,3 L6,3 L6,2 L10,2 L10,3 L11,3 L11,5.2 L10,4.8 L10,4 L9,4 L9,3 L7,3 L7,4 L6,4 L6,4.8 L5,5.2 Z" id="Shape"></path>
            <path d="M12.82587,14.3009 C12.2180499,14.5365722 11.5385958,14.5020184 10.95782,14.2059 C10.3184239,13.8533923 9.5383425,13.8744349 8.91888,14.2609 C8.33903801,14.5314105 7.66920199,14.5314105 7.08936,14.2609 C6.47791791,13.8744716 5.70410368,13.8533695 5.07251,14.2059 C4.48764211,14.501491 3.8050568,14.535999 3.19336,14.3009 C2.54021069,13.8441597 1.68274774,13.8033137 0.98914,14.1959 C0.693196362,14.3595593 0.35688657,14.4358788 0.01929,14.41599 L0.01929,15.98655 C0.373281324,15.9987548 0.723878195,15.9139954 1.0332,15.74143 C1.59205634,15.4104374 2.28270162,15.3933984 2.8572,15.69643 C3.51688508,16.0760294 4.32414356,16.0948588 5.00081,15.74643 C5.5660918,15.3861948 6.28342395,15.3650755 6.86892,15.69143 C7.57823905,16.0546493 8.41894095,16.0546493 9.12826,15.69143 C9.716562,15.3745497 10.4296048,15.3974514 10.99636,15.75143 C11.6730234,16.0998719 12.4802885,16.0810423 13.13997,15.70143 C13.7072626,15.4007174 14.3903446,15.4177759 14.94192,15.74643 C15.26401,15.9270038 15.6315187,16.0103921 16,15.98651 L16,14.416 C15.661962,14.4415361 15.3240543,14.364854 15.03015,14.19591 C14.3341073,13.8136135 13.4824265,13.8541791 12.82587,14.3009 Z" id="Shape"></path>
        </g>
    </g>
</svg>