<?xml version="1.0" encoding="UTF-8"?>
<svg width="24px" height="24px" viewBox="0 0 24 24" version="1.1" xmlns="http://www.w3.org/2000/svg" xmlns:xlink="http://www.w3.org/1999/xlink">
    <!-- Generator: Sketch 49.3 (51167) - http://www.bohemiancoding.com/sketch -->
    <title>Icon/Subway Line/Green B/Default</title>
    <desc>Created with Sketch.</desc>
    <defs></defs>
    <g id="Icon/Subway-Line/Green-B/Default" stroke="none" stroke-width="1" fill="none" fill-rule="evenodd">
        <g id="icon-green-line-b-default">
            <path d="M12.015,0 C5.387583,-1.87739444e-15 0.015,5.372583 0.015,12 C0.015,18.627417 5.387583,24 12.015,24 C18.642417,24 24.015,18.627417 24.015,12 C24.015,5.372583 18.642417,5.73488277e-15 12.015,5.32907052e-15" id="Shape" fill="#00843D" fill-rule="nonzero"></path>
            <text id="B" fill="#FFFFFF" font-family="HelveticaNeue-CondensedBlack, Helvetica Neue" font-size="29" font-style="condensed" font-weight="700">
                <tspan x="6.8959" y="31.5349">B</tspan>
            </text>
            <path d="M12.015,0 C5.387583,-1.87739444e-15 0.015,5.372583 0.015,12 C0.015,18.627417 5.387583,24 12.015,24 C18.642417,24 24.015,18.627417 24.015,12 C24.015,5.372583 18.642417,5.73488277e-15 12.015,5.32907052e-15" id="Shape" fill="#00843D" fill-rule="nonzero"></path>
            <text id="B" fill="#FFFFFF" font-family="HelveticaNeue-CondensedBlack, Helvetica Neue" font-size="29" font-style="condensed" font-weight="700">
                <tspan x="6.8959" y="31.5349">B</tspan>
            </text>
            <path d="M12,0 C5.372583,-4.05812251e-16 8.11624501e-16,5.372583 0,12 C-8.11624501e-16,18.627417 5.372583,24 12,24 C18.627417,24 24,18.627417 24,12 C24,8.81740212 22.7357179,5.76515517 20.4852814,3.51471863 C18.2348448,1.26428208 15.1825979,1.94877915e-16 12,0" id="Shape" fill="#00843D" fill-rule="nonzero"></path>
            <path d="M12.5366,6.8235 C12.989492,6.81948263 13.441544,6.86325826 13.88525,6.9541 C14.2577682,7.02734082 14.612392,7.17264504 14.9292,7.38185 C15.2199267,7.58096702 15.4526111,7.853663 15.6035,8.1721 C15.7739697,8.55482741 15.8557562,8.97112678 15.84275,9.3899 C15.8597289,9.8509246 15.7357321,10.3061668 15.4873,10.6949 C15.2193541,11.0686265 14.8564227,11.3639776 14.43605,11.5504 C15.0117436,11.6914188 15.518196,12.0332973 15.86425,12.5145 C16.1878476,13.006561 16.352345,13.5862116 16.33545,14.1749 C16.3473099,14.6449625 16.2428117,15.1106701 16.03125,15.5306 C15.8363861,15.9030801 15.5554993,16.2237165 15.2119,16.4659 C14.8554956,16.7135863 14.4575149,16.8952687 14.0369,17.0023 C13.5944976,17.1186189 13.1388878,17.1771227 12.68145,17.17635 L7.66455,17.1763576 L7.66455,6.8235 L12.5366,6.8235 Z M12.2466,11.0139 C12.6027638,11.0287442 12.9540385,10.9269204 13.24705,10.7239 C13.5249975,10.4934729 13.6714955,10.140845 13.63865,9.7813 C13.6467674,9.57524583 13.6018868,9.37055452 13.5083,9.1868 C13.4261022,9.03747307 13.3060248,8.91242906 13.16015,8.82425 C13.0057046,8.73396755 12.8361015,8.67258173 12.65965,8.6431 C12.4659001,8.60887842 12.2694984,8.59189532 12.07275,8.59235 L9.9409,8.59234111 L9.9409,11.0137 L12.2466,11.0139 Z M12.37695,15.40745 C12.5913784,15.4083105 12.8052981,15.386523 13.01515,15.34245 C13.2059947,15.3039527 13.3879775,15.2301727 13.55175,15.1249 C13.7081965,15.0209113 13.8354457,14.878636 13.9214,14.7116 C14.0206173,14.5036917 14.0678708,14.2748021 14.0591,14.0446 C14.1015602,13.6148743 13.9341111,13.1910572 13.6094,12.9064 C13.261572,12.664624 12.8434921,12.5447908 12.4204,12.5656 L9.9409,12.5656 L9.9409,15.4076 L12.37695,15.40745 Z" id="Shape" fill="#FFFFFF" fill-rule="nonzero"></path>
        </g>
    </g>
</svg>