<?xml version="1.0" encoding="UTF-8"?>
<svg width="16px" height="16px" viewBox="0 0 16 16" version="1.1" xmlns="http://www.w3.org/2000/svg" xmlns:xlink="http://www.w3.org/1999/xlink">
    <!-- Generator: Sketch 49.3 (51167) - http://www.bohemiancoding.com/sketch -->
    <title>Icon/Subway Line/Green B/Small</title>
    <desc>Created with Sketch.</desc>
    <defs></defs>
    <g id="Icon/Subway-Line/Green-B/Small" stroke="none" stroke-width="1" fill="none" fill-rule="evenodd">
        <g id="icon-green-line-b-small" fill-rule="nonzero">
            <path d="M8,0 C3.581722,-2.705415e-16 5.41083001e-16,3.581722 0,8 C-5.41083001e-16,12.418278 3.581722,16 8,16 C12.418278,16 16,12.418278 16,8 C16,3.581722 12.418278,2.04689834e-15 8,1.77635684e-15" id="Shape" fill="#00843D"></path>
            <path d="M8.59,4 C8.95435478,3.99700699 9.31807639,4.03091324 9.6756,4.1012 C9.97381383,4.15701805 10.258702,4.26900506 10.5151,4.4312 C10.7469156,4.58289659 10.9340803,4.79367262 11.0573,5.0418 C11.194506,5.33598943 11.2604876,5.65836078 11.2499,5.9828 C11.2630478,6.34062213 11.1629638,6.69347077 10.9639,6.9911 C10.7455538,7.2823724 10.4539231,7.51058413 10.1187,7.6525 C10.5770436,7.75835508 10.9835184,8.02212826 11.2669,8.3976 C11.5264913,8.77404627 11.6593854,9.22341335 11.6463,9.6805 C11.6553758,10.0449063 11.5710694,10.4055754 11.4014,10.7282 C11.2426513,11.0184594 11.0162528,11.2661599 10.7414,11.4503 C10.4533514,11.6427732 10.1337258,11.7831404 9.7971,11.865 C9.44101097,11.9550392 9.07509594,12.0003881 8.7078,12 L4.6719,12.0000025 L4.6719,4 L8.59,4 Z M8.3569,7.2382 C8.6423186,7.25037546 8.92426207,7.17185557 9.1623,7.0139 C9.38354934,6.83998985 9.50184778,6.56599199 9.4767,6.2857 C9.48349383,6.12607637 9.44730027,5.96755687 9.3719,5.8267 C9.30551243,5.71013861 9.20914705,5.61346249 9.0928,5.5467 C8.96761592,5.47674588 8.83110256,5.42935716 8.6895,5.4067 C8.53372206,5.38005653 8.37593942,5.36687452 8.2179,5.3673 L6.5024,5.36729002 L6.5024,7.2383 L8.3569,7.2382 Z M8.4628,10.6328 C8.63492911,10.6337541 8.80669981,10.6169992 8.9754,10.5828 C9.12827528,10.5533118 9.27456075,10.4964306 9.4072,10.4149 C9.53207454,10.3356759 9.63445825,10.2256469 9.7045,10.0954 C9.78414316,9.93564485 9.82215165,9.75836366 9.815,9.58 C9.84742595,9.24525203 9.71224795,8.91612298 9.4539,8.7008 C9.17121492,8.51310714 8.83592595,8.42070909 8.497,8.4371 L6.5024,8.4371 L6.5024,10.6331 L8.4628,10.6328 Z" id="Shape" fill="#FFFFFF"></path>
        </g>
    </g>
</svg>