<?xml version="1.0" encoding="UTF-8"?>
<svg width="24px" height="24px" viewBox="0 0 24 24" version="1.1" xmlns="http://www.w3.org/2000/svg" xmlns:xlink="http://www.w3.org/1999/xlink">
    <!-- Generator: Sketch 49.3 (51167) - http://www.bohemiancoding.com/sketch -->
    <title>Icon/Mode/Ferry/Default</title>
    <desc>Created with Sketch.</desc>
    <defs></defs>
    <g id="Icon/Mode/Ferry/Default" stroke="none" stroke-width="1" fill="none" fill-rule="evenodd">
        <g id="icon-mode-ferry-default" fill-rule="nonzero">
            <path d="M12.0075,0 C5.380083,-4.05812251e-16 0.0075,5.372583 0.0075,12 C0.0075,18.627417 5.380083,24 12.0075,24 C18.634917,24 24.0075,18.627417 24.0075,12 C24.0075,5.372583 18.634917,5.73488277e-15 12.0075,5.32907052e-15" id="Shape" fill="#008EAA"></path>
            <path d="M9.74535,4.77125 L9.74535,6.04465 L8.3934,6.04465 L8.3934,7.03195 L11.82655,5.53415 L15.26,7.03195 L15.26,6.04465 L13.90215,6.04465 L13.90215,4.77125 L9.74535,4.77125 Z M12.9485,17.04535 C12.2618052,17.4735055 11.3912948,17.4735055 10.7046,17.04535 C10.101429,16.7018812 9.35704912,16.7235212 8.77485,17.10145 C8.0942352,17.4923961 7.25232764,17.4707519 6.5927,17.04535 C6.01664607,16.7045547 5.30070393,16.7045547 4.72465,17.04535 C4.4146672,17.2452968 4.0556058,17.3560114 3.68685,17.36535 L3.68685,15.68215 C4.03094095,15.679941 4.36949319,15.5953115 4.67415,15.43535 C6.04295,14.62755 6.68245,15.59805 7.43975,15.5924 L7.43975,11.6656 L6.28415,8.8327 C6.19902919,8.65241336 6.18901637,8.44569595 6.25631442,8.25802657 C6.32361247,8.07035718 6.46270824,7.91710996 6.643,7.832 C6.6632,7.82243333 6.68383333,7.8138 6.7049,7.8061 L7.4117,7.50315 L7.4117,5.035 L8.7412,5.035 L8.7412,3.74465 L10.6485,3.74465 L10.6485,2.01685 L13.0046,2.01685 L13.0046,3.74465 L14.9119,3.74465 L14.9119,5.035 L16.26385,5.035 L16.26385,7.48645 L16.9707,7.78935 C17.3604182,7.9324222 17.560383,8.36431738 17.41735,8.75405 C17.4096167,8.77505 17.4009833,8.79568333 17.39145,8.81595 L16.23,11.64875 L16.23,15.5756 C16.9817,15.5756 17.5932,14.5939 18.9956,15.4017 C19.299555,15.5642034 19.6382978,15.6507975 19.98295,15.6541 L19.98295,17.33705 C19.6151039,17.3222786 19.2574405,17.2119951 18.94515,17.01705 C18.3674845,16.6821956 17.6547655,16.6821956 17.0771,17.01705 C16.4174534,17.4424495 15.5755332,17.4640936 14.8949,17.07315 C14.3029552,16.6985839 13.5509008,16.6878425 12.9485,17.04535 Z M12.9485,19.63705 C12.2359558,20.0444511 11.3610442,20.0444511 10.6485,19.63705 C10.0605585,19.2707493 9.30976097,19.2951086 8.7468,19.69875 C8.06619101,20.0897191 7.22427066,20.0680745 6.56465,19.64265 C5.98710348,19.3024957 5.26600438,19.3221071 4.7078,19.69315 C4.39863841,19.8851973 4.0393305,19.9809246 3.6756,19.96815 L3.6756,18.20655 C4.0222719,18.2282077 4.36715503,18.1420873 4.66295,17.96 C5.37535,17.49435 6.0205,17.58415 6.90685,18.0778 C7.52637922,18.3415966 8.23336686,18.3021983 8.81975,17.9712 C9.6107,17.53365 10.04265,17.6402 10.8729,18.0329 C11.4566605,18.3362486 12.1515895,18.3362486 12.73535,18.0329 C13.56535,17.6402 14.02,17.53365 14.81095,17.9712 C15.3931009,18.302844 16.0970819,18.3423058 16.71265,18.0778 C17.6102,17.5841 18.26095,17.5168 18.95655,17.96 C19.2498116,18.1480067 19.5966173,18.2346994 19.94385,18.2068 L19.94385,19.968 C19.5654349,19.9939391 19.1884934,19.8997081 18.8668,19.69875 C18.3159674,19.3304151 17.602663,19.3107782 17.0324,19.64825 C16.3727708,20.073706 15.5308187,20.0953509 14.8502,19.70435 C14.2854127,19.3077413 13.5399108,19.2813584 12.9485,19.63705 Z" id="Shape" fill="#FFFFFF"></path>
        </g>
    </g>
</svg>