<?xml version="1.0" encoding="UTF-8"?>
<svg width="16px" height="16px" viewBox="0 0 16 16" version="1.1" xmlns="http://www.w3.org/2000/svg" xmlns:xlink="http://www.w3.org/1999/xlink">
    <!-- Generator: Sketch 52.2 (67145) - http://www.bohemiancoding.com/sketch -->
    <title>Icon/Mode/Ferry/Small</title>
    <desc>Created with Sketch.</desc>
    <g id="Icon/Mode/Ferry/Small" stroke="none" stroke-width="1" fill="none" fill-rule="evenodd">
        <g id="icon-mode-ferry-small" fill-rule="nonzero">
            <path d="M13.37,10.33 L14.14,10.33 L14.14,13.11 C14.0549166,13.2357983 13.9577921,13.3530175 13.85,13.46 C13.4739373,13.8644784 13.0547804,14.22663 12.6,14.54 L12.6,10.33 L13.37,10.33 L12.6,10.33 L12.6,14.54 C12.6,14.5455228 12.5955228,14.55 12.59,14.55 C9.83537052,16.4870021 6.1604029,16.4829989 3.41,14.54 C3.33,14.48 3.25,14.43 3.17,14.36 L1.64,12.84 C0.573288975,11.4523398 -0.00344382908,9.75027467 1.10762951e-13,8 C1.1025917e-13,3.581722 3.581722,2.03515497e-14 8,1.95399252e-14 C12.418278,1.87283007e-14 16,3.581722 16,8 C16.0046642,9.86984596 15.3455422,11.6806597 14.14,13.11 L14.14,10.33 L13.37,10.33 Z" id="Combined-Shape" fill="#008EAA"></path>
            <g id="Group" transform="translate(3.000000, 1.000000)" fill="#FFFFFF">
                <path d="M6.01,1 L8,1 L8,2 L9,2 L9,5.64 L9.6,5.88 C8.85324555,6.66872661 8.22957998,7.56545656 7.75,8.54 C7.69568817,9.04239367 7.75025978,9.55059178 7.91,10.03 C7.96139903,10.0178681 8.01160162,10.0011339 8.06,9.98 C8.46964053,9.67589189 9.02206759,9.64827054 9.46,9.91 C9.50265701,9.93829664 9.5500907,9.95862536 9.6,9.97 L9.6,11.07 C9.53466592,11.040615 9.47121149,11.0072179 9.41,10.97 C9.06090171,10.7507638 8.6200541,10.7392634 8.26,10.94 C7.84846581,11.2022523 7.32623608,11.217612 6.9,10.98 C6.54606085,10.7327685 6.07974209,10.7170939 5.71,10.94 C5.26611391,11.1900033 4.72388609,11.1900033 4.28,10.94 C3.91224234,10.7140196 3.44590377,10.725776 3.09,10.97 C2.66564334,11.2108573 2.14332299,11.1993356 1.73,10.94 C1.3689345,10.7291996 0.919686649,10.7408181 0.57,10.97 C0.55,10.98 0.52,11 0.5,11.01 L0.5,9.93 C0.51,9.92 0.53,9.92 0.54,9.91 C0.975325492,9.63803135 1.53397475,9.66596381 1.94,9.98 C1.98707271,10.0025582 2.0379453,10.0161242 2.09,10.02 C2.24099201,9.53530258 2.29202238,9.02499886 2.24,8.52 C1.76946094,7.55108789 1.15219466,6.66060539 0.41,5.88 L1,5.64 L1,2 L2,2 L2,1 L4.01,1 L4.01,0.01 L6.01,0.01 L6.01,1 Z M9.6,12.07 L9.6,13.17 C9.53305823,13.1482996 9.46919732,13.1180497 9.41,13.08 C9.06396823,12.8508323 8.61750956,12.8391855 8.26,13.05 C7.84664433,13.3092265 7.3243845,13.3207469 6.9,13.08 C6.5444315,12.8377055 6.08103624,12.8221292 5.71,13.04 C5.26611391,13.2900033 4.72388609,13.2900033 4.28,13.04 C3.91025791,12.8170939 3.44393915,12.8327685 3.09,13.08 C2.66504785,13.3228086 2.13994706,13.3073645 1.73,13.04 C1.36578432,12.8373943 0.91939435,12.8527871 0.57,13.08 C0.544660748,13.089468 0.521021562,13.1029761 0.5,13.12 L0.5,12.03 C0.515041299,12.0275078 0.528981488,12.0205377 0.54,12.01 C0.977554867,11.7415779 1.53587031,11.7734816 1.94,12.09 C2.32679124,12.2481299 2.76441566,12.2223873 3.13,12.02 C3.5302214,11.7776163 4.03556458,11.7932859 4.42,12.06 C4.78571747,12.240004 5.21428253,12.240004 5.58,12.06 C5.96446888,11.7933873 6.46975149,11.7777196 6.87,12.02 C7.23574938,12.2218173 7.67311169,12.2475445 8.06,12.09 C8.46601155,11.7785078 9.02114808,11.7467857 9.46,12.01 C9.50170587,12.0400178 9.54950029,12.0605011 9.6,12.07 Z M7.01,4.84 L8,5.24 L8,3 L7,3 L7,2 L3,2 L3,3 L2,3 L2,5.24 L3,4.84 L3,4 L4,4 L4,3 L6,3 L6,4 L7.01,4 L7.01,4.84 Z" id="Combined-Shape"></path>
            </g>
        </g>
    </g>
</svg>