<?xml version="1.0" encoding="UTF-8"?>
<svg width="14px" height="15px" viewBox="0 0 14 15" version="1.1" xmlns="http://www.w3.org/2000/svg" xmlns:xlink="http://www.w3.org/1999/xlink">
    <!-- Generator: Sketch 49.3 (51167) - http://www.bohemiancoding.com/sketch -->
    <title>Icon/FontAwesome/Circle Minus/16px</title>
    <desc>Created with Sketch.</desc>
    <defs></defs>
    <g id="Icons" stroke="none" stroke-width="1" fill="none" fill-rule="evenodd">
        <g id="v" transform="translate(-207.000000, -92.000000)" fill="#165C96">
            <g id="Icon/FontAwesome/Circle-Minus/16px" transform="translate(207.000000, 91.000000)">
                <path d="M10.8571429,8.85714286 L10.8571429,7.71428571 C10.8571429,7.55952304 10.8005958,7.4255958 10.6875,7.3125 C10.5744042,7.1994042 10.440477,7.14285714 10.2857143,7.14285714 L3.42857143,7.14285714 C3.27380875,7.14285714 3.13988152,7.1994042 3.02678571,7.3125 C2.91368991,7.4255958 2.85714286,7.55952304 2.85714286,7.71428571 L2.85714286,8.85714286 C2.85714286,9.01190554 2.91368991,9.14583277 3.02678571,9.25892857 C3.13988152,9.37202438 3.27380875,9.42857143 3.42857143,9.42857143 L10.2857143,9.42857143 C10.440477,9.42857143 10.5744042,9.37202438 10.6875,9.25892857 C10.8005958,9.14583277 10.8571429,9.01190554 10.8571429,8.85714286 Z M12.7946429,4.84821429 C13.4077412,5.89583857 13.7142857,7.04166045 13.7142857,8.28571429 C13.7142857,9.52976813 13.4077412,10.6770781 12.7946429,11.7276786 C12.1815446,12.7782791 11.3497076,13.610116 10.2991071,14.2232143 C9.24850665,14.8363126 8.1011967,15.1428571 6.85714286,15.1428571 C5.61308902,15.1428571 4.46577906,14.8363126 3.41517857,14.2232143 C2.36457808,13.610116 1.53274116,12.7782791 0.919642857,11.7276786 C0.306544554,10.6770781 0,9.52976813 0,8.28571429 C0,7.04166045 0.306544554,5.89435049 0.919642857,4.84375 C1.53274116,3.79314951 2.36457808,2.96131259 3.41517857,2.34821429 C4.46577906,1.73511598 5.61308902,1.42857143 6.85714286,1.42857143 C8.1011967,1.42857143 9.24850665,1.73511598 10.2991071,2.34821429 C11.3497076,2.96131259 12.1815446,3.79463759 12.7946429,4.84821429 Z" id="FontAwesome/Circle-Minus"></path>
            </g>
        </g>
    </g>
</svg>