<?xml version="1.0" encoding="UTF-8"?>
<svg width="24px" height="24px" viewBox="0 0 24 24" version="1.1" xmlns="http://www.w3.org/2000/svg" xmlns:xlink="http://www.w3.org/1999/xlink">
    <!-- Generator: Sketch 52.2 (67145) - http://www.bohemiancoding.com/sketch -->
    <title>Icon/Mode/Bus/Default</title>
    <desc>Created with Sketch.</desc>
    <g id="2018oct-designs" stroke="none" stroke-width="1" fill="none" fill-rule="evenodd">
        <g id="Icon/Mode/Bus/Default">
            <path d="M12.06,24 C18.78,23.83 24.17,18.36 24,11.94 C23.9667807,5.31270531 18.5673965,-0.0328645938 11.9401015,0.000299495423 C5.31280653,0.0334635847 -0.0328083664,5.43280326 0.000300495411,12.0600985 C0.0334093572,18.6873937 5.43270448,24.0330536 12.06,24" id="Path" fill="#FFC72C"></path>
            <path d="M18.78,10.67 L18.12,5.5 C17.96,4.57 17.37,4.2 16.49,3.82 C15.0471136,3.30719464 13.5310036,3.03031041 12,3 C10.4657531,3.03045492 8.94637466,3.30731944 7.5,3.82 C6.64,4.19 6.05,4.57 5.87,5.5 L5.21,10.67 L5.21,17.82 L6.38,17.82 L6.38,19.07 C6.5099224,19.4883192 6.89696945,19.7733942 7.335,19.7733942 C7.77303055,19.7733942 8.1600776,19.4883192 8.29,19.07 L8.29,17.82 L15.74,17.82 L15.74,19.07 C15.740735,19.4046388 15.9250763,19.7118744 16.22,19.87 C16.5294011,20.0486328 16.9105989,20.0486328 17.22,19.87 C17.5159431,19.7142951 17.6980609,19.4043073 17.69,19.07 L17.69,17.82 L18.82,17.82 L18.78,10.67 Z M9.21,4.31 L14.82,4.31 C14.9313999,4.30731603 15.0393002,4.34901179 15.1199478,4.42590838 C15.2005955,4.50280498 15.2473792,4.60859865 15.25,4.72 C15.2500321,4.83314538 15.2044121,4.94151791 15.1234706,5.02057706 C15.0425291,5.09963621 14.9331133,5.14269394 14.82,5.14 L9.21,5.14 C8.97636861,5.14006319 8.78543328,4.95356821 8.78,4.72 C8.78262082,4.60859865 8.82940453,4.50280498 8.91005218,4.42590838 C8.99069983,4.34901179 9.09860015,4.30731603 9.21,4.31 Z M6.42,10.52 L7,6.43 C7.05056069,6.18624499 7.26120649,6.00864166 7.51,6 L16.57,6 C16.8304152,6.00325608 17.0542127,6.18560962 17.11,6.44 L17.65,10.53 C17.6600129,10.5761296 17.6600129,10.6238704 17.65,10.67 C17.6522177,10.810576 17.5939448,10.9453321 17.49,11.04 C17.3878644,11.137834 17.2514225,11.1916926 17.11,11.19 L6.94,11.19 C6.79329355,11.1790394 6.65679233,11.1107888 6.56,11 C6.46839306,10.8947399 6.41858003,10.7595331 6.42,10.62 C6.41492017,10.5868602 6.41492017,10.5531398 6.42,10.52 Z M7.34,15.61 C6.93553776,15.61 6.57090147,15.3663578 6.41612047,14.9926834 C6.26133947,14.619009 6.34689522,14.1888912 6.63289322,13.9028932 C6.91889121,13.6168952 7.34900904,13.5313395 7.72268343,13.6861205 C8.09635782,13.8409015 8.34,14.2055378 8.34,14.61 C8.33624295,14.8737693 8.22841426,15.1253695 8.04,15.31 C7.85536954,15.4984143 7.60376927,15.606243 7.34,15.61 Z M16.7,15.61 C16.1477153,15.61 15.7,15.1622847 15.7,14.61 C15.7,14.0577153 16.1477153,13.61 16.7,13.61 C17.2522847,13.61 17.7,14.0577153 17.7,14.61 C17.696243,14.8737693 17.5884143,15.1253695 17.4,15.31 C17.2052985,15.4942231 16.9480338,15.5978436 16.68,15.6 L16.7,15.61 Z" id="Shape" fill="#1C1E23" fill-rule="nonzero"></path>
        </g>
    </g>
</svg>