<?xml version="1.0" encoding="UTF-8"?>
<svg width="16px" height="16px" viewBox="0 0 16 16" version="1.1" xmlns="http://www.w3.org/2000/svg" xmlns:xlink="http://www.w3.org/1999/xlink">
    <!-- Generator: Sketch 49.3 (51167) - http://www.bohemiancoding.com/sketch -->
    <title>Icon/Mode/Bus/Small</title>
    <desc>Created with Sketch.</desc>
    <defs></defs>
    <g id="Icon/Mode/Bus/Small" stroke="none" stroke-width="1" fill="none" fill-rule="evenodd">
        <g id="icon-mode-bus-small" fill-rule="nonzero">
            <path d="M8.0349,0 C3.62594371,0.0224239545 0.0573239545,3.59104371 0.0349,8 C0.0349,12.418278 3.616622,16 8.0349,16 C12.453178,16 16.0349,12.418278 16.0349,8 C16.0349,3.581722 12.453178,2.705415e-16 8.0349,0" id="Shape" fill="#FFC72C"></path>
            <path d="M12.5516,6.9551 L12.1124,3.6573 C11.9975,3.0626 11.6055,2.8261 11.0244,2.5829 C10.0590133,2.25729814 9.04933947,2.08191972 8.0307,2.0629 C7.01430329,2.08249802 6.0069248,2.25787024 5.0437,2.5829 C4.4693,2.8261 4.0706,3.0629 3.949,3.6573 L3.5164,6.9551 L3.5164,11.51 L4.324,11.51 L4.324,12.2872 C4.32840961,12.4910283 4.44192894,12.6767906 4.6213,12.7737 C4.6619,12.7937 4.7024,12.8143 4.7362,12.8278 C4.76704918,12.8390442 4.79866319,12.8480672 4.8308,12.8548 C4.88148173,12.8685116 4.93379806,12.8752404 4.9863,12.8748 L5.2163,12.8748 C5.56228734,12.8939476 5.8598739,12.6324753 5.8854,12.2869 L5.8854,11.51 L10.2484,11.51 L10.2484,12.2872 C10.252768,12.4910404 10.3662991,12.6768221 10.5457,12.7737 C10.5863,12.7937 10.6268,12.8143 10.6606,12.8278 C10.6914492,12.8390442 10.7230632,12.8480672 10.7552,12.8548 C10.8058817,12.8685116 10.8581981,12.8752404 10.9107,12.8748 L11.1407,12.8748 C11.4866683,12.8939457 11.7842257,12.63246 11.8097,12.2869 L11.8097,11.51 L12.5522,11.51 L12.5516,6.9551 Z M5.9087,3.0156 L10.1594,3.0156 C10.3621,3.0156 10.531,3.2465 10.531,3.5234 C10.531,3.8003 10.3621,4.0312 10.1594,4.0312 L5.9087,4.0312 C5.706,4.0312 5.537,3.8004 5.537,3.5234 C5.537,3.2464 5.706,3.0156 5.9087,3.0156 Z M4.8691,7.57 L5.17,5.2361 C5.19388213,5.07818748 5.33239381,4.96329161 5.492,4.969 L10.6166,4.969 C10.775686,4.96497996 10.913311,5.07903403 10.9389,5.2361 L11.2829,7.57 L11.2829,7.6742 C11.2830189,7.85282096 11.1392118,7.99818969 10.9606,8 L5.18,8 C5.00258218,7.98836624 4.86586795,7.83895082 4.87,7.6612 C4.86368449,7.63115727 4.86337861,7.60016152 4.8691,7.57 Z M5.5156,10.3235 C5.21007851,10.346437 4.91683956,10.1988924 4.75317996,9.93988461 C4.58952036,9.68087684 4.58216038,9.35269347 4.73404406,9.0866092 C4.88592773,8.82052494 5.17225741,8.65998268 5.4785,8.6692 C5.79212433,8.63222539 6.09960741,8.77619038 6.27205406,9.04074565 C6.44450072,9.30530092 6.45211295,9.64473254 6.29169975,9.91675266 C6.13128655,10.1887728 5.8305666,10.3463776 5.5156,10.3235 Z M10.531,10.3235 C10.2254785,10.346437 9.93223956,10.1988924 9.76857996,9.93988461 C9.60492036,9.68087684 9.59756038,9.35269347 9.74944406,9.0866092 C9.90132773,8.82052494 10.1876574,8.65998268 10.4939,8.6692 C10.8075243,8.63222539 11.1150074,8.77619038 11.2874541,9.04074565 C11.4599007,9.30530092 11.4675129,9.64473254 11.3070998,9.91675266 C11.1466866,10.1887728 10.8459666,10.3463776 10.531,10.3235 Z" id="Shape" fill="#1C1E23"></path>
        </g>
    </g>
</svg>