<?xml version="1.0" encoding="UTF-8"?>
<svg width="14px" height="15px" viewBox="0 0 14 15" version="1.1" xmlns="http://www.w3.org/2000/svg" xmlns:xlink="http://www.w3.org/1999/xlink">
    <!-- Generator: Sketch 49.3 (51167) - http://www.bohemiancoding.com/sketch -->
    <title>Icon/FontAwesome/Times-Circle/16px</title>
    <desc>Created with Sketch.</desc>
    <defs></defs>
    <g id="Icons" stroke="none" stroke-width="1" fill="none" fill-rule="evenodd">
        <g id="v" transform="translate(-392.000000, -89.000000)" fill="#165C96">
            <g id="Icon/FontAwesome/Times-Circle/16px" transform="translate(392.000000, 88.000000)">
                <path d="M10.2589286,10.3035714 C10.2589286,10.1488088 10.2023815,10.0148815 10.0892857,9.90178571 L8.47321429,8.28571429 L10.0892857,6.66964286 C10.2023815,6.55654705 10.2589286,6.42261982 10.2589286,6.26785714 C10.2589286,6.10714205 10.2023815,5.97023866 10.0892857,5.85714286 L9.28571429,5.05357143 C9.17261848,4.94047562 9.03571509,4.88392857 8.875,4.88392857 C8.72023732,4.88392857 8.58631009,4.94047562 8.47321429,5.05357143 L6.85714286,6.66964286 L5.24107143,5.05357143 C5.12797562,4.94047562 4.99404839,4.88392857 4.83928571,4.88392857 C4.67857063,4.88392857 4.54166723,4.94047562 4.42857143,5.05357143 L3.625,5.85714286 C3.5119042,5.97023866 3.45535714,6.10714205 3.45535714,6.26785714 C3.45535714,6.42261982 3.5119042,6.55654705 3.625,6.66964286 L5.24107143,8.28571429 L3.625,9.90178571 C3.5119042,10.0148815 3.45535714,10.1488088 3.45535714,10.3035714 C3.45535714,10.4642865 3.5119042,10.6011899 3.625,10.7142857 L4.42857143,11.5178571 C4.54166723,11.6309529 4.67857063,11.6875 4.83928571,11.6875 C4.99404839,11.6875 5.12797562,11.6309529 5.24107143,11.5178571 L6.85714286,9.90178571 L8.47321429,11.5178571 C8.58631009,11.6309529 8.72023732,11.6875 8.875,11.6875 C9.03571509,11.6875 9.17261848,11.6309529 9.28571429,11.5178571 L10.0892857,10.7142857 C10.2023815,10.6011899 10.2589286,10.4642865 10.2589286,10.3035714 Z M12.7946429,4.84821429 C13.4077412,5.89583857 13.7142857,7.04166045 13.7142857,8.28571429 C13.7142857,9.52976813 13.4077412,10.6770781 12.7946429,11.7276786 C12.1815446,12.7782791 11.3497076,13.610116 10.2991071,14.2232143 C9.24850665,14.8363126 8.1011967,15.1428571 6.85714286,15.1428571 C5.61308902,15.1428571 4.46577906,14.8363126 3.41517857,14.2232143 C2.36457808,13.610116 1.53274116,12.7782791 0.919642857,11.7276786 C0.306544554,10.6770781 0,9.52976813 0,8.28571429 C0,7.04166045 0.306544554,5.89435049 0.919642857,4.84375 C1.53274116,3.79314951 2.36457808,2.96131259 3.41517857,2.34821429 C4.46577906,1.73511598 5.61308902,1.42857143 6.85714286,1.42857143 C8.1011967,1.42857143 9.24850665,1.73511598 10.2991071,2.34821429 C11.3497076,2.96131259 12.1815446,3.79463759 12.7946429,4.84821429 Z"></path>
            </g>
        </g>
    </g>
</svg>