<?xml version="1.0" encoding="UTF-8"?>
<svg width="24px" height="24px" viewBox="0 0 24 24" version="1.1" xmlns="http://www.w3.org/2000/svg" xmlns:xlink="http://www.w3.org/1999/xlink">
    <!-- Generator: Sketch 49.3 (51167) - http://www.bohemiancoding.com/sketch -->
    <title>Icon/Alert/Black/Regular</title>
    <desc>Created with Sketch.</desc>
    <defs>
        <polygon id="path-1" points="0 0 23.9998742 0 23.9998742 24 0 24"></polygon>
    </defs>
    <g id="Icon/Alert/Black/Regular" stroke="none" stroke-width="1" fill="none" fill-rule="evenodd">
        <g id="Page-1">
            <g id="Group-3">
                <mask id="mask-2" fill="white">
                    <use xlink:href="#path-1"></use>
                </mask>
                <g id="Clip-2"></g>
                <path d="M23.7754,21.26805 L13.5054,0.96705 C13.3589,0.68105 13.1399,0.43955 12.8699,0.26755 C12.3454,-0.08945 11.6594,-0.08945 11.1349,0.26755 C10.8679,0.44005 10.6519,0.68155 10.5089,0.96705 L0.2384,21.26805 C-0.0796,21.83305 -0.0796,22.52505 0.2384,23.08955 C0.3854,23.36205 0.6009,23.59055 0.8644,23.75105 C1.1204,23.91255 1.4159,23.99905 1.7179,24.00005 L22.2774,24.00005 C22.5764,23.99855 22.8689,23.91205 23.1209,23.75105 C23.3844,23.59055 23.6004,23.36205 23.7469,23.08955 C24.0739,22.52955 24.0844,21.83805 23.7754,21.26805" id="Fill-1" fill="#1C1E23" mask="url(#mask-2)"></path>
            </g>
            <path d="M13.5215,19.61135 C13.526,19.71185 13.487,19.80985 13.4115,19.88335 C13.3445,19.95685 13.246,19.99935 13.142,19.99985 L10.8575,19.99985 C10.7535,19.99935 10.655,19.95685 10.588,19.88335 C10.516,19.80885 10.477,19.71135 10.4785,19.61135 L10.4785,17.38885 C10.477,17.28835 10.516,17.19135 10.588,17.11685 C10.655,17.04285 10.7535,17.00035 10.8575,16.99985 L13.142,16.99985 C13.246,17.00035 13.3445,17.04285 13.4115,17.11685 C13.487,17.18985 13.526,17.28835 13.5215,17.38885 L13.5215,19.61135 Z" id="Fill-4" fill="#FFFFFF"></path>
            <path d="M13.36865,15.1792 C13.36215,15.2727 13.31865,15.3567 13.25165,15.4077 C13.17765,15.4732 13.08615,15.5052 12.99365,15.4992 L10.92965,15.4992 C10.83715,15.5037 10.74615,15.4717 10.67115,15.4077 C10.60215,15.3607 10.56015,15.2732 10.56215,15.1792 L10.00165,7.9387 C9.99215,7.8257 10.03365,7.7147 10.11065,7.6462 C10.17815,7.5622 10.27015,7.5097 10.36865,7.5002 L13.62465,7.5002 C13.72515,7.5107 13.81915,7.5627 13.89065,7.6462 C13.96065,7.7097 14.00115,7.8077 14.00015,7.9112 L13.36865,15.1792 Z" id="Fill-6" fill="#FFFFFF"></path>
        </g>
    </g>
</svg>