<?xml version="1.0" encoding="UTF-8"?>
<svg width="16px" height="16px" viewBox="0 0 16 16" version="1.1" xmlns="http://www.w3.org/2000/svg" xmlns:xlink="http://www.w3.org/1999/xlink">
    <!-- Generator: Sketch 49.3 (51167) - http://www.bohemiancoding.com/sketch -->
    <title>Icon/Alert/Black/Small</title>
    <desc>Created with Sketch.</desc>
    <defs></defs>
    <g id="Icon/Alert/Black/Small" stroke="none" stroke-width="1" fill="none" fill-rule="evenodd">
        <path d="M15.8506,14.1787 L9.0036,0.6447 C8.9066,0.4537 8.7596,0.2927 8.5796,0.1787 C8.2306,-0.0593 7.7726,-0.0593 7.4226,0.1787 C7.2456,0.2927 7.1016,0.4537 7.0056,0.6447 L0.1596,14.1787 C-0.0524,14.5557 -0.0524,15.0167 0.1596,15.3927 C0.2566,15.5747 0.4006,15.7267 0.5766,15.8337 C0.7466,15.9417 0.9446,15.9987 1.1456,15.9997 L14.8516,15.9997 C15.0506,15.9987 15.2466,15.9417 15.4136,15.8337 C15.5896,15.7267 15.7336,15.5747 15.8306,15.3927 C16.0486,15.0197 16.0566,14.5587 15.8506,14.1787" id="Fill-1" fill="#1C1E23"></path>
        <path d="M6.9658,5.0205 L9.0338,5.0205 C9.2848,5.0205 9.4828,5.2355 9.4608,5.4845 L9.0328,10.6075 C9.0148,10.8295 8.8288,10.9995 8.6068,10.9995 L7.3938,10.9995 C7.1708,10.9995 6.9858,10.8295 6.9668,10.6075 L6.5388,5.4845 C6.5178,5.2355 6.7148,5.0205 6.9658,5.0205" id="Fill-3" fill="#FFFFFF"></path>
        <path d="M7.4277,12 L8.5727,12 C8.8087,12 8.9997,12.191 8.9997,12.428 L8.9997,13.572 C8.9997,13.809 8.8087,14 8.5727,14 L7.4277,14 C7.1917,14 6.9997,13.809 6.9997,13.572 L6.9997,12.428 C6.9997,12.191 7.1917,12 7.4277,12" id="Fill-5" fill="#FFFFFF"></path>
    </g>
</svg>