<?xml version="1.0" encoding="UTF-8"?>
<svg width="14px" height="15px" viewBox="0 0 14 15" version="1.1" xmlns="http://www.w3.org/2000/svg" xmlns:xlink="http://www.w3.org/1999/xlink">
    <!-- Generator: Sketch 49.3 (51167) - http://www.bohemiancoding.com/sketch -->
    <title>Icon/FontAwesome/Arrow Right_24px</title>
    <desc>Created with Sketch.</desc>
    <defs></defs>
    <g id="Icons" stroke="none" stroke-width="1" fill="none" fill-rule="evenodd">
        <g id="v" transform="translate(-108.000000, -94.000000)" fill="#165C96">
            <g id="Icon/FontAwesome/Arrow-Right_24px" transform="translate(105.000000, 89.000000)">
                <path d="M16.2857143,12.8571429 C16.2857143,13.178573 16.1755963,13.4494037 15.9553571,13.6696429 L10.1428571,19.4821429 C9.91071313,19.7023821 9.6398825,19.8125 9.33035714,19.8125 C9.0267842,19.8125 8.75892973,19.7023821 8.52678571,19.4821429 L7.85714286,18.8125 C7.63095125,18.5863084 7.51785714,18.3154778 7.51785714,18 C7.51785714,17.6845222 7.63095125,17.4136916 7.85714286,17.1875 L10.4732143,14.5714286 L4.1875,14.5714286 C3.87797464,14.5714286 3.62648906,14.4598225 3.43303571,14.2366071 C3.23958237,14.0133917 3.14285714,13.7440492 3.14285714,13.4285714 L3.14285714,12.2857143 C3.14285714,11.9702365 3.23958237,11.700894 3.43303571,11.4776786 C3.62648906,11.2544632 3.87797464,11.1428571 4.1875,11.1428571 L10.4732143,11.1428571 L7.85714286,8.51785714 C7.63095125,8.30357036 7.51785714,8.03571589 7.51785714,7.71428571 C7.51785714,7.39285554 7.63095125,7.12500107 7.85714286,6.91071429 L8.52678571,6.24107143 C8.75297732,6.01487982 9.02083179,5.90178571 9.33035714,5.90178571 C9.64583491,5.90178571 9.91666554,6.01487982 10.1428571,6.24107143 L15.9553571,12.0535714 C16.1755963,12.2619058 16.2857143,12.5297603 16.2857143,12.8571429 Z" id="FontAwesome/Check"></path>
            </g>
        </g>
    </g>
</svg>