<?xml version="1.0" encoding="UTF-8"?>
<svg width="14px" height="17px" viewBox="0 0 14 17" version="1.1" xmlns="http://www.w3.org/2000/svg" xmlns:xlink="http://www.w3.org/1999/xlink">
    <!-- Generator: Sketch 49.3 (51167) - http://www.bohemiancoding.com/sketch -->
    <title>Icon/FontAwesome/PDF_24px</title>
    <desc>Created with Sketch.</desc>
    <defs></defs>
    <g id="Icons" stroke="none" stroke-width="1" fill="none" fill-rule="evenodd">
        <g id="v" transform="translate(-318.000000, -89.000000)" fill="#165C96">
            <g id="Icon/FontAwesome/PDF_24px" transform="translate(315.000000, 85.000000)">
                <path d="M16.25,7.67857143 C16.4166675,7.84523893 16.5595232,8.07142714 16.6785714,8.35714286 C16.7976196,8.64285857 16.8571429,8.90476071 16.8571429,9.14285714 L16.8571429,19.4285714 C16.8571429,19.6666679 16.7738104,19.8690468 16.6071429,20.0357143 C16.4404754,20.2023818 16.2380964,20.2857143 16,20.2857143 L4,20.2857143 C3.76190357,20.2857143 3.55952464,20.2023818 3.39285714,20.0357143 C3.22618964,19.8690468 3.14285714,19.6666679 3.14285714,19.4285714 L3.14285714,5.14285714 C3.14285714,4.90476071 3.22618964,4.70238179 3.39285714,4.53571429 C3.55952464,4.36904679 3.76190357,4.28571429 4,4.28571429 L12,4.28571429 C12.2380964,4.28571429 12.4999986,4.3452375 12.7857143,4.46428571 C13.07143,4.58333393 13.2976182,4.72618964 13.4642857,4.89285714 L16.25,7.67857143 Z M12.2857143,5.5 L12.2857143,8.85714286 L15.6428571,8.85714286 C15.583333,8.68452295 15.5178575,8.56250036 15.4464286,8.49107143 L12.6517857,5.69642857 C12.5803568,5.62499964 12.4583342,5.55952411 12.2857143,5.5 Z M15.7142857,19.1428571 L15.7142857,10 L12,10 C11.7619036,10 11.5595246,9.9166675 11.3928571,9.75 C11.2261896,9.5833325 11.1428571,9.38095357 11.1428571,9.14285714 L11.1428571,5.42857143 L4.28571429,5.42857143 L4.28571429,19.1428571 L15.7142857,19.1428571 Z M11.125,13.8482143 C11.3214296,14.002977 11.5714271,14.169642 11.875,14.3482143 C12.2261922,14.3065474 12.574403,14.2857143 12.9196429,14.2857143 C13.7946472,14.2857143 14.3214277,14.4315462 14.5,14.7232143 C14.5952386,14.8541673 14.6011909,15.0089277 14.5178571,15.1875 C14.5178571,15.1934524 14.514881,15.1994047 14.5089286,15.2053571 L14.4910714,15.2232143 L14.4910714,15.2321429 C14.455357,15.4583345 14.2440496,15.5714286 13.8571429,15.5714286 C13.5714271,15.5714286 13.2291687,15.5119054 12.8303571,15.3928571 C12.4315456,15.2738089 12.0446447,15.1160724 11.6696429,14.9196429 C10.3541601,15.0625007 9.18750509,15.3095221 8.16964286,15.6607143 C7.25892402,17.2202459 6.53869312,18 6.00892857,18 C5.91964241,18 5.83630991,17.9791669 5.75892857,17.9375 L5.54464286,17.8303571 C5.53869045,17.8244047 5.52083348,17.8095239 5.49107143,17.7857143 C5.43154732,17.7261902 5.41369036,17.6190484 5.4375,17.4642857 C5.4910717,17.2261893 5.6577367,16.9538706 5.9375,16.6473214 C6.2172633,16.3407723 6.61011652,16.0535728 7.11607143,15.7857143 C7.19940518,15.7321426 7.26785688,15.7499996 7.32142857,15.8392857 C7.33333339,15.8511905 7.33928571,15.8630952 7.33928571,15.875 C7.64881107,15.3690451 7.96726027,14.7827414 8.29464286,14.1160714 C8.69940679,13.3065436 9.0089275,12.5267895 9.22321429,11.7767857 C9.08035643,11.288688 8.98958353,10.8139904 8.95089286,10.3526786 C8.91220219,9.89136674 8.93154723,9.51190625 9.00892857,9.21428571 C9.07440509,8.97618929 9.19940384,8.85714286 9.38392857,8.85714286 L9.58035714,8.85714286 C9.71726259,8.85714286 9.82142821,8.90178527 9.89285714,8.99107143 C10.0000005,9.11607205 10.026786,9.31845098 9.97321429,9.59821429 C9.96130946,9.63392875 9.94940482,9.65773804 9.9375,9.66964286 C9.94345241,9.68750009 9.94642857,9.71130938 9.94642857,9.74107143 L9.94642857,10.0089286 C9.93452375,10.7410751 9.8928575,11.3124979 9.82142857,11.7232143 C10.1488112,12.6994096 10.5833306,13.4077359 11.125,13.8482143 Z M5.98214286,17.5178571 C6.29166821,17.3749993 6.69940223,16.9047659 7.20535714,16.1071429 C6.9017842,16.3452393 6.64137013,16.5952368 6.42410714,16.8571429 C6.20684415,17.1190489 6.0595242,17.3392848 5.98214286,17.5178571 Z M9.53571429,9.30357143 C9.44642813,9.55357268 9.4404758,9.94642589 9.51785714,10.4821429 C9.52380955,10.440476 9.54464268,10.3095249 9.58035714,10.0892857 C9.58035714,10.0714285 9.60119027,9.94345357 9.64285714,9.70535714 C9.64880955,9.6815475 9.6607142,9.65773821 9.67857143,9.63392857 C9.67261902,9.62797616 9.66964286,9.62202384 9.66964286,9.61607143 C9.66369045,9.60416661 9.66071429,9.59523813 9.66071429,9.58928571 C9.65476187,9.45833268 9.61607179,9.35119089 9.54464286,9.26785714 C9.54464286,9.27380955 9.5416667,9.27976188 9.53571429,9.28571429 L9.53571429,9.30357143 Z M8.42857143,15.2053571 C9.23214687,14.883927 10.0773765,14.6428579 10.9642857,14.4821429 C10.9523809,14.4761904 10.9136908,14.4479169 10.8482143,14.3973214 C10.7827378,14.3467259 10.7351192,14.3065478 10.7053571,14.2767857 C10.2529739,13.8779742 9.87500152,13.3541699 9.57142857,12.7053571 C9.41071348,13.2172645 9.16369214,13.8035681 8.83035714,14.4642857 C8.65178482,14.7976207 8.51785759,15.0446421 8.42857143,15.2053571 Z M14.1964286,15.0625 C14.0535707,14.9196421 13.6369082,14.8482143 12.9464286,14.8482143 C13.3988118,15.0148818 13.7678557,15.0982143 14.0535714,15.0982143 C14.1369052,15.0982143 14.1904761,15.0952381 14.2142857,15.0892857 C14.2142857,15.0833333 14.2083334,15.0744048 14.1964286,15.0625 Z" id="FontAwesome/PDF"></path>
            </g>
        </g>
    </g>
</svg>