<?xml version="1.0" encoding="UTF-8"?>
<svg width="24px" height="24px" viewBox="0 0 24 24" version="1.1" xmlns="http://www.w3.org/2000/svg" xmlns:xlink="http://www.w3.org/1999/xlink" style="background: #E9EAED;">
    <!-- Generator: Sketch 49.3 (51167) - http://www.bohemiancoding.com/sketch -->
    <title>Icon/Alert/White/Regular</title>
    <desc>Created with Sketch.</desc>
    <defs>
        <polygon id="path-1" points="0 0 23.9998742 0 23.9998742 24 0 24"></polygon>
    </defs>
    <g id="Icon/Alert/White/Regular" stroke="none" stroke-width="1" fill="none" fill-rule="evenodd">
        <mask id="mask-2" fill="white">
            <use xlink:href="#path-1"></use>
        </mask>
        <g id="Clip-2"></g>
        <path d="M23.7754,21.26805 C24.0844,21.83805 24.0739,22.52955 23.7469,23.08955 C23.6004,23.36205 23.3844,23.59055 23.1209,23.75105 C22.8689,23.91205 22.5764,23.99855 22.2774,24.00005 L1.7179,24.00005 C1.4159,23.99905 1.1204,23.91255 0.8644,23.75105 C0.6009,23.59055 0.3854,23.36205 0.2384,23.08955 C-0.0796,22.52505 -0.0796,21.83305 0.2384,21.26805 L10.5089,0.96705 C10.6519,0.68155 10.8679,0.44005 11.1349,0.26755 C11.6594,-0.08945 12.3454,-0.08945 12.8699,0.26755 C13.1399,0.43955 13.3589,0.68105 13.5054,0.96705 L23.7754,21.26805 Z M13.5215,19.61135 L13.5215,17.38885 C13.526,17.28835 13.487,17.18985 13.4115,17.11685 C13.3445,17.04285 13.246,17.00035 13.142,16.99985 L10.8575,16.99985 C10.7535,17.00035 10.655,17.04285 10.588,17.11685 C10.516,17.19135 10.477,17.28835 10.4785,17.38885 L10.4785,19.61135 C10.477,19.71135 10.516,19.80885 10.588,19.88335 C10.655,19.95685 10.7535,19.99935 10.8575,19.99985 L13.142,19.99985 C13.246,19.99935 13.3445,19.95685 13.4115,19.88335 C13.487,19.80985 13.526,19.71185 13.5215,19.61135 Z M13.36865,15.1792 L14.00015,7.9112 C14.00115,7.8077 13.96065,7.7097 13.89065,7.6462 C13.81915,7.5627 13.72515,7.5107 13.62465,7.5002 L10.36865,7.5002 C10.27015,7.5097 10.17815,7.5622 10.11065,7.6462 C10.03365,7.7147 9.99215,7.8257 10.00165,7.9387 L10.56215,15.1792 C10.56015,15.2732 10.60215,15.3607 10.67115,15.4077 C10.74615,15.4717 10.83715,15.5037 10.92965,15.4992 L12.99365,15.4992 C13.08615,15.5052 13.17765,15.4732 13.25165,15.4077 C13.31865,15.3567 13.36215,15.2727 13.36865,15.1792 Z" id="Combined-Shape" fill="#FFFFFF" mask="url(#mask-2)"></path>
    </g>
</svg>