<?xml version="1.0" encoding="UTF-8"?>
<svg width="16px" height="16px" viewBox="0 0 16 16" version="1.1" xmlns="http://www.w3.org/2000/svg" xmlns:xlink="http://www.w3.org/1999/xlink" style="background: #E9EAED;">
    <!-- Generator: Sketch 49.3 (51167) - http://www.bohemiancoding.com/sketch -->
    <title>Icon/Alert/White/Small</title>
    <desc>Created with Sketch.</desc>
    <defs></defs>
    <g id="Icon/Alert/White/Small" stroke="none" stroke-width="1" fill="none" fill-rule="evenodd">
        <path d="M15.8506,14.1787 C16.0566,14.5587 16.0486,15.0197 15.8306,15.3927 C15.7336,15.5747 15.5896,15.7267 15.4136,15.8337 C15.2466,15.9417 15.0506,15.9987 14.8516,15.9997 L1.1456,15.9997 C0.9446,15.9987 0.7466,15.9417 0.5766,15.8337 C0.4006,15.7267 0.2566,15.5747 0.1596,15.3927 C-0.0524,15.0167 -0.0524,14.5557 0.1596,14.1787 L7.0056,0.6447 C7.1016,0.4537 7.2456,0.2927 7.4226,0.1787 C7.7726,-0.0593 8.2306,-0.0593 8.5796,0.1787 C8.7596,0.2927 8.9066,0.4537 9.0036,0.6447 L15.8506,14.1787 Z M6.9658,5.0205 C6.7148,5.0205 6.5178,5.2355 6.5388,5.4845 L6.9668,10.6075 C6.9858,10.8295 7.1708,10.9995 7.3938,10.9995 L8.6068,10.9995 C8.8288,10.9995 9.0148,10.8295 9.0328,10.6075 L9.4608,5.4845 C9.4828,5.2355 9.2848,5.0205 9.0338,5.0205 L6.9658,5.0205 Z M7.4277,12 C7.1917,12 6.9997,12.191 6.9997,12.428 L6.9997,13.572 C6.9997,13.809 7.1917,14 7.4277,14 L8.5727,14 C8.8087,14 8.9997,13.809 8.9997,13.572 L8.9997,12.428 C8.9997,12.191 8.8087,12 8.5727,12 L7.4277,12 Z" id="Combined-Shape" fill="#FFFFFF"></path>
    </g>
</svg>