<?xml version="1.0" encoding="UTF-8"?>
<svg width="24px" height="24px" viewBox="0 0 24 24" version="1.1" xmlns="http://www.w3.org/2000/svg" xmlns:xlink="http://www.w3.org/1999/xlink">
    <!-- Generator: Sketch 49.3 (51167) - http://www.bohemiancoding.com/sketch -->
    <title>Icon/Mode/Black/Bus/Default</title>
    <desc>Created with Sketch.</desc>
    <defs></defs>
    <g id="Icon/Mode/Black/Bus/Default" stroke="none" stroke-width="1" fill="none" fill-rule="evenodd">
        <g id="icon-bus-default" transform="translate(2.500000, 0.000000)" fill="#1C1E23" fill-rule="nonzero">
            <path d="M18.8121796,11.0742857 L17.9106612,3.90857143 C17.6815837,2.6155102 16.8747429,2.11102041 15.6744,1.58204082 C13.7050966,0.86983724 11.6321783,0.485951225 9.53843265,0.445714286 C7.44149568,0.486399524 5.36537879,0.870255881 3.39252245,1.58204082 C2.20721633,2.10122449 1.40027755,2.6155102 1.15626122,3.90857143 L0.249795918,11.0742857 L0.249795918,20.9877551 L1.84109388,20.9877551 L1.84109388,22.7142857 C1.84919151,23.4294245 2.43323371,24.0038169 3.14840816,24 C3.86359078,24.0038171 4.44764708,23.4294324 4.45577143,22.7142857 L4.45577143,20.9877551 L14.6533224,20.9877551 L14.6533224,22.7142857 C14.6701541,23.4242636 15.2505328,23.9910462 15.9607102,23.9910462 C16.6708876,23.9910462 17.2512663,23.4242636 17.268098,22.7142857 L17.268098,20.9877551 L18.8120816,20.9877551 L18.8121796,11.0742857 Z M5.71836735,2.25795918 L13.3885714,2.25795918 C13.5950564,2.25795918 13.7858563,2.36811758 13.8890988,2.54693877 C13.9923412,2.72575997 13.9923412,2.94607677 13.8890988,3.12489796 C13.7858563,3.30371916 13.5950564,3.41387756 13.3885714,3.41387755 L5.71836735,3.41387755 C5.3991693,3.41387755 5.14040816,3.15511641 5.14040816,2.83591837 C5.14040816,2.51672032 5.3991693,2.25795918 5.71836735,2.25795918 Z M1.89835102,10.8636735 L2.64543673,5.20653061 C2.71099626,4.84707195 3.02718915,4.58794842 3.39252245,4.59428571 L15.7790204,4.59428571 C16.1432456,4.58822276 16.4578597,4.84778817 16.5211102,5.20653061 L17.2681959,10.8636735 C17.2781391,10.9286011 17.2781391,10.9946642 17.2681959,11.0595918 L17.2681959,11.0987755 C17.2674328,11.2951068 17.1879168,11.4829203 17.047473,11.6201139 C16.9070291,11.7573074 16.7174055,11.8324048 16.5211102,11.8285714 L2.61061224,11.8285714 C2.41405228,11.8214505 2.22842482,11.7363273 2.09477318,11.5920228 C1.96112155,11.4477184 1.8904556,11.2561202 1.8984,11.0595918 C1.88839163,10.9946704 1.88837511,10.9285999 1.89835102,10.8636735 Z M3.14845714,17.9216327 C2.3953702,17.9103957 1.79277574,17.2929964 1.79981714,16.5398585 C1.80685853,15.7867207 2.42089128,15.1806961 3.17405668,15.1835418 C3.92722208,15.1863874 4.53665796,15.7970345 4.53800816,16.5502041 C4.53580751,16.9163962 4.3881231,17.2666929 4.12748744,17.5239294 C3.86685178,17.7811658 3.51464664,17.9242392 3.14845714,17.9216327 Z M15.9583347,17.9216327 C15.2058663,17.9077399 14.6056642,17.2891479 14.6144798,16.5366029 C14.6232954,15.784058 15.2378238,15.1796958 15.9904111,15.1834339 C16.7429984,15.1871719 17.3514929,15.7976087 17.3528327,16.5502041 C17.3506516,16.9172653 17.2022915,17.2683262 16.9405797,17.5257085 C16.678868,17.7830907 16.3253812,17.9255745 15.9583347,17.9216327 Z" id="Shape"></path>
        </g>
    </g>
</svg>