<?xml version="1.0" encoding="UTF-8"?>
<svg width="16px" height="16px" viewBox="0 0 16 16" version="1.1" xmlns="http://www.w3.org/2000/svg" xmlns:xlink="http://www.w3.org/1999/xlink">
    <!-- Generator: Sketch 49.3 (51167) - http://www.bohemiancoding.com/sketch -->
    <title>Icon/Mode/Black/Bus/Small</title>
    <desc>Created with Sketch.</desc>
    <defs></defs>
    <g id="Icon/Mode/Black/Bus/Small" stroke="none" stroke-width="1" fill="none" fill-rule="evenodd">
        <g id="icon-bus-small" transform="translate(1.000000, 0.000000)" fill="#1C1E23" fill-rule="nonzero">
            <path d="M13.79767,7.24267 L13.13667,2.36267 C12.96382,1.48267 12.37403,1.13267 11.49955,0.77267 C10.0453946,0.290403149 8.52667253,0.0308017525 6.99489,0.00267 C5.46651459,0.0316659398 3.95127698,0.291258365 2.50041,0.77267 C1.63605,1.13267 1.03614,1.48267 0.85312,2.36267 L0.20231,7.24267 L0.20231,13.98267 L1.41748,13.98267 L1.41748,15.13267 C1.4250993,15.4360241 1.59628606,15.7115023 1.8649,15.85267 C1.9259,15.88267 1.9869,15.91267 2.03775,15.93267 C2.08420532,15.9493399 2.13178046,15.9627065 2.18012,15.97267 C2.2563941,15.9931203 2.33507381,16.0032109 2.41404,16.00267 L2.75974,16.00267 C3.27615266,16.0349786 3.72355815,15.6483148 3.76641,15.13267 L3.76641,13.98267 L10.33146,13.98267 L10.33146,15.13267 C10.3390793,15.4360241 10.5102661,15.7115023 10.77888,15.85267 C10.83988,15.88267 10.90088,15.91267 10.95173,15.93267 C10.9981853,15.9493399 11.0457605,15.9627065 11.0941,15.97267 C11.1703741,15.9931203 11.2490538,16.0032109 11.32802,16.00267 L11.67372,16.00267 C12.1901327,16.0349786 12.6375382,15.6483148 12.68039,15.13267 L12.68039,13.98267 L13.79767,13.98267 L13.79767,7.24267 Z M3.83251,1.19267 L10.22851,1.19267 C10.5337213,1.19282124 10.7825234,1.43750376 10.78777,1.74267 C10.7825234,2.04783624 10.5337213,2.29251876 10.22851,2.29267 L3.83251,2.29267 C3.5272987,2.29251876 3.27849662,2.04783624 3.27325,1.74267 C3.27850739,1.4375116 3.52730635,1.19284105 3.83251,1.19269 L3.83251,1.19267 Z M2.23772,7.13794 L2.69,3.80127 C2.73239699,3.57002296 2.94015688,3.40639437 3.1749,3.41937 L10.88603,3.41937 C11.119873,3.40921508 11.3260018,3.57155906 11.37093,3.80127 L11.88848,7.13794 L11.88848,7.28694 C11.8817997,7.54888391 11.6654797,7.75662242 11.40348,7.7527 L2.70469,7.7527 C2.44399588,7.74332447 2.23754301,7.52919261 2.23769,7.26833 C2.22867124,7.22533347 2.22868145,7.18093237 2.23772,7.13794 Z M2.88145,12.38169 C2.10922879,12.4165757 1.44529946,11.8398043 1.37188,11.07029 C1.37155352,10.6864349 1.52384139,10.3181963 1.79519486,10.0466965 C2.06654834,9.77519676 2.43470478,9.62271042 2.81856,9.62283 C3.61540468,9.56335245 4.31382452,10.151293 4.39109,10.94661 C4.38243624,11.3375154 4.21821166,11.708821 3.93482247,11.9782139 C3.65143328,12.2476067 3.27229245,12.39283 2.88145,12.38169 Z M11.05208,12.38169 C10.2798608,12.4165754 9.61593446,11.8398027 9.54252,11.07029 C9.54219352,10.6864349 9.69448139,10.3181963 9.96583486,10.0466965 C10.2371883,9.77519676 10.6053448,9.62271042 10.9892,9.62283 C11.7860447,9.56335245 12.4844645,10.151293 12.56173,10.94661 C12.5530763,11.3375172 12.3888503,11.7088244 12.1054589,11.9782175 C11.8220676,12.2476106 11.4429242,12.3928327 11.05208,12.38169 Z" id="Shape"></path>
        </g>
    </g>
</svg>