<?xml version="1.0" encoding="UTF-8"?>
<svg width="30px" height="30px" viewBox="0 0 30 30" version="1.1" xmlns="http://www.w3.org/2000/svg" xmlns:xlink="http://www.w3.org/1999/xlink">
    <!-- Generator: Sketch 49.3 (51167) - http://www.bohemiancoding.com/sketch -->
    <title>Icon/Route/Calendar</title>
    <desc>Created with Sketch.</desc>
    <defs></defs>
    <g id="Icon/Route/Calendar" stroke="none" stroke-width="1" fill="none" fill-rule="evenodd">
        <path d="M14.7856,0.5 C22.6756,0.5 29.0716,6.896 29.0716,14.786 C29.0716,22.675 22.6756,29.072 14.7856,29.072 C6.8956,29.072 0.4996,22.675 0.4996,14.786 C0.4996,6.896 6.8956,0.5 14.7856,0.5" id="Fill-1" fill="#FFFFFF"></path>
        <path d="M14.7856,1 C7.1836,1 0.9996,7.184 0.9996,14.786 C0.9996,22.387 7.1836,28.572 14.7856,28.572 C22.3876,28.572 28.5716,22.387 28.5716,14.786 C28.5716,7.184 22.3876,1 14.7856,1 M14.7856,29.572 C6.6326,29.572 -0.0004,22.939 -0.0004,14.786 C-0.0004,6.633 6.6326,0 14.7856,0 C22.9386,0 29.5716,6.633 29.5716,14.786 C29.5716,22.939 22.9386,29.572 14.7856,29.572" id="Fill-3" fill="#165C96"></path>
        <g id="icon-calendar-default" transform="translate(6.000000, 6.000000)" fill-rule="nonzero">
            <path d="M14.8718286,2 L13.4803024,2 L13.4803024,3.45686303 C13.4785746,4.03151997 13.0031779,4.49695121 12.4162167,4.49864279 L11.7943757,4.49864279 C11.2074113,4.4969588 10.73201,4.03152313 10.73029,3.45686303 L10.73029,2 L6.1810788,2 L6.1810788,3.45686303 C6.17935875,4.03152313 5.70395746,4.4969588 5.11699309,4.49864279 L4.49515205,4.49864279 C3.9081909,4.49695121 3.43279413,4.03151997 3.43106634,3.45686303 L3.43106634,2 L2.12817142,2 C0.954241881,2.00336609 0.0034381607,2.93423855 0,4.08355953 L0,14.9164405 C0.0034381607,16.0657615 0.954241881,16.9966339 2.12817142,17 L14.8718286,17 C16.0457573,16.996632 16.9965599,16.0657607 17,14.9164405 L17,4.08355953 C16.9965599,2.93423933 16.0457573,2.00336798 14.8718286,2 Z" id="Shape" fill="#165C96"></path>
            <g id="Group" transform="translate(1.000000, 5.000000)" fill="#FFFFFF">
                <polygon id="Shape" points="0 0 3.21428571 0 3.21428571 2.954435 0 2.954435"></polygon>
                <polygon id="Shape" points="3.92857143 0 7.14285714 0 7.14285714 2.954435 3.92857143 2.954435"></polygon>
                <polygon id="Shape" points="7.85714286 0 11.0714286 0 11.0714286 2.954435 7.85714286 2.954435"></polygon>
                <polygon id="Shape" points="11.7857143 0 15 0 15 2.954435 11.7857143 2.954435"></polygon>
                <polygon id="Shape" points="0 4.00959167 3.21428571 4.00959167 3.21428571 7.01678633 0 7.01678633"></polygon>
                <polygon id="Shape" points="3.92857143 4.00959167 7.14285714 4.00959167 7.14285714 7.01678633 3.92857143 7.01678633"></polygon>
                <polygon id="Shape" points="7.85714286 4.00959167 11.0714286 4.00959167 11.0714286 7.01678633 7.85714286 7.01678633"></polygon>
                <polygon id="Shape" points="11.7857143 4.00959167 15 4.00959167 15 7.01678633 11.7857143 7.01678633"></polygon>
                <polygon id="Shape" points="0 8.045565 3.21428571 8.045565 3.21428571 11 0 11"></polygon>
                <polygon id="Shape" points="3.92857143 8.045565 7.14285714 8.045565 7.14285714 11 3.92857143 11"></polygon>
                <polygon id="Shape" points="7.85714286 8.045565 11.0714286 8.045565 11.0714286 11 7.85714286 11"></polygon>
                <polygon id="Shape" points="11.7857143 8.045565 15 8.045565 15 11 11.7857143 11"></polygon>
            </g>
            <rect id="Rectangle-path" fill="#165C96" x="4" y="0" width="2" height="4" rx="1"></rect>
            <rect id="Rectangle-path" fill="#165C96" x="11" y="0" width="2" height="4" rx="1"></rect>
        </g>
    </g>
</svg>