<?xml version="1.0" encoding="UTF-8"?>
<svg width="30px" height="30px" viewBox="0 0 30 30" version="1.1" xmlns="http://www.w3.org/2000/svg" xmlns:xlink="http://www.w3.org/1999/xlink">
    <!-- Generator: Sketch 49.3 (51167) - http://www.bohemiancoding.com/sketch -->
    <title>Icon/Route/Reverse</title>
    <desc>Created with Sketch.</desc>
    <defs></defs>
    <g id="Icon/Route/Reverse" stroke="none" stroke-width="1" fill="none" fill-rule="evenodd">
        <g id="icon-reversal-default" fill="#165C96" fill-rule="nonzero">
            <path d="M14.4998104,1.26900104 C19.8513858,1.26885443 24.6760854,4.49247222 26.7241124,9.43665518 C28.7721393,14.3808381 27.6401595,20.0718889 23.8560242,23.8560242 C20.0718889,27.6401595 14.3808381,28.7721393 9.43665518,26.7241124 C4.49247222,24.6760854 1.26885443,19.8513858 1.26900104,14.4998104 C1.26838076,10.9905915 2.66213783,7.62492292 5.14353037,5.14353037 C7.62492292,2.66213783 10.9905915,1.26838076 14.4998104,1.26900104 Z M0.00737993537,14.0387378 C-0.181779334,19.9843699 3.27974487,25.4423709 8.73867842,27.8059204 C14.197612,30.1694699 20.5463702,28.959018 24.7526941,24.7526941 C28.959018,20.5463702 30.1694699,14.197612 27.8059204,8.73867842 C25.4423709,3.27974487 19.9843699,-0.181779334 14.0387378,0.00737993537 C6.38595153,0.235585796 0.235585796,6.38595153 0.00737993537,14.0387378 Z" id="Shape"></path>
            <path d="M19.2760761,15.0276437 C19.3769732,14.9781872 19.4961842,14.9961014 19.5798156,15.0732877 L22.9130239,18.2628566 C22.9680345,18.3173387 22.9994486,18.3930566 22.9999813,18.4724515 C23.0008797,18.5549612 22.9694375,18.6342319 22.9130239,18.6916849 L19.5798156,21.926878 C19.4962021,22.0041875 19.3768028,22.021879 19.2760761,21.9718834 C19.173249,21.9294161 19.1070263,21.823581 19.1107335,21.7076381 L19.1107335,19.6663714 L8.27765454,19.6663714 C8.20315573,19.6696891 8.13074323,19.6400706 8.07801725,19.5847148 C8.02529126,19.529359 7.99707985,19.4533348 8.00023992,19.3751202 L8.00023992,17.6250718 C7.99707778,17.5468572 8.02528875,17.4708324 8.0780154,17.4154771 C8.13074205,17.3601219 8.20315579,17.3305056 8.27765454,17.3338272 L19.1107335,17.3338272 L19.1107335,15.2918824 C19.1041443,15.175112 19.1713804,15.0676601 19.2760761,15.0276437 Z" id="Shape"></path>
            <path d="M10.723939,6.02767342 C10.8262436,6.07071265 10.8920453,6.17626151 10.8886737,6.29191542 L10.8886737,8.33382791 L21.7217762,8.33382791 C21.7962979,8.33062617 21.8687046,8.36025875 21.9215019,8.415566 C21.9742991,8.47087326 22.0026845,8.54682449 21.9997997,8.62506884 L21.9997997,10.3751018 C22.0026845,10.4533462 21.9742991,10.5292974 21.9215019,10.5846046 C21.8687046,10.6399119 21.7962979,10.6695445 21.7217762,10.6663427 L10.8886737,10.6663427 L10.8886737,12.7076166 C10.8956026,12.8242886 10.8285568,12.9318305 10.723939,12.971852 C10.6232188,13.0218934 10.5037938,13.0041983 10.4201988,12.9268472 L7.08698331,9.7366799 C7.03153711,9.68252094 7.00003693,9.60659662 7.00002571,9.52708755 C6.99897022,9.4447395 7.03045109,9.36561075 7.08698331,9.3085153 L10.4201988,6.07331684 C10.5038126,5.99609103 10.6230479,5.9781734 10.723939,6.02767342 Z" id="Shape"></path>
        </g>
    </g>
</svg>