<?xml version="1.0" encoding="UTF-8"?>
<svg width="30px" height="31px" viewBox="0 0 30 31" version="1.1" xmlns="http://www.w3.org/2000/svg" xmlns:xlink="http://www.w3.org/1999/xlink">
    <!-- Generator: Sketch 49.3 (51167) - http://www.bohemiancoding.com/sketch -->
    <title>Icon/Route/Variation</title>
    <desc>Created with Sketch.</desc>
    <defs></defs>
    <g id="Icon/Route/Variation" stroke="none" stroke-width="1" fill="none" fill-rule="evenodd">
        <g id="icon-variant-default" fill="#165C96" fill-rule="nonzero">
            <path d="M14.9998164,1.3127597 C20.5359289,1.31260803 25.5269974,4.64738505 27.645646,9.76205708 C29.7642946,14.8767291 28.5932809,20.764023 24.6786582,24.6786457 C20.7640355,28.5932684 14.8767416,29.7642821 9.76206958,27.6456335 C4.64739755,25.5269849 1.31262053,20.5359164 1.3127722,14.9998039 C1.31213218,11.3695779 2.75395038,7.88785277 5.32090782,5.32089532 C7.88786527,2.75393788 11.3695904,1.31211968 14.9998164,1.3127597 Z M0.0076344159,14.5228322 C-0.188047587,20.6734861 3.39283952,26.319694 9.04001216,28.7647452 C14.6871848,31.2097964 21.2548657,29.9576048 25.6062353,25.6062353 C29.9576048,21.2548657 31.2097964,14.6871848 28.7647452,9.04001216 C26.319694,3.39283952 20.6734861,-0.188047587 14.5228322,0.0076344159 C6.60615941,0.243715599 0.243715599,6.60615941 0.0076344159,14.5228322 Z" id="Shape"></path>
            <path d="M12.3072277,10.2889112 L14.2915586,8.27586207 L9,8.27586207 L9,13.6440031 L10.9843366,11.6309421 L12.4388595,13.1065156 L13.7617447,11.7644788 L12.3072277,10.2889112 Z M18.9510945,11.400691 L21.1623974,13.6440031 L21.1623974,8.27586207 L15.8708622,8.27586207 L17.6282092,10.0586424 L15.5931606,12.1231493 C14.6250052,13.1937958 14.0607599,14.5769656 14,16.0285635 L14,21.7241379 L15.8708447,21.7241379 L15.8708447,16.0285754 C15.9314745,15.0806605 16.2988905,14.1795681 16.9160517,13.465192 L18.9510945,11.400691 Z" id="Shape"></path>
        </g>
    </g>
</svg>