<?xml version="1.0" encoding="UTF-8"?>
<svg width="17px" height="24px" viewBox="0 0 17 24" version="1.1" xmlns="http://www.w3.org/2000/svg" xmlns:xlink="http://www.w3.org/1999/xlink">
    <!-- Generator: Sketch 49.3 (51167) - http://www.bohemiancoding.com/sketch -->
    <title>Icon - Route - Walk</title>
    <desc>Created with Sketch.</desc>
    <defs>
        <polygon id="path-1" points="1.35821555e-05 4.7973952 16.062024 4.7973952 16.062024 23.9999765 1.35821555e-05 23.9999765"></polygon>
    </defs>
    <g id="Icons" stroke="none" stroke-width="1" fill="none" fill-rule="evenodd">
        <g transform="translate(-749.000000, -448.000000)" id="Icon/Route/Walk">
            <g transform="translate(749.000000, 448.000000)">
                <path d="M9,0 C7.86631384,0 6.94736842,0.919036025 6.94736842,2.05263158 C6.94736842,3.18622713 7.86631384,4.10526316 9,4.10526316 C10.1335956,4.10526316 11.0526316,3.18622713 11.0526316,2.05263158 C11.0526316,0.919036025 10.1335956,0 9,0" id="Fill-1" fill="#1B1D22" fill-rule="evenodd"></path>
                <mask id="mask-2" fill="white">
                    <use xlink:href="#path-1"></use>
                </mask>
                <g id="Clip-4"></g>
                <path d="M15.0878044,10.7396846 C14.537162,10.6441498 12.3301282,10.2653945 12.2067129,10.2250459 C12.0668422,10.1788838 12.2067129,10.2250459 12.1616356,10.1550218 C12.1134949,10.0849108 10.1892661,6.06099331 10.0012546,5.85066046 C9.81315566,5.64188947 9.29708701,5.10651252 8.57051207,4.87379275 C7.84227408,4.64115974 7.11561161,5.01401465 7.11561161,5.01401465 C7.11561161,5.01401465 3.50041768,7.06172304 3.26575349,7.17660782 C3.02951379,7.29444282 2.81891997,7.71354666 2.81891997,7.71354666 L1.13241882,10.8574329 C0.782917105,11.2954528 0.857754062,11.9313973 1.29959846,12.2779606 C1.74144285,12.6243504 2.38293999,12.5500744 2.7324417,12.1120545 C2.82425921,11.9970829 2.88964308,11.8636292 2.92421688,11.7210644 L4.49789365,8.77102461 L5.48486619,8.22514836 C5.41405555,8.43391935 4.50988507,12.7963304 4.50988507,12.7963304 L3.59521116,17.9611996 L0.387725458,21.7911839 C-0.0947322082,22.2239108 -0.132019394,22.9623319 0.304485755,23.4407003 C0.740903375,23.9189819 1.48585932,23.9559464 1.96831699,23.5232195 C2.03588907,23.4625666 2.09619628,23.3943646 2.14792569,23.3199151 L5.97677695,18.8560687 C6.29275521,18.4832138 6.37546974,18.2968297 6.42212248,18.0536974 C6.46877523,17.80909 6.99832328,14.6561797 6.99832328,14.6561797 L10.025325,17.6583688 L10.025325,22.9500972 L10.0312769,22.9500972 C10.1011248,23.5954129 10.6855533,24.0624144 11.336591,23.9931711 C11.8911723,23.9342536 12.3292529,23.4998781 12.3887724,22.9500972 L12.3948118,22.9500972 L12.3948118,22.8486619 L12.3948118,22.8307871 L12.3948118,22.8068383 C12.3887724,22.0015168 12.364702,17.9850616 12.3948118,17.076743 C12.4309612,16.0640388 12.0668422,15.8432935 11.9841276,15.7494073 C11.9013256,15.6569094 9.07441424,12.6799706 9.07441424,12.6799706 L9.69577981,9.6911441 C9.69577981,9.6911441 10.5052443,11.260137 10.5879589,11.4361085 C10.6706734,11.6092166 10.9280075,11.9238482 11.1972455,11.9819848 C11.468059,12.0402081 14.8350218,12.7143319 14.8350218,12.7143319 L14.8365098,12.7083447 C14.886226,12.7143319 14.9358547,12.7232693 14.9869715,12.7232693 C15.5389268,12.7632707 16.0190212,12.3521498 16.0593719,11.804972 C16.0996351,11.2578809 15.6849245,10.7819421 15.1330567,10.7419407 C15.1174766,10.7408994 15.1018965,10.7400317 15.0863164,10.7396846 L15.0878044,10.7396846 Z" id="Fill-3" fill="#1B1D22" fill-rule="evenodd" mask="url(#mask-2)"></path>
            </g>
        </g>
    </g>
</svg>