<?xml version="1.0" encoding="UTF-8"?>
<svg width="42px" height="9px" viewBox="0 0 42 9" version="1.1" xmlns="http://www.w3.org/2000/svg" xmlns:xlink="http://www.w3.org/1999/xlink">
    <!-- Generator: Sketch 49.3 (51167) - http://www.bohemiancoding.com/sketch -->
    <title>Icon - Route - Live Blue</title>
    <desc>Created with Sketch.</desc>
    <defs></defs>
    <g id="Icons" stroke="none" stroke-width="1" fill="none" fill-rule="evenodd">
        <g transform="translate(-827.000000, -468.000000)" fill="#165C96" id="Icon/Route/Live/Blue">
            <g transform="translate(827.000000, 465.000000)">
                <text id="LIVE" font-family="Lato-Bold, Lato" font-size="12" font-weight="bold" letter-spacing="0.8571428">
                    <tspan x="14" y="12">LIVE</tspan>
                </text>
                <g id="icon-live-clock" stroke-width="1" fill-rule="evenodd" transform="translate(0.000000, 3.000000)">
                    <path d="M5,4 L5,1.5 C5,1.22385763 4.77614237,1 4.5,1 C4.22385763,1 4,1.22385763 4,1.5 L4,4.5 C4,4.77614237 4.22385763,5 4.5,5 L6.5,5 C6.77614237,5 7,4.77614237 7,4.5 C7,4.22385763 6.77614237,4 6.5,4 L5,4 Z M4.5,9 C2.01471863,9 0,6.98528137 0,4.5 C0,2.01471863 2.01471863,0 4.5,0 C6.98528137,0 9,2.01471863 9,4.5 C9,6.98528137 6.98528137,9 4.5,9 Z"></path>
                </g>
            </g>
        </g>
    </g>
</svg>