<?xml version="1.0" encoding="UTF-8"?>
<svg width="24px" height="24px" viewBox="0 0 24 24" version="1.1" xmlns="http://www.w3.org/2000/svg" xmlns:xlink="http://www.w3.org/1999/xlink">
    <!-- Generator: Sketch 49.3 (51167) - http://www.bohemiancoding.com/sketch -->
    <title>Icon/Facilities/Elevator/Regular</title>
    <desc>Created with Sketch.</desc>
    <defs></defs>
    <g id="Icon/Facilities/Elevator/Regular" stroke="none" stroke-width="1" fill="none" fill-rule="evenodd">
        <path d="M8.42021007,13.4913151 C8.42075156,13.1155744 8.72467178,12.8117034 9.09952641,12.8119988 C9.47438104,12.8117034 9.77830126,13.1155744 9.77884274,13.4913151 C9.77830126,13.8653329 9.47438104,14.1692039 9.09952641,14.1706315 C8.72467178,14.1692039 8.42075156,13.8653329 8.42021007,13.4913151 Z M7.54005238,17.4608854 L7.54005238,14.8794833 C7.54118458,14.5815686 7.77864994,14.3789551 8.03624866,14.3773799 C8.03570718,14.3789551 10.1450829,14.3773799 10.1450829,14.3773799 C10.4255716,14.3789551 10.6405407,14.6041633 10.6412791,14.8794833 L10.6412791,17.4608854 C10.6405407,17.6746239 10.4686442,17.8233351 10.2809461,17.8212184 C10.2809461,17.8212184 10.1951947,17.8212676 10.0564764,17.8214153 L10.0564764,21.2237071 C10.0594299,21.8416881 9.15505313,21.8416881 9.15269029,21.2237071 L9.15269029,17.822006 C9.10740254,17.822006 9.06206556,17.8220552 9.01682703,17.8220552 L9.01682703,21.2237071 C9.01756541,21.8369624 8.11323785,21.8369624 8.11304095,21.2237071 L8.11304095,17.822006 C7.98214949,17.8218583 7.90136991,17.8216122 7.9003854,17.8212184 C7.71608392,17.8233351 7.54118458,17.6720641 7.54005238,17.4608854 Z M11.6691143,13.4913151 C11.6696558,13.1155744 11.973576,12.8117034 12.3484306,12.8119988 C12.7232852,12.8117034 13.0272055,13.1155744 13.027747,13.4913151 C13.0272055,13.8653329 12.7232852,14.1692039 12.3484306,14.1706315 C11.973576,14.1692039 11.6696558,13.8653329 11.6691143,13.4913151 Z M10.7889566,17.4608854 L10.7889566,14.8794833 C10.7900396,14.5815686 11.0275542,14.3789551 11.2851529,14.3773799 C11.2846114,14.3789551 13.3939871,14.3773799 13.3939871,14.3773799 C13.6744266,14.3789551 13.8893957,14.6041633 13.8901833,14.8794833 L13.8901833,17.4608854 C13.8893957,17.6746239 13.7174992,17.8233351 13.5298503,17.8212184 C13.5298503,17.8212184 13.444099,17.8212676 13.3053806,17.8214153 L13.3053806,21.2237071 C13.3083341,21.8416881 12.4039573,21.8416881 12.4015945,21.2237071 L12.4015945,17.822006 C12.3563068,17.822006 12.3109698,17.8220552 12.2657312,17.8220552 L12.2657312,21.2237071 C12.2664696,21.8369624 11.3621421,21.8369624 11.3619452,21.2237071 L11.3619452,17.822006 C11.2310537,17.8218583 11.1502741,17.8216122 11.1492896,17.8212184 C10.9649881,17.8233351 10.7900396,17.6720641 10.7889566,17.4608854 Z M14.9180185,13.4913151 C14.91856,13.1155744 15.2224802,12.8117034 15.5973348,12.8119988 C15.9721895,12.8117034 16.2761097,13.1155744 16.2766512,13.4913151 C16.2761097,13.8653329 15.9721895,14.1692039 15.5973348,14.1706315 C15.2224802,14.1692039 14.91856,13.8653329 14.9180185,13.4913151 Z M14.0378608,17.4608854 L14.0378608,14.8794833 C14.0389438,14.5815686 14.2764584,14.3789551 14.5340571,14.3773799 C14.5334664,14.3789551 16.6428913,14.3773799 16.6428913,14.3773799 C16.9233308,14.3789551 17.1382999,14.6041633 17.1390876,14.8794833 L17.1390876,17.4608854 C17.1382999,17.6746239 16.9664034,17.8233351 16.7787545,17.8212184 C16.7787545,17.8212184 16.6930032,17.8212676 16.5542848,17.8214153 L16.5542848,21.2237071 C16.5572383,21.8416881 15.6528616,21.8416881 15.6504987,21.2237071 L15.6504987,17.822006 C15.605211,17.822006 15.559874,17.8220552 15.5146355,17.8220552 L15.5146355,21.2237071 C15.5153738,21.8369624 14.6110463,21.8369624 14.6108494,21.2237071 L14.6108494,17.822006 C14.4799579,17.8218583 14.3991783,17.8216122 14.3981446,17.8212184 C14.2138923,17.8233351 14.0389438,17.6720641 14.0378608,17.4608854 Z M5.30716913,3.49059724 L7.94173509,0.324392407 C8.35867779,-0.0933871388 8.90262312,-0.0958484299 9.31808905,0.324392407 L11.9703763,3.47878304 C12.7883618,4.41136623 11.4623658,5.56507181 10.7062572,4.73699504 L9.61344398,3.40199076 L9.64888657,7.66100883 C9.63534947,9.07826945 7.60478434,9.06241874 7.61684467,7.66100883 L7.64638016,3.40199076 L6.56538112,4.74880924 C5.82600928,5.58973394 4.48770688,4.42367268 5.30716913,3.49059724 Z M12.6792281,5.22728422 C11.8592736,4.2944549 13.197576,3.12844287 13.9374401,3.96907222 L15.0184392,5.3158907 L14.9888545,1.05687263 C14.9763511,-0.344291151 17.0069162,-0.360141865 17.0209456,1.05687263 L16.985503,5.3158907 L18.0783162,3.98088642 C18.8339326,3.15305578 20.1599285,4.30676136 19.3424353,5.24500552 L16.6901481,8.39348905 C16.2741899,8.81402524 15.7302445,8.81151473 15.3137941,8.39348905 L12.6792281,5.22728422 Z M7.02608558,21.9680016 L17.6411417,21.9680016 L17.6411417,11.4179235 L7.02608558,11.4179235 L7.02608558,21.9680016 Z M17.7120761,9.36225322 L6.96115672,9.36225322 C5.82600928,9.36486219 5.00290432,10.2538805 5,11.3234099 L5,22.056608 C5.00063994,23.1509965 5.88754156,24.002554 6.96115672,23.9999942 L17.7238903,23.9999942 C18.7970132,24.0023571 19.6707716,23.2002223 19.6672765,22.056608 L19.6672765,11.3234099 C19.6683103,10.2415741 18.8093197,9.36486219 17.7120761,9.36225322 Z" id="Elevator" fill="#231F20"></path>
    </g>
</svg>