<?xml version="1.0" encoding="UTF-8"?>
<svg width="16px" height="16px" viewBox="0 0 16 16" version="1.1" xmlns="http://www.w3.org/2000/svg" xmlns:xlink="http://www.w3.org/1999/xlink">
    <!-- Generator: Sketch 49.3 (51167) - http://www.bohemiancoding.com/sketch -->
    <title>Icon/Facilities/Elevator/Small</title>
    <desc>Created with Sketch.</desc>
    <defs></defs>
    <g id="Icon/Facilities/Elevator/Small" stroke="none" stroke-width="1" fill="none" fill-rule="evenodd">
        <path d="M5.28014005,8.99421008 C5.28050104,8.74371628 5.48311452,8.54113562 5.7330176,8.54133252 C5.98292069,8.54113562 6.18553417,8.74371628 6.18589516,8.99421008 C6.18553417,9.24355527 5.98292069,9.44613594 5.7330176,9.44708763 C5.48311452,9.44613594 5.28050104,9.24355527 5.28014005,8.99421008 Z M4.69336826,11.6405902 L4.69336826,9.91965552 C4.69412305,9.72104574 4.85243329,9.58597009 5.02416578,9.58491993 C5.02380479,9.58597009 6.43005524,9.58491993 6.43005524,9.58491993 C6.61704772,9.58597009 6.7603605,9.73610884 6.76085276,9.91965552 L6.76085276,11.6405902 C6.7603605,11.7830826 6.64576278,11.8822234 6.52063075,11.8808122 C6.52063075,11.8808122 6.46346316,11.8808451 6.37098425,11.8809435 L6.37098425,14.1491381 C6.37295328,14.5611254 5.77003542,14.5611254 5.7684602,14.1491381 L5.7684602,11.8813373 C5.73826836,11.8813373 5.7080437,11.8813701 5.67788468,11.8813701 L5.67788468,14.1491381 C5.67837694,14.557975 5.0754919,14.557975 5.07536063,14.1491381 L5.07536063,11.8813373 C4.98809966,11.8812389 4.93424661,11.8810748 4.93359026,11.8808122 C4.81072261,11.8822234 4.69412305,11.7813761 4.69336826,11.6405902 Z M7.44607619,8.99421008 C7.44643718,8.74371628 7.64905066,8.54113562 7.89895375,8.54133252 C8.14885683,8.54113562 8.35147031,8.74371628 8.3518313,8.99421008 C8.35147031,9.24355527 8.14885683,9.44613594 7.89895375,9.44708763 C7.64905066,9.44613594 7.44643718,9.24355527 7.44607619,8.99421008 Z M6.8593044,11.6405902 L6.8593044,9.91965552 C6.86002638,9.72104574 7.01836944,9.58597009 7.19010192,9.58491993 C7.18974093,9.58597009 8.59599138,9.58491993 8.59599138,9.58491993 C8.78295105,9.58597009 8.92626382,9.73610884 8.9267889,9.91965552 L8.9267889,11.6405902 C8.92626382,11.7830826 8.81166611,11.8822234 8.68656689,11.8808122 C8.68656689,11.8808122 8.6293993,11.8808451 8.53692039,11.8809435 L8.53692039,14.1491381 C8.53888942,14.5611254 7.93597156,14.5611254 7.93439634,14.1491381 L7.93439634,11.8813373 C7.9042045,11.8813373 7.87397985,11.8813701 7.84382083,11.8813701 L7.84382083,14.1491381 C7.84431308,14.557975 7.24142804,14.557975 7.24129677,14.1491381 L7.24129677,11.8813373 C7.1540358,11.8812389 7.10018275,11.8810748 7.09952641,11.8808122 C6.97665876,11.8822234 6.86002638,11.7813761 6.8593044,11.6405902 Z M9.61201233,8.99421008 C9.61237332,8.74371628 9.8149868,8.54113562 10.0648899,8.54133252 C10.314793,8.54113562 10.5174065,8.74371628 10.5177674,8.99421008 C10.5174065,9.24355527 10.314793,9.44613594 10.0648899,9.44708763 C9.8149868,9.44613594 9.61237332,9.24355527 9.61201233,8.99421008 Z M9.02524054,11.6405902 L9.02524054,9.91965552 C9.02596252,9.72104574 9.18430558,9.58597009 9.35603806,9.58491993 C9.35564425,9.58597009 10.7619275,9.58491993 10.7619275,9.58491993 C10.9488872,9.58597009 11.0922,9.73610884 11.092725,9.91965552 L11.092725,11.6405902 C11.0922,11.7830826 10.9776023,11.8822234 10.852503,11.8808122 C10.852503,11.8808122 10.7953354,11.8808451 10.7028565,11.8809435 L10.7028565,14.1491381 C10.7048256,14.5611254 10.1019077,14.5611254 10.1003325,14.1491381 L10.1003325,11.8813373 C10.0701406,11.8813373 10.039916,11.8813701 10.009757,11.8813701 L10.009757,14.1491381 C10.0102492,14.557975 9.40736418,14.557975 9.40723291,14.1491381 L9.40723291,11.8813373 C9.31997194,11.8812389 9.26611889,11.8810748 9.26542973,11.8808122 C9.1425949,11.8822234 9.02596252,11.7813761 9.02524054,11.6405902 Z M3.20477942,2.32706483 L4.96115672,0.216261605 C5.23911853,-0.0622580925 5.60174875,-0.0638989533 5.87872604,0.216261605 L7.64691754,2.3191887 C8.19224119,2.94091082 7.30824389,3.71004787 6.80417148,3.15799669 L6.07562932,2.26799384 L6.09925772,5.10733922 C6.09023298,6.05217964 4.73652289,6.04161249 4.74456311,5.10733922 L4.76425344,2.26799384 L4.04358741,3.16587282 C3.55067286,3.72648929 2.65847125,2.94911512 3.20477942,2.32706483 Z M8.11948543,3.48485615 C7.57284909,2.86296994 8.46505069,2.08562858 8.95829342,2.64604815 L9.67895945,3.54392713 L9.6592363,0.704581753 C9.65090073,-0.229527434 11.0046108,-0.240094577 11.0139637,0.704581753 L10.9903353,3.54392713 L11.7188775,2.65392428 C12.2226217,2.10203719 13.106619,2.87117424 12.5616235,3.49667034 L10.793432,5.59565937 C10.5161266,5.87601683 10.1534964,5.87434315 9.87586273,5.59565937 L8.11948543,3.48485615 Z M4.35072372,14.6453344 L11.4274278,14.6453344 L11.4274278,7.61194901 L4.35072372,7.61194901 L4.35072372,14.6453344 Z M11.4747174,6.24150214 L4.30743782,6.24150214 C3.55067286,6.24324146 3.00193622,6.83592035 3,7.54893996 L3,14.7044054 C3.00042662,15.4339977 3.59169437,16.0017027 4.30743782,15.9999962 L11.4825935,15.9999962 C12.1980088,16.0015714 12.7805144,15.4668149 12.7781843,14.7044054 L12.7781843,7.54893996 C12.7788735,6.82771604 12.2062131,6.24324146 11.4747174,6.24150214 Z" id="Elevator" fill="#231F20"></path>
    </g>
</svg>