<?xml version="1.0" encoding="UTF-8"?>
<svg width="24px" height="24px" viewBox="0 0 24 24" version="1.1" xmlns="http://www.w3.org/2000/svg" xmlns:xlink="http://www.w3.org/1999/xlink">
    <!-- Generator: Sketch 49.3 (51167) - http://www.bohemiancoding.com/sketch -->
    <title>Icon/Mode/Black/Commuter Rail/Default</title>
    <desc>Created with Sketch.</desc>
    <defs></defs>
    <g id="Icon/Mode/Black/Commuter-Rail/Default" stroke="none" stroke-width="1" fill="none" fill-rule="evenodd">
        <g id="icon-commuter-rail-default" transform="translate(5.000000, 0.000000)" fill="#000000" fill-rule="nonzero">
            <path d="M12.9991837,6.01469388 C12.7466275,5.84767536 12.5969721,5.56314539 12.602449,5.26040816 L12.602449,2.91428571 C12.5860889,2.2303482 12.1048435,1.64597881 11.4367347,1.49877551 C10.0351973,1.08862644 8.61068128,0.761527467 7.17061224,0.519183673 C6.94736954,0.474287086 6.7172625,0.475954529 6.49469388,0.524081633 C5.22122449,0.803265306 3.93795918,1.05306122 2.67428571,1.40571429 C1.92979592,1.61142857 1.14612245,2.02285714 1.14612245,2.91428571 L1.14612245,5.24571429 C1.15107448,5.55074807 0.997105686,5.8364251 0.739591837,6 C0.281772096,6.28109327 0.00338919053,6.78032661 0.00489795918,7.31755102 L0.00489795918,17.2212245 C0.00849591152,17.6847493 0.220807331,18.1219668 0.582857143,18.4114286 L3.09061224,20.2481633 L1.0677551,24 L2.71836735,24 L3.00244898,23.4808163 L10.7461224,23.4808163 L11.035102,24 L12.6710204,24 L10.6677551,20.2481633 L10.6726531,20.2481633 L13.1265306,18.4310204 C13.4941784,18.1369723 13.7085584,17.6919988 13.7093878,17.2212245 L13.7093878,7.31755102 C13.7089226,6.79092557 13.4415492,6.30043378 12.9991837,6.01469388 Z M8.06204082,2.35102041 C8.06149736,2.20279641 8.12817962,2.06231746 8.24336456,1.96902717 C8.35854951,1.87573689 8.50981687,1.83969466 8.65469388,1.87102041 L11.0742857,2.38040816 C11.3000591,2.42623941 11.462045,2.62513341 11.4612245,2.8555102 L11.4612245,4.2955102 C11.4615867,4.44177885 11.3963309,4.58049966 11.2834214,4.67348399 C11.1705119,4.76646831 11.0218523,4.80391313 10.8783673,4.7755102 L8.45877551,4.30530612 C8.228411,4.26135737 8.0618386,4.05982533 8.06204082,3.82530612 L8.06204082,2.35102041 Z M6.85714286,7.87591837 C7.48726595,7.87656824 8.02921872,8.32215588 8.15167242,8.94026641 C8.27412613,9.55837693 7.94299034,10.1769319 7.36070856,10.417771 C6.77842677,10.65861 6.10710292,10.454685 5.75715817,9.93066759 C5.40721342,9.40665022 5.4760704,8.70842399 5.92163265,8.26285714 C6.16977806,8.01486166 6.50631835,7.87566437 6.85714286,7.87591837 Z M2.4,2.8555102 C2.3994436,2.62354881 2.56400987,2.42401222 2.79183673,2.38040816 L5.21142857,1.87102041 C5.35568933,1.84058717 5.50597179,1.87711779 5.62016564,1.9703761 C5.73435949,2.06363441 5.80017997,2.20358786 5.79918367,2.35102041 L5.79918367,3.82530612 C5.79965095,4.05824007 5.6356587,4.25913058 5.40734694,4.30530612 L2.98285714,4.7755102 C2.83948405,4.80313096 2.69126139,4.76539348 2.57855231,4.67257424 C2.46584322,4.579755 2.40038396,4.44151911 2.4,4.2955102 L2.4,2.8555102 Z M2.93573878,17.3877551 C2.40690049,17.3891059 1.977097,16.9614934 1.97574504,16.4326551 C1.97439309,15.9038169 2.40200464,15.4740124 2.93084292,15.4726593 C3.4596812,15.4713062 3.88948656,15.8989168 3.89084082,16.4277551 C3.88999222,16.9556881 3.46366052,17.3842061 2.93573878,17.3877551 Z M4.75102041,20.3118367 L8.97795918,20.3118367 L9.41387755,21.0955102 L4.32,21.0955102 L4.75102041,20.3118367 Z M3.43836735,22.6922449 L3.88408163,21.8840816 L9.85469388,21.8840816 L10.3053061,22.6922449 L3.43836735,22.6922449 Z M11.2653061,17.3877551 C10.7364678,17.3891059 10.3066643,16.9614934 10.3053124,16.4326551 C10.3039604,15.9038169 10.731572,15.4740124 11.2604103,15.4726593 C11.7892485,15.4713062 12.2190539,15.8989168 12.2204082,16.4277551 C12.2195596,16.9556881 11.7932279,17.3842061 11.2653061,17.3877551 Z" id="Shape"></path>
        </g>
    </g>
</svg>