<?xml version="1.0" encoding="UTF-8"?>
<svg width="16px" height="16px" viewBox="0 0 16 16" version="1.1" xmlns="http://www.w3.org/2000/svg" xmlns:xlink="http://www.w3.org/1999/xlink">
    <!-- Generator: Sketch 49.3 (51167) - http://www.bohemiancoding.com/sketch -->
    <title>Icon/Mode/Black/Commuter Rail/Small</title>
    <desc>Created with Sketch.</desc>
    <defs></defs>
    <g id="Icon/Mode/Black/Commuter-Rail/Small" stroke="none" stroke-width="1" fill="none" fill-rule="evenodd">
        <g id="icon-commuter-rail-small" transform="translate(3.000000, 0.000000)" fill="#1C1E23" fill-rule="nonzero">
            <path d="M9.87823,10.51129 L9.87823,4.63251 C9.87797037,4.32614481 9.74473132,4.03497969 9.51306,3.83451 C9.2810992,3.65604507 9.13921824,3.38471411 9.125,3.09239 L9.125,1.63629 C9.11387415,1.17088039 8.78641887,0.773212187 8.33179,0.673 C7.32818823,0.402136012 6.30973913,0.189633431 5.28156,0.03656 C5.09090795,-0.00498466218 4.89354926,-0.00502558816 4.70288,0.03644 C3.84588,0.22235 2.8103,0.39813 1.9671,0.63344 C1.46045,0.77344 0.92719,1.05344 0.92719,1.65999 L0.92719,3.10189 C0.912516889,3.39811636 0.76562899,3.67210643 0.52704,3.84829 C0.287794086,4.04835247 0.149869944,4.3444198 0.15063,4.65629 L0.15063,10.51129 C0.219783367,10.9120739 0.424548476,11.2769265 0.73063,11.54474 L2.32835,12.71574 L0.34,16 L1.34,16 L1.62943,15.52191 L8.376,15.52191 L8.66,16 L9.66,16 L7.69614,12.693 L9.24686,11.54469 C9.56960328,11.2828253 9.79251606,10.917971 9.87823,10.51129 Z M5.81989,1.26862 C5.81952602,1.16776676 5.86489819,1.07218483 5.94326929,1.00870667 C6.0216404,0.9452285 6.12456156,0.920697431 6.22314,0.942 L7.86963,1.28861 C8.02325588,1.31981877 8.1334739,1.45515711 8.13293,1.61192 L8.13293,2.5918 C8.13316229,2.69132146 8.08875513,2.78570256 8.01193018,2.84896789 C7.93510523,2.91223321 7.83395944,2.93771493 7.73633,2.9184 L6.08984,2.59845 C5.93307595,2.56852514 5.81972282,2.43138465 5.81984,2.27179 L5.81989,1.26862 Z M3.28864,12.78125 L6.74847,12.78125 L7.24023,13.60931 L2.78735,13.60931 L3.28864,12.78125 Z M5,4.78125 C5.62706182,4.78126657 6.13538552,5.28960818 6.13538,5.91667 C6.13537448,6.54373182 5.62704182,7.05206448 4.99998,7.05207 C4.37291818,7.05207552 3.86457657,6.54375182 3.86456,5.91669 C3.86456552,5.28960609 4.37291609,4.78125552 5,4.78125 Z M1.9671,1.61188 C1.9667225,1.4540455 2.07868416,1.31826784 2.2337,1.28857 L3.88013,0.942 C3.97830561,0.921294014 4.08057705,0.946156295 4.15829066,1.00962112 C4.23600427,1.07308594 4.28080099,1.16832686 4.28013,1.26866 L4.28013,2.27179 C4.28043374,2.43030577 4.1688373,2.56701204 4.01347,2.59845 L2.36371,2.9184 C2.26615243,2.93720506 2.16529045,2.91153288 2.08859461,2.84837547 C2.01189878,2.78521806 1.96735678,2.69115312 1.9671,2.5918 L1.9671,1.61188 Z M1.6889,10.50922 C1.69004325,10.0692785 2.04721528,9.71335077 2.4871581,9.71374286 C2.92710093,9.71413494 3.28363797,10.0706987 3.28399704,10.5106416 C3.28435612,10.9505844 2.9284016,11.3077298 2.48846,11.30884 C2.04695238,11.3085972 1.68910965,10.9507276 1.6889,10.50922 Z M1.90576,15.06555 L2.51111,14.06561 L7.51117,14.06561 L8.10504,15.06555 L1.90576,15.06555 Z M7.489,11.30884 C7.0485339,11.3099541 6.69055957,10.9537943 6.68943529,10.5133283 C6.68831101,10.0728622 7.04446251,9.71487965 7.48492856,9.7137452 C7.92539461,9.71261075 8.28338538,10.068754 8.28453,10.50922 C8.28383165,10.9489547 7.92872532,11.3058867 7.489,11.30884 Z" id="Shape"></path>
        </g>
    </g>
</svg>