<?xml version="1.0" encoding="UTF-8"?>
<svg width="24px" height="24px" viewBox="0 0 24 24" version="1.1" xmlns="http://www.w3.org/2000/svg" xmlns:xlink="http://www.w3.org/1999/xlink">
    <!-- Generator: Sketch 49.3 (51167) - http://www.bohemiancoding.com/sketch -->
    <title>Icon/Mode/Black Circle/Bus</title>
    <desc>Created with Sketch.</desc>
    <defs></defs>
    <g id="Icon/Mode/Black-Circle/Bus" stroke="none" stroke-width="1" fill="none" fill-rule="evenodd">
        <path d="M11.9999086,0.48 L11.9999086,0 C18.6274013,0 24,5.37253975 24,11.9999086 C24,18.6275517 18.6274928,24 11.9999086,24 C5.37235691,24 0,18.6275842 0,11.9999086 C0,5.37250723 5.37244833,0 11.9999086,0 L11.9999086,0.48 Z" id="Path" fill="#FFFFFF"></path>
        <path d="M11.9999086,0.48 L11.9999086,0.96 C5.90264404,0.96 0.96,5.90269823 0.96,11.9999086 C0.96,18.0973932 5.90255262,23.04 11.9999086,23.04 C18.0973018,23.04 23.04,18.097356 23.04,11.9999086 C23.04,5.90273547 18.0972103,0.96 11.9999086,0.96 L11.9999086,0.48 Z M11.9999086,0.48 L11.9999086,0 C18.6274013,0 24,5.37253975 24,11.9999086 C24,18.6275517 18.6274928,24 11.9999086,24 C5.37235691,24 0,18.6275842 0,11.9999086 C0,5.37250723 5.37244833,0 11.9999086,0 L11.9999086,0.48 Z" id="Fill-1-Copy-2" fill="#1C1E23" fill-rule="nonzero"></path>
        <path d="M7.97376969,7 C7.74447677,7.00095351 7.54726239,7.17797475 7.50140513,7.4239983 L7.01742505,11.3322027 C7.00574826,11.3770145 6.99988309,11.4234017 7.00000177,11.4700021 C7.00000177,11.7627119 7.21668703,12 7.48398185,12 L16.5160182,12 C16.783313,12 16.9999982,11.7627119 16.9999982,11.4700021 C17.0001169,11.4234017 16.9942517,11.3770145 16.982575,11.3322027 L16.4985949,7.4239983 C16.4528122,7.17836257 16.2561271,7.00145389 16.0271983,7 L7.97376969,7 Z M14.6132887,6 C15.1289038,6 15.1289038,5 14.6132887,5 L9.38594856,5 C8.87135048,5 8.87135048,6 9.38594856,6 L14.6132887,6 Z M9,15 C9,14.4477153 8.55228475,14 8,14 C7.44771525,14 7,14.4477153 7,15 C7,15.5522847 7.44771525,16 8,16 C8.55228475,16 9,15.5522847 9,15 Z M16.0000003,15.9999993 C16.5522849,15.9999993 17,15.5522842 17,14.9999997 C17,14.4477151 16.5522849,14 16.0000003,14 C15.4477158,14 15.0000007,14.4477151 15.0000007,14.9999997 C14.9996934,15.2653101 15.1049516,15.5198425 15.2925545,15.7074455 C15.4801575,15.8950484 15.7346899,16.0003066 16.0000003,15.9999993 Z M12.0004803,4 C13.3606019,4 15.1817818,4.41805474 15.958857,4.77549154 C16.7359321,5.13292834 17.2555831,5.47991378 17.4169535,6.36096414 L18,11.2469789 L18,17.9787053 L16.9952774,17.9787053 L16.9952774,19.0342936 C16.9952774,20.3219021 15.2663091,20.3219021 15.2663091,19.0342936 L15.2663091,17.9787053 L8.7346514,17.9787053 L8.7346514,19.0342936 C8.7346514,20.3219021 7.00568318,20.3219021 7.00568318,19.0342936 L7.00568318,17.9787053 L6,17.9787053 L6,11.2469789 L6.58304651,6.36096414 C6.74537741,5.47991378 7.26406788,5.12770266 8.04114304,4.77549154 C8.8182182,4.42328042 10.6345954,4 12.0004803,4 Z" id="Shape" fill="#1C1E23" fill-rule="nonzero"></path>
    </g>
</svg>