<?xml version="1.0" encoding="UTF-8"?>
<svg width="24px" height="24px" viewBox="0 0 24 24" version="1.1" xmlns="http://www.w3.org/2000/svg" xmlns:xlink="http://www.w3.org/1999/xlink">
    <!-- Generator: Sketch 49.3 (51167) - http://www.bohemiancoding.com/sketch -->
    <title>Icon/Mode/Black Circle/Commuter Rail</title>
    <desc>Created with Sketch.</desc>
    <defs></defs>
    <g id="Icon/Mode/Black-Circle/Commuter-Rail" stroke="none" stroke-width="1" fill="none" fill-rule="evenodd">
        <path d="M11.9999086,0.48 L11.9999086,0 C18.6274013,0 24,5.37253975 24,11.9999086 C24,18.6275517 18.6274928,24 11.9999086,24 C5.37235691,24 0,18.6275842 0,11.9999086 C0,5.37250723 5.37244833,0 11.9999086,0 L11.9999086,0.48 Z" id="Path" fill="#FFFFFF"></path>
        <path d="M11.9999086,0.48 L11.9999086,0.96 C5.90264404,0.96 0.96,5.90269823 0.96,11.9999086 C0.96,18.0973932 5.90255262,23.04 11.9999086,23.04 C18.0973018,23.04 23.04,18.097356 23.04,11.9999086 C23.04,5.90273547 18.0972103,0.96 11.9999086,0.96 L11.9999086,0.48 Z M11.9999086,0.48 L11.9999086,0 C18.6274013,0 24,5.37253975 24,11.9999086 C24,18.6275517 18.6274928,24 11.9999086,24 C5.37235691,24 0,18.6275842 0,11.9999086 C0,5.37250723 5.37244833,0 11.9999086,0 L11.9999086,0.48 Z" id="Fill-1-Copy-3" fill="#1C1E23" fill-rule="nonzero"></path>
        <path d="M10.3165191,19 L10,20 L15,20 L14.6868214,19 L14,19 L10.3165191,19 Z M7.44318956,7.40387147 L7.46791277,7.3853746 C7.74672238,7.18922903 7.91265127,6.86752443 7.91201486,6.52434503 L7.91201486,4.92436528 C7.90933888,4.3230911 8.32897171,3.80425199 8.91284701,3.68692429 L12.0856589,3.03953364 C12.3578825,2.98682212 12.6375423,2.98682212 12.9097659,3.03953364 L16.0871561,3.68692429 C16.6700469,3.80590391 17.0888651,4.32373589 17.0879883,4.92436528 L17.0879883,6.52434503 C17.0850265,6.86764716 17.2506694,7.19012713 17.530259,7.3853746 L17.5558979,7.40387147 C17.8338385,7.6003657 17.9995566,7.92131656 18,8.2639762 L18,15.9401796 C17.9997782,16.3172133 17.7995452,16.6652183 17.4753186,16.8520756 L15.6265719,17.9221199 C15.5275871,17.9801745 15.4922843,18.1072256 15.5469082,18.2088214 L17.1475071,21 L15.8243576,21 L15.5862822,20.5819706 L9.41280524,20.5819706 L9.17289854,21 L7.85066468,21 L9.4466852,18.2097463 C9.47452123,18.1614607 9.48215167,18.1039597 9.46788699,18.0499749 C9.45362232,17.9959901 9.41863946,17.9499756 9.37068422,17.9221199 L7.52193756,16.8548501 C7.19835066,16.6677075 6.99908859,16.3195674 7.00000313,15.9429542 L7.00000313,8.26675073 C6.99930142,7.92403011 7.164872,7.60270249 7.44318956,7.406646 L7.44318956,7.40387147 Z M13.4117991,4.00481979 L13.4117991,4.0056459 C13.3225686,3.99079237 13.2297664,4.00552183 13.1538492,4.04658744 C13.077932,4.08765304 13.0251324,4.15168336 13.0070892,4.22456402 C13.0022297,4.24330185 12.9998552,4.26241242 13.0000068,4.28156534 L13.0000068,5.33732894 C12.999969,5.47209002 13.1171582,5.58788159 13.2792566,5.61324838 L15.5881264,5.9940833 C15.6775567,6.00938093 15.7707649,5.99473152 15.8468493,5.95342019 C15.9229337,5.91210885 15.9755274,5.84759259 15.9928363,5.77433907 C15.9976939,5.75588025 16.0000687,5.73704358 15.9999187,5.71816386 L15.9999187,4.66570468 C16.0035158,4.53038189 15.8873866,4.41255593 15.724716,4.38648081 L13.4117991,4.00481979 Z M11.5829709,4.00577796 L9.2777004,4.3871234 C9.11504468,4.41334694 8.99834307,4.53059927 9.0000178,4.66611638 L9.0000178,5.71770532 C9.00001698,5.87329059 9.15401477,5.99954507 9.34434422,6 C9.36882034,5.99805051 9.39290362,5.99361403 9.41603682,5.98679323 L11.7233268,5.60627322 C11.8842987,5.58023483 12.0002252,5.46471959 11.9999997,5.33058192 L11.9999997,4.28229468 C11.9994487,4.12689625 11.8457725,4.00090546 11.6556732,4 C11.6325604,4.00016171 11.6095376,4.00237583 11.5870099,4.00660338 L11.5829709,4.00577796 Z M12.9999809,9.99647231 C12.998033,9.444307 12.5489252,8.99822139 11.9967628,9.00000533 C11.4446005,9.00178927 10.9983844,9.45076752 11.0000044,10.0029339 C11.0016244,10.5551003 11.4504672,11.0014525 12.0026305,10.9999964 C12.2682163,11.0000015 12.5228354,10.894077 12.7100532,10.7057003 C12.897271,10.5173236 13.0016232,10.2620547 12.9999809,9.99647231 Z M10,15.4999977 C9.99999604,15.2974861 9.8778358,15.1149761 9.69061734,15.0377734 C9.50339888,14.9605708 9.28810007,15.0039239 9.14535223,15.1475694 C9.00260439,15.2912149 8.96060191,15.5067811 9.03897688,15.6935118 C9.11735186,15.8802424 9.30062428,16.0012559 9.50313209,15.9999902 C9.77804937,15.9982719 10.0000054,15.7749201 10,15.4999977 Z M16,15.4999977 C15.999996,15.2974861 15.8778358,15.1149761 15.6906173,15.0377734 C15.5033989,14.9605708 15.2881001,15.0039239 15.1453522,15.1475694 C15.0026044,15.2912149 14.9606019,15.5067811 15.0389769,15.6935118 C15.1173519,15.8802424 15.3006243,16.0012559 15.5031321,15.9999902 C15.7780494,15.9982719 16.0000054,15.7749201 16,15.4999977 Z M10.3348962,18 L10,19 L14,19 L13.6624246,18 L10.3348962,18 Z" id="Commuter-Rail" fill="#1C1E23" fill-rule="nonzero"></path>
    </g>
</svg>