<?xml version="1.0" encoding="UTF-8"?>
<svg width="24px" height="24px" viewBox="0 0 24 24" version="1.1" xmlns="http://www.w3.org/2000/svg" xmlns:xlink="http://www.w3.org/1999/xlink">
    <!-- Generator: Sketch 49.3 (51167) - http://www.bohemiancoding.com/sketch -->
    <title>Icon/Mode/Black Circle/Ferry</title>
    <desc>Created with Sketch.</desc>
    <defs></defs>
    <g id="Icon/Mode/Black-Circle/Ferry" stroke="none" stroke-width="1" fill="none" fill-rule="evenodd">
        <path d="M11.9999048,0 L11.9999048,0.5 C5.64858755,0.5 0.5,5.64864399 0.5,11.9999048 C0.5,18.3514512 5.64849232,23.5 11.9999048,23.5 C18.351356,23.5 23.5,18.3514125 23.5,11.9999048 C23.5,5.64868278 18.3512608,0.5 11.9999048,0.5 L11.9999048,0 Z" id="Path" fill="#FFFFFF"></path>
        <path d="M11.9999086,0.48 L11.9999086,0.96 C5.90264404,0.96 0.96,5.90269823 0.96,11.9999086 C0.96,18.0973932 5.90255262,23.04 11.9999086,23.04 C18.0973018,23.04 23.04,18.097356 23.04,11.9999086 C23.04,5.90273547 18.0972103,0.96 11.9999086,0.96 L11.9999086,0.48 Z M11.9999086,0.48 L11.9999086,0 C18.6274013,0 24,5.37253975 24,11.9999086 C24,18.6275517 18.6274928,24 11.9999086,24 C5.37235691,24 0,18.6275842 0,11.9999086 C0,5.37250723 5.37244833,0 11.9999086,0 L11.9999086,0.48 Z" id="Fill-1-Copy-4" fill="#1C1E23" fill-rule="nonzero"></path>
        <path d="M12.7929009,18.705947 C12.1801344,19.0463055 11.4656594,19.0821216 10.7435058,18.6933554 C9.99917693,18.3523323 9.65979552,18.4133317 9.04759171,18.7521163 C8.43489144,19.090586 7.82245594,19.090586 7.10146076,18.7017498 C6.37775159,18.3117593 5.7704462,18.5318329 5.4452636,18.7437218 C5.18842728,18.908812 4.89055009,18.9875096 4.50794339,18.9871598 L4.50794339,17.4299962 C5.11395798,17.4299962 5.38965986,17.2117414 5.38965986,17.2117414 C6.02446924,16.7950987 6.59679061,16.8771541 7.39933795,17.3166716 C7.85449429,17.5683641 8.5894897,17.502328 9.10319545,17.2201359 C9.8089658,16.8304252 10.1906789,16.9246525 10.9301755,17.2746995 C11.5022983,17.5431109 12.0201743,17.5432858 12.5943161,17.2746995 C13.3346071,16.9256319 13.7347223,16.8304252 14.4411546,17.2201359 C14.9542315,17.502328 15.6786027,17.5683641 16.1370687,17.3166716 C16.9362732,16.8771541 17.5192189,16.7950987 18.1546902,17.2117414 C18.1546902,17.2117414 18.419139,17.4310455 19.0364067,17.4299962 L19.0364067,18.9871598 C18.6259981,18.9875096 18.352944,18.9175561 18.079228,18.7437218 C17.7537144,18.5337566 17.1658373,18.3117593 16.4428893,18.7017498 C15.7212322,19.090586 15.1088298,19.090586 14.4967584,18.7521163 C13.8839257,18.4133317 13.5367002,18.3673024 12.7929009,18.705947 Z M12.7770141,16.3974834 C12.0478769,16.7839761 11.4813807,16.779639 10.7593926,16.389089 C10.1858466,16.085491 9.65195142,16.1024197 9.03964832,16.4394554 C8.42708043,16.779639 7.81467804,16.779639 7.09351737,16.389089 C6.36994059,16.0008473 5.76088103,16.1919252 5.42937682,16.389089 C5.11395798,16.5741158 4.91537319,16.6440693 4.5,16.674499 L4.5,15.1718991 C5.03121432,15.1575586 5.38171647,14.9494471 5.38171647,14.9494471 C6.60334391,14.2306755 7.17463926,15.0942158 7.84813957,15.0921521 L7.84416788,15.0921521 L7.84416788,11.5832874 L6.81152697,9.06076629 C6.65259294,8.67018124 6.80964041,8.31460789 7.18486637,8.14577525 L7.81636601,7.87295683 L7.81636601,5.69040941 L9.02376154,5.69040941 L9.02376154,4.54037481 L10.7196757,4.54037481 L10.7196757,3 L12.8246744,3 L12.8246744,4.54037481 L14.5205885,4.54037481 L14.5205885,5.69040941 L15.7279841,5.69040941 L15.7279841,7.87295683 L16.355512,8.14577525 C16.7340808,8.31460789 16.8910952,8.67018124 16.7328231,9.06076629 L15.6962105,11.5832874 L15.6962105,15.0921521 C16.3694791,15.0942158 16.9132043,14.2169646 18.1626336,14.9368555 C18.1626336,14.9368555 18.5018826,15.1438477 19.0443501,15.1593074 L19.0443501,16.674499 C18.6177238,16.6440693 18.4108646,16.5566275 18.1149733,16.389089 C17.7801262,16.1976264 17.1737475,16.0008473 16.4508327,16.389089 C15.7290432,16.779639 15.1166077,16.779639 14.5047018,16.4394554 C13.8917698,16.1024197 13.3635012,16.0844417 12.7770141,16.3974834 Z M11.772175,5.45536584 L9.91739309,5.45536584 L9.91739309,6.58861162 L8.70999757,6.58861162 L8.70999757,7.470025 L11.772175,6.13531331 L14.8343525,7.470025 L14.8343525,6.58861162 L13.6229853,6.58861162 L13.6229853,5.45536584 L11.772175,5.45536584 Z" id="Ferry" fill="#1C1E23"></path>
    </g>
</svg>