<?xml version="1.0" encoding="UTF-8"?>
<svg width="24px" height="24px" viewBox="0 0 24 24" version="1.1" xmlns="http://www.w3.org/2000/svg" xmlns:xlink="http://www.w3.org/1999/xlink">
    <!-- Generator: Sketch 49.3 (51167) - http://www.bohemiancoding.com/sketch -->
    <title>Icon/Mode/Black Circle/Subway</title>
    <desc>Created with Sketch.</desc>
    <defs></defs>
    <g id="Icon/Mode/Black-Circle/Subway" stroke="none" stroke-width="1" fill="none" fill-rule="evenodd">
        <path d="M11.9999048,0 L11.9999048,0.5 C5.64858755,0.5 0.5,5.64864399 0.5,11.9999048 C0.5,18.3514512 5.64849232,23.5 11.9999048,23.5 C18.351356,23.5 23.5,18.3514125 23.5,11.9999048 C23.5,5.64868278 18.3512608,0.5 11.9999048,0.5 L11.9999048,0 Z" id="Path" fill="#FFFFFF"></path>
        <path d="M11.9999086,0.48 L11.9999086,0.96 C5.90264404,0.96 0.96,5.90269823 0.96,11.9999086 C0.96,18.0973932 5.90255262,23.04 11.9999086,23.04 C18.0973018,23.04 23.04,18.097356 23.04,11.9999086 C23.04,5.90273547 18.0972103,0.96 11.9999086,0.96 L11.9999086,0.48 Z M11.9999086,0.48 L11.9999086,0 C18.6274013,0 24,5.37253975 24,11.9999086 C24,18.6275517 18.6274928,24 11.9999086,24 C5.37235691,24 0,18.6275842 0,11.9999086 C0,5.37250723 5.37244833,0 11.9999086,0 L11.9999086,0.48 Z" id="Fill-1" fill="#1C1E23" fill-rule="nonzero"></path>
        <path d="M11.9893075,18.2367617 L9.40478615,18.2367617 L7.52138493,21 L6,21 L8.63492872,17.0453157 C7.75776477,16.9044043 6.88300662,15.9879073 6.88441955,14.8732179 L6.88441955,6.70264766 C6.88300662,5.55129837 7.85296589,4.49297352 9.17107943,4.49389002 L11.9984725,4.48930754 L14.8075356,4.49389002 C16.1257256,4.49297352 17.0956848,5.55129837 17.0941955,6.70264766 L17.0941955,14.8732179 C17.0956848,15.9879073 16.2209267,16.9044043 15.3436864,17.0453157 L17.9786151,21 L16.4572301,21 L14.5738289,18.2367617 L11.9893075,18.2367617 Z M11.1384929,4.26934827 C10.7899567,4.26843177 10.5063773,3.98477597 10.50611,3.63696538 C10.5063773,3.2848778 10.7899567,3.001222 11.1384929,3 C11.4898549,3.001222 11.7735107,3.2848778 11.7754582,3.63696538 C11.7735107,3.98477597 11.4898549,4.26843177 11.1384929,4.26934827 Z M12.8233198,4.26934827 C12.4720341,4.26843177 12.1883783,3.98477597 12.1863544,3.63696538 C12.1883783,3.2848778 12.4720341,3.001222 12.8233198,3 C13.1719323,3.001222 13.4555117,3.2848778 13.4557026,3.63696538 C13.4555117,3.98477597 13.1719323,4.26843177 12.8233198,4.26934827 Z M14.8273991,15.8523422 C15.3833309,15.8532205 15.832338,15.4041752 15.8309633,14.848778 C15.832338,14.2963977 15.3833309,13.8473905 14.8273991,13.8452138 C14.2755152,13.8473905 13.8265081,14.2963977 13.8284175,14.848778 C13.8265081,15.4041752 14.2755152,15.8532205 14.8273991,15.8523422 Z M11.9817307,10.5336049 L14.7220566,10.5336049 C15.354134,10.5353615 15.8696635,10.1028513 15.8630953,9.39714868 L15.8630953,7.92617108 C15.863859,7.31517312 15.4686961,6.78200102 14.7220566,6.7805499 L9.24140484,6.7805499 C8.49484171,6.78200102 8.09967877,7.31517312 8.10036615,7.92617108 L8.10036615,9.39714868 C8.09387429,10.1028513 8.60940382,10.5353615 9.24140484,10.5336049 L11.9817307,10.5336049 Z M11.990835,6.37424206 L13.0997963,6.37424206 C13.310667,6.37550225 13.4754837,6.20316263 13.4755601,6.0030608 L13.4755601,5.35234797 C13.4754837,5.15300988 13.3011202,4.98460357 13.0997963,4.98574919 L10.8818737,4.98574919 C10.6806263,4.98460357 10.5062627,5.15300988 10.50611,5.35234797 L10.50611,6.0030608 C10.5062627,6.20316263 10.6710794,6.37550225 10.8818737,6.37424206 L11.990835,6.37424206 Z M9.10387414,15.8523422 C9.65549074,15.8532205 10.1044979,15.4041752 10.1028558,14.848778 C10.1044979,14.2963977 9.65549074,13.8473905 9.10387414,13.8452138 C8.54767506,13.8473905 8.09866793,14.2963977 8.10030999,14.848778 C8.09866793,15.4041752 8.54767506,15.8532205 9.10387414,15.8523422 Z" id="Subway-Copy" fill="#1C1E23"></path>
    </g>
</svg>