<?xml version="1.0" encoding="UTF-8"?>
<svg width="24px" height="24px" viewBox="0 0 24 24" version="1.1" xmlns="http://www.w3.org/2000/svg" xmlns:xlink="http://www.w3.org/1999/xlink">
    <!-- Generator: Sketch 51.2 (57519) - http://www.bohemiancoding.com/sketch -->
    <title>Icon/Subway Line/Green/Default</title>
    <desc>Created with Sketch.</desc>
    <defs></defs>
    <g id="Icon/Subway-Line/Green/Default" stroke="none" stroke-width="1" fill="none" fill-rule="evenodd">
        <g id="icon-green-line-default" fill-rule="nonzero">
            <path d="M12,0 C5.372583,-1.87739444e-15 8.11850587e-16,5.372583 0,12 C-8.11850587e-16,18.627417 5.372583,24 12,24 C18.627417,24 24,18.627417 24,12 C24,5.372583 18.627417,5.73488277e-15 12,5.32907052e-15" id="Shape" fill="#00843D"></path>
            <g id="Group" transform="translate(2.000000, 7.000000)" fill="#FFFFFF">
                <g id="Group-2" transform="translate(-0.500000, 0.000000)">
                    <path d="M6.6941,10.604 C6.22244985,10.8073895 5.71457998,10.913426 5.20095,10.91575 C4.46716097,10.9274006 3.73892879,10.7867562 3.06225,10.5027 C2.45199742,10.2436196 1.90523343,9.85519894 1.4597,9.36425 C1.01698562,8.86802381 0.676957696,8.2890128 0.45925,7.66065 C0.222928535,6.98251896 0.105157417,6.26875461 0.1111,5.55065 C0.104464549,4.81841915 0.222187081,4.09037553 0.45925,3.39755 C0.676803092,2.76042854 1.01664217,2.17190518 1.4597,1.665 C1.90296563,1.16616827 2.44991501,0.770260946 3.06225,0.505 C3.7376709,0.216056173 4.46641153,0.0727238932 5.20095,0.08435 C5.72490023,0.083240867 6.24580968,0.163963443 6.74485,0.3236 C7.23197973,0.477600964 7.68841059,0.715639477 8.0935,1.02695 C8.94503988,1.68224337 9.47959894,2.66720887 9.565,3.7383 L7.39,3.7383 C7.29412368,3.22336004 7.01611418,2.76012921 6.6068,2.4333 C6.19914619,2.13659217 5.70453498,1.98359243 5.20055,1.9983 C4.7473095,1.98449796 4.29807164,2.08685879 3.89555,2.29565 C3.54527701,2.48708354 3.24672447,2.76070522 3.02555,3.093 C2.79720833,3.44052364 2.63283895,3.82607286 2.5402,4.23145 C2.43781634,4.66373062 2.38668106,5.1065618 2.38785,5.5508 C2.38692021,5.97835084 2.4380804,6.40442272 2.5402,6.8196 C2.63473356,7.21530096 2.79909088,7.59096759 3.02555,7.92895 C3.24834248,8.25794527 3.54665519,8.52882692 3.89555,8.71895 C4.29803004,8.92785472 4.74729783,9.03022237 5.20055,9.0163 C5.83490104,9.05727531 6.46063257,8.85213652 6.9476,8.44355 C7.38634888,7.99966524 7.64249357,7.40725814 7.66535,6.78355 L5.375,6.78355 L5.375,5.0869 L9.725,5.0869 L9.725,10.68385 L8.275,10.68385 L8.04305,9.5093 C7.69548329,9.98457169 7.2307426,10.3617181 6.6941,10.604 Z" id="Shape"></path>
                    <polygon id="Shape" points="13.84255 0.3308 13.84255 8.77 18.8889 8.77 18.8889 10.68405 11.56615 10.68405 11.56615 0.3308"></polygon>
                </g>
            </g>
        </g>
    </g>
</svg>