<?xml version="1.0" encoding="UTF-8"?>
<svg width="24px" height="24px" viewBox="0 0 24 24" version="1.1" xmlns="http://www.w3.org/2000/svg" xmlns:xlink="http://www.w3.org/1999/xlink">
    <!-- Generator: Sketch 49.3 (51167) - http://www.bohemiancoding.com/sketch -->
    <title>Icon/Subway Line/Green D/Default</title>
    <desc>Created with Sketch.</desc>
    <defs></defs>
    <g id="Icon/Subway-Line/Green-D/Default" stroke="none" stroke-width="1" fill="none" fill-rule="evenodd">
        <g id="icon-green-line-d-default">
            <path d="M12.015,0 C5.387583,-1.87739444e-15 0.015,5.372583 0.015,12 C0.015,18.627417 5.387583,24 12.015,24 C18.642417,24 24.015,18.627417 24.015,12 C24.015,5.372583 18.642417,5.73488277e-15 12.015,5.32907052e-15" id="Shape" fill="#00843D" fill-rule="nonzero"></path>
            <text id="D" fill="#FFFFFF" font-family="HelveticaNeue-CondensedBlack, Helvetica Neue" font-size="29" font-style="condensed" font-weight="700">
                <tspan x="6.627595" y="31.28492">D</tspan>
            </text>
            <path d="M12.015,0 C5.387583,-1.87739444e-15 0.015,5.372583 0.015,12 C0.015,18.627417 5.387583,24 12.015,24 C18.642417,24 24.015,18.627417 24.015,12 C24.015,5.372583 18.642417,5.73488277e-15 12.015,5.32907052e-15" id="Shape" fill="#00843D" fill-rule="nonzero"></path>
            <text id="D" fill="#FFFFFF" font-family="HelveticaNeue-CondensedBlack, Helvetica Neue" font-size="29" font-style="condensed" font-weight="700">
                <tspan x="6.627595" y="31.28492">D</tspan>
            </text>
            <path d="M12.015,0 C5.387583,-1.87739444e-15 0.015,5.372583 0.015,12 C0.015,18.627417 5.387583,24 12.015,24 C18.642417,24 24.015,18.627417 24.015,12 C24.015,5.372583 18.642417,5.73488277e-15 12.015,5.32907052e-15" id="Shape" fill="#00843D" fill-rule="nonzero"></path>
            <path d="M12.09375,6.931885 C12.7288913,6.92641835 13.3599001,7.03447971 13.95703,7.250975 C14.5196039,7.45551539 15.0297592,7.78238566 15.450685,8.208 C15.8896703,8.66297859 16.225859,9.20690146 16.436525,9.803 C16.6872144,10.5251308 16.8075741,11.2860669 16.79199,12.050315 C16.7987065,12.7568473 16.7009724,13.4604935 16.501955,14.13845 C16.325956,14.7438216 16.0272782,15.306505 15.6245,15.7915 C15.2248232,16.2617863 14.7243076,16.6359626 14.160145,16.886225 C13.5078182,17.1654886 12.8031375,17.3014455 12.09374,17.284905 L7.62793,17.284905 L7.62793,6.931905 L12.09375,6.931885 Z M11.93457,15.37085 C12.260235,15.3714086 12.5837025,15.3175244 12.8916,15.211425 C13.2048418,15.1025387 13.4879237,14.9211802 13.717775,14.68213 C13.9777072,14.4058214 14.1754949,14.0770828 14.29785,13.718 C14.45408,13.2509081 14.5277725,12.760177 14.515625,12.2678 C14.5207557,11.7922514 14.4696188,11.3177651 14.36328,10.85423 C14.2751489,10.4626343 14.104521,10.0943354 13.86278,9.773905 C13.6217534,9.4675163 13.3043114,9.22998233 12.94237,9.085185 C12.4912603,8.91349279 12.0107878,8.83219677 11.528305,8.845925 L9.904295,8.845925 L9.904295,15.3708543 L11.93457,15.37085 Z" id="Shape" fill="#FFFFFF" fill-rule="nonzero"></path>
        </g>
    </g>
</svg>