<?xml version="1.0" encoding="UTF-8"?>
<svg width="16px" height="16px" viewBox="0 0 16 16" version="1.1" xmlns="http://www.w3.org/2000/svg" xmlns:xlink="http://www.w3.org/1999/xlink">
    <!-- Generator: Sketch 49.3 (51167) - http://www.bohemiancoding.com/sketch -->
    <title>Icon/Subway Line/Green D/Small</title>
    <desc>Created with Sketch.</desc>
    <defs></defs>
    <g id="Icon/Subway-Line/Green-D/Small" stroke="none" stroke-width="1" fill="none" fill-rule="evenodd">
        <g id="icon-green-line-d-small" fill-rule="nonzero">
            <path d="M8,0 C3.581722,-2.705415e-16 5.41083001e-16,3.581722 0,8 C-5.41083001e-16,12.418278 3.581722,16 8,16 C12.418278,16 16,12.418278 16,8 C16,3.581722 12.418278,2.04689834e-15 8,1.77635684e-15" id="Shape" fill="#00843D"></path>
            <path d="M7.91,4 C8.4008619,3.99581513 8.88852347,4.07936104 9.35,4.2467 C9.78479173,4.40489763 10.1790422,4.6576442 10.5043,4.9867 C10.8436041,5.33796057 11.10332,5.75814432 11.2658,6.2187 C11.459967,6.77674877 11.5529918,7.36496894 11.5405,7.9557 C11.5458686,8.50162893 11.4702804,9.04533819 11.3162,9.5691 C11.1803911,10.036829 10.9498499,10.4716339 10.6389,10.8465 C10.3297926,11.2095261 9.9431607,11.4985603 9.5075,11.6923 C9.00310871,11.9078528 8.45837061,12.0127767 7.91,12 L4.46,12 L4.46,4 L7.91,4 Z M7.7875,10.5212 C8.03934259,10.5216672 8.2894797,10.4798876 8.5275,10.3976 C8.76941056,10.3136239 8.9880046,10.1735715 9.1654,9.9889 C9.36667874,9.77560981 9.5196785,9.5214856 9.614,9.2438 C9.73462143,8.88304399 9.79166918,8.50407908 9.7826,8.1238 C9.78656007,7.75620654 9.74688262,7.38944189 9.6644,7.0312 C9.59633425,6.72867252 9.46464943,6.44409968 9.2781,6.1964 C9.09174678,5.95985742 8.84648341,5.77646166 8.5669,5.6646 C8.21826209,5.53172193 7.84684521,5.46889029 7.4739,5.4797 L6.2181,5.4797 L6.2181,10.5216 L7.7875,10.5212 Z" id="Shape" fill="#FFFFFF"></path>
        </g>
    </g>
</svg>