<?xml version="1.0" encoding="UTF-8"?>
<svg width="14px" height="17px" viewBox="0 0 14 17" version="1.1" xmlns="http://www.w3.org/2000/svg" xmlns:xlink="http://www.w3.org/1999/xlink">
    <!-- Generator: Sketch 49.3 (51167) - http://www.bohemiancoding.com/sketch -->
    <title>Icon/FontAwesome/Page/16px</title>
    <desc>Created with Sketch.</desc>
    <defs></defs>
    <g id="Icons" stroke="none" stroke-width="1" fill="none" fill-rule="evenodd">
        <g id="v" transform="translate(-343.000000, -87.000000)" fill="#165C96">
            <g id="Icon/FontAwesome/Page/16px" transform="translate(343.000000, 87.000000)">
                <path d="M13.1071429,3.67857143 C13.2738104,3.84523893 13.4166661,4.07142714 13.5357143,4.35714286 C13.6547625,4.64285857 13.7142857,4.90476071 13.7142857,5.14285714 L13.7142857,15.4285714 C13.7142857,15.6666679 13.6309532,15.8690468 13.4642857,16.0357143 C13.2976182,16.2023818 13.0952393,16.2857143 12.8571429,16.2857143 L0.857142857,16.2857143 C0.619046429,16.2857143 0.4166675,16.2023818 0.25,16.0357143 C0.0833325,15.8690468 0,15.6666679 0,15.4285714 L0,1.14285714 C0,0.904760714 0.0833325,0.702381786 0.25,0.535714286 C0.4166675,0.369046786 0.619046429,0.285714286 0.857142857,0.285714286 L8.85714286,0.285714286 C9.09523929,0.285714286 9.35714143,0.3452375 9.64285714,0.464285714 C9.92857286,0.583333929 10.1547611,0.726189643 10.3214286,0.892857143 L13.1071429,3.67857143 Z M9.14285714,1.5 L9.14285714,4.85714286 L12.5,4.85714286 C12.4404759,4.68452295 12.3750004,4.56250036 12.3035714,4.49107143 L9.50892857,1.69642857 C9.43749964,1.62499964 9.31547705,1.55952411 9.14285714,1.5 Z M12.5714286,15.1428571 L12.5714286,6 L8.85714286,6 C8.61904643,6 8.4166675,5.9166675 8.25,5.75 C8.0833325,5.5833325 8,5.38095357 8,5.14285714 L8,1.42857143 L1.14285714,1.42857143 L1.14285714,15.1428571 L12.5714286,15.1428571 Z"></path>
            </g>
        </g>
    </g>
</svg>