<?xml version="1.0" encoding="UTF-8"?>
<svg width="24px" height="24px" viewBox="0 0 24 24" version="1.1" xmlns="http://www.w3.org/2000/svg" xmlns:xlink="http://www.w3.org/1999/xlink">
    <!-- Generator: Sketch 49.3 (51167) - http://www.bohemiancoding.com/sketch -->
    <title>Icon/Mode/Subway/Default</title>
    <desc>Created with Sketch.</desc>
    <defs></defs>
    <g id="Icon/Mode/Subway/Default" stroke="none" stroke-width="1" fill="none" fill-rule="evenodd">
        <g id="icon-mode-subway-default" fill-rule="nonzero">
            <path d="M12,0 C5.372583,-4.05812251e-16 8.11624501e-16,5.372583 0,12 C-8.11624501e-16,18.627417 5.372583,24 12,24 C18.627417,24 24,18.627417 24,12 C24,5.372583 18.627417,5.73488277e-15 12,5.32907052e-15" id="Shape" fill="#494F5B"></path>
            <g id="Group" transform="translate(5.000000, 1.500000)" fill="#FFFFFF">
                <path d="M7.94445,1.4111 C8.33411451,1.4111 8.65,1.09521451 8.65,0.70555 C8.65,0.315885495 8.33411451,-4e-16 7.94445,-4e-16 C7.55478549,-4e-16 7.2389,0.315885495 7.2389,0.70555 C7.23888674,0.89267756 7.313217,1.07214467 7.44553616,1.20446384 C7.57785533,1.336783 7.75732244,1.41111326 7.94445,1.4111 Z" id="Shape"></path>
                <path d="M10.72775,15.60555 C11.8579816,15.3522095 12.6640662,14.3526978 12.67225,13.19445 L12.67225,4.1222 C12.6448584,2.74492324 11.5107738,1.6480697 10.13335,1.66665 L3.8667,1.66665 C2.48709563,1.6418642 1.34709614,2.73715784 1.3167,4.11665 L1.3167,13.19445 C1.32487846,14.3526828 2.13093826,15.3521895 3.26115,15.60555 L0.33335,20 L2.03335,20 L4.1278,16.92775 L9.90555,16.92775 L12,20 L13.66665,20 L10.72775,15.60555 Z M5.35,2.6111 C5.35897119,2.38444425 5.54541685,2.20537253 5.77225,2.20555 L8.25,2.20555 C8.47467144,2.20832952 8.65780631,2.38658548 8.66665,2.6111 L8.66665,3.33335 L8.66635,3.3503 C8.65714512,3.58023944 8.4632902,3.75918589 8.23335,3.75 L5.77225,3.74445 C5.66173608,3.74594517 5.55515626,3.70346907 5.4759654,3.62636933 C5.39677453,3.54926959 5.35146213,3.44386437 5.35,3.33335 L5.35,2.6111 Z M3.79445,14.2778 C3.34502723,14.2778202 2.93984627,14.00711 2.76784561,13.5919033 C2.59584495,13.1766966 2.69089788,12.698763 3.00868062,12.380966 C3.32646336,12.0631689 3.80439271,11.9680945 4.21960715,12.1400765 C4.63482158,12.3120585 4.90555,12.7172272 4.90555,13.16665 C4.90555,13.7803017 4.40810167,14.2777724 3.79445,14.2778 Z M3.9389,8.3722 C3.901,8.374 3.863,8.374 3.8251,8.3722 C3.50425085,8.35711895 3.2025351,8.21519368 2.98633174,7.97764848 C2.77012838,7.74010328 2.65714913,7.42639822 2.67225,7.10555 L2.67225,5.4722 C2.65281029,5.1301799 2.77980946,4.79604265 3.02151441,4.55327863 C3.26321936,4.31051462 3.59679818,4.1820558 3.9389,4.2 L10.05,4.2 C10.3920843,4.1821202 10.7256248,4.31059971 10.967315,4.55334891 C11.2090052,4.79609811 11.3360252,5.13019718 11.31665,5.4722 L11.31665,7.10555 C11.31845,7.14345 11.31845,7.18138333 11.31665,7.21935 C11.3015689,7.54019915 11.1596437,7.8419149 10.9220985,8.05811826 C10.6845533,8.27432162 10.3708482,8.38730087 10.05,8.3722 L3.9389,8.3722 Z M10.15555,14.2778 C9.5399096,14.2747264 9.0428917,13.7739726 9.04442848,13.1583264 C9.04596526,12.5426803 9.54547693,12.0444139 10.161125,12.0444139 C10.7767731,12.0444139 11.2762847,12.5426803 11.2778215,13.1583264 C11.2793583,13.7739726 10.7823404,14.2747264 10.1667,14.2778 L10.15555,14.2778 Z" id="Shape"></path>
                <path d="M6.07225,1.4111 L6.05555,1.4111 L6.0724,1.4111 C6.46209369,1.41104477 6.7779684,1.09511037 6.77794999,0.705416671 C6.77793158,0.315722975 6.46202703,-0.00018158256 6.07233333,-0.000199992126 C5.68263963,-0.000218401692 5.36670523,0.315656307 5.36665,0.70535 C5.36654385,0.892577448 5.44085896,1.07216996 5.57323002,1.20457853 C5.70560108,1.33698711 5.88517253,1.4113531 6.0724,1.4113 L6.07225,1.4111 Z" id="Shape"></path>
            </g>
        </g>
    </g>
</svg>