<?xml version="1.0" encoding="UTF-8"?>
<svg width="16px" height="16px" viewBox="0 0 16 16" version="1.1" xmlns="http://www.w3.org/2000/svg" xmlns:xlink="http://www.w3.org/1999/xlink">
    <!-- Generator: Sketch 49.3 (51167) - http://www.bohemiancoding.com/sketch -->
    <title>Icon/Mode/Subway/Small</title>
    <desc>Created with Sketch.</desc>
    <defs></defs>
    <g id="Icon/Mode/Subway/Small" stroke="none" stroke-width="1" fill="none" fill-rule="evenodd">
        <g id="icon-mode-subway-small" fill-rule="nonzero">
            <path d="M8,0 C3.581722,-2.705415e-16 5.41083001e-16,3.581722 0,8 C-5.41083001e-16,12.418278 3.581722,16 8,16 C12.418278,16 16,12.418278 16,8 C16,3.581722 12.418278,2.04689834e-15 8,1.77635684e-15" id="Shape" fill="#494F5B"></path>
            <g id="Group" transform="translate(4.000000, 0.000000)" fill="#FFFFFF">
                <path d="M2.67,1.41 C2.67,1.09519769 2.92519769,0.84 3.24,0.84 C3.56032515,0.84 3.82,1.09967485 3.82,1.42 C3.82,1.74032515 3.56032515,2 3.24,2 L3.22,2 C2.90684687,1.98536477 2.6626506,1.72340878 2.67,1.41 Z" id="Shape"></path>
                <path d="M8.01,9.84 L8.01,3.93 C8.00543142,3.13822854 7.36178408,2.49905097 6.57,2.5 L1.44,2.5 C0.650232808,2.5 0.01,3.14023281 0.01,3.93 L0.01,9.83 C0.00862093394,10.7344079 0.65140217,11.511627 1.54,11.68 L-9e-16,14 L1.02,14 L2.28,12.16 L5.74,12.16 L7,14 L8,14 L6.46,11.68 C7.35340469,11.5217844 8.00582668,10.7472964 8.01,9.84 Z M3,2.91 L5,2.91 L5,3.75 L3,3.75 L3,2.91 Z M2.42,11.21 C1.99474074,11.21 1.65,10.8652593 1.65,10.44 C1.65,10.0147407 1.99474074,9.67 2.42,9.67 C2.84525926,9.67 3.19,10.0147407 3.19,10.44 C3.19,10.8652593 2.84525926,11.21 2.42,11.21 Z M5.57,11.21 C5.14474074,11.21 4.8,10.8652593 4.8,10.44 C4.8,10.0147407 5.14474074,9.67 5.57,9.67 C5.99525926,9.67 6.34,10.0147407 6.34,10.44 C6.34,10.8652593 5.99525926,11.21 5.57,11.21 Z M7.01,6.5 C7.00846936,6.78655166 6.77655166,7.01846936 6.49,7.02 L1.53,7.02 C1.39179328,7.02096689 1.25896672,6.96649188 1.16123742,6.86876258 C1.06350812,6.77103328 1.00903311,6.63820672 1.01,6.5 L1.01,4.54 C1.00903311,4.40179328 1.06350812,4.26896672 1.16123742,4.17123742 C1.25896672,4.07350812 1.39179328,4.01903311 1.53,4.02 L6.49,4.02 C6.77655166,4.02153064 7.00846936,4.25344834 7.01,4.54 L7.01,6.5 Z" id="Shape"></path>
                <path d="M4.19,1.41 C4.19459972,1.09321967 4.45318759,0.839090221 4.77,0.84 C5.08480231,0.84 5.34,1.09519769 5.34,1.41 C5.34419529,1.56426458 5.28614034,1.71372851 5.17891583,1.82471529 C5.07169131,1.93570207 4.92431751,1.99887491 4.77,2 C4.61464538,1.99931924 4.46599713,1.93661829 4.35708667,1.82583006 C4.2481762,1.71504183 4.18802522,1.56534356 4.19,1.41 Z" id="Shape"></path>
            </g>
        </g>
    </g>
</svg>