<?xml version="1.0" encoding="UTF-8"?>
<svg width="24px" height="24px" viewBox="0 0 24 24" version="1.1" xmlns="http://www.w3.org/2000/svg" xmlns:xlink="http://www.w3.org/1999/xlink">
    <!-- Generator: Sketch 49.3 (51167) - http://www.bohemiancoding.com/sketch -->
    <title>Icon/Mode/Black/Mattapan/Default</title>
    <desc>Created with Sketch.</desc>
    <defs></defs>
    <g id="Icon/Mode/Black/Mattapan/Default" stroke="none" stroke-width="1" fill="none" fill-rule="evenodd">
        <g id="icon-trolley-default" transform="translate(6.000000, 0.000000)" fill="#1C1E23" fill-rule="nonzero">
            <path d="M10.4179592,19.1853061 C11.7257143,19.0236735 12.5828571,17.7110204 12.5730612,16.3934694 L12.5730612,5.89714286 C12.5855889,4.34889367 11.3488636,3.07939303 9.80081633,3.05142857 L6.99428571,3.05142857 L7.64571429,0.930612245 C7.65555003,0.905415646 7.65555003,0.877441497 7.64571429,0.852244898 C9.37959184,0.915918367 9.68326531,1.0922449 9.7322449,1.1755102 C9.73126214,1.23597495 9.76313467,1.2922206 9.8155102,1.32244898 C9.86362105,1.35184172 9.92413406,1.35184172 9.9722449,1.32244898 C10.0256698,1.28040212 10.0534772,1.21366422 10.0457143,1.14612245 C10.0425107,1.0661692 10.011304,0.989886196 9.95755102,0.930612245 C9.65387755,0.622040816 8.58612245,0.489795918 6.28408163,0.489795918 C5.43531114,0.480770905 4.58668569,0.518378584 3.74204082,0.60244898 C2.88,0.715102041 2.52244898,0.876734694 2.52244898,1.17061224 C2.52054305,1.23137415 2.55018405,1.28880357 2.60081633,1.32244898 C2.64892717,1.35184172 2.70944018,1.35184172 2.75755102,1.32244898 C2.81083115,1.29312727 2.84304174,1.23628506 2.84081633,1.1755102 C2.84081633,1.13632653 3.13469388,0.920816327 4.92244898,0.852244898 C4.91754619,0.878137302 4.91754619,0.904719841 4.92244898,0.930612245 L5.72081633,3.04653061 L2.93877551,3.04653061 C1.38831451,3.07069944 0.147983793,4.34165561 0.161632653,5.8922449 L0.161632653,16.3934694 C0.146938776,17.7012245 0.989387755,19.0187755 2.28734694,19.1853061 C2.60710104,19.2030473 2.92759284,19.2030473 3.24734694,19.1853061 L0.622040816,24 L1.85632653,24 L1.91510204,23.8971429 C1.94537684,23.8315733 2.0095062,23.7881917 2.08163265,23.7844898 L10.6138776,23.7844898 C10.6870916,23.7848111 10.7528665,23.8293059 10.7804082,23.8971429 L10.8391837,24 L12.0734694,24 L9.46285714,19.1853061 C9.46285714,19.1853061 10.1779592,19.2146939 10.4179592,19.1853061 Z M5.26530612,0.84244898 L7.34204082,0.84244898 L6.64653061,3.05142857 L6.09306122,3.05142857 L5.26530612,0.84244898 Z M3.91836735,4.40816327 C3.91914749,4.13798025 4.13798025,3.91914749 4.40816327,3.91836735 L8.32653061,3.91836735 C8.59671362,3.91914749 8.81554639,4.13798025 8.81632653,4.40816327 L8.81632653,4.89795918 C8.81554639,5.16814219 8.59671362,5.38697496 8.32653061,5.3877551 L4.40816327,5.3877551 C4.13798025,5.38697496 3.91914749,5.16814219 3.91836735,4.89795918 L3.91836735,4.40816327 Z M1.80734694,6.48 C1.80812708,6.20981699 2.02695985,5.99098422 2.29714286,5.99020408 L10.437551,5.99020408 C10.707734,5.99098422 10.9265668,6.20981699 10.9273469,6.48 L10.9273469,10.324898 C10.9265668,10.595081 10.707734,10.8139137 10.437551,10.8146939 L2.29714286,10.8146939 C2.02695985,10.8139137 1.80812708,10.595081 1.80734694,10.324898 L1.80734694,6.48 Z M8.2677551,19.2146939 L8.79673469,20.1942857 C8.81632073,20.2257743 8.81632073,20.2656543 8.79673469,20.2971429 C8.78022523,20.3266775 8.74674996,20.3424305 8.71346939,20.3363265 L3.99673469,20.3363265 C3.96059268,20.3438012 3.92358377,20.3282185 3.90367347,20.2971429 C3.88408744,20.2656543 3.88408744,20.2257743 3.90367347,20.1942857 C3.95755102,20.1012245 4.41306122,19.2636735 4.43265306,19.2146939 C4.45700474,19.1727084 4.50167055,19.1466533 4.55020408,19.1461224 L8.15510204,19.1461224 C8.21320308,19.1513393 8.25996238,19.1960656 8.2677551,19.2538776 L8.2677551,19.2146939 Z M2.87020408,17.6277551 C2.35336845,17.627297 1.88774945,17.3154088 1.690635,16.8376378 C1.49352054,16.3598667 1.60376678,15.8103933 1.96992568,15.4456373 C2.33608459,15.0808813 2.88597717,14.9727452 3.36298802,15.1716923 C3.83999887,15.3706393 4.15009734,15.8374521 4.14857143,16.3542857 C4.14517737,17.058104 3.57403022,17.6270629 2.87020408,17.6277551 Z M9.51673469,21.5559184 L10.0359184,22.5257143 C10.0555059,22.5554299 10.0555059,22.5939579 10.0359184,22.6236735 C10.0306056,22.6629046 9.99714019,22.6921868 9.95755102,22.6922449 L2.77714286,22.6922449 C2.7417872,22.6953866 2.70767963,22.6783328 2.68897959,22.6481633 C2.67428765,22.6171628 2.67428765,22.5812045 2.68897959,22.5502041 L3.21795918,21.5657143 C3.24184907,21.5243626 3.28809492,21.5012397 3.3355102,21.5069388 L9.40897959,21.5069388 C9.4515233,21.4997793 9.49415485,21.5191573 9.51673469,21.5559184 Z M9.54612245,17.6032653 C9.03732643,17.505891 8.63941516,17.1079797 8.54204082,16.5991837 C8.45417773,16.1507477 8.61236077,15.6895148 8.95694782,15.3893906 C9.30153487,15.0892664 9.78011612,14.9958981 10.2122449,15.1444898 C10.5832922,15.2706351 10.874671,15.5620139 11.0008163,15.9330612 C11.149408,16.36519 11.0560397,16.8437713 10.7559155,17.1883583 C10.4557913,17.5329454 9.99455845,17.6911284 9.54612245,17.6032653 Z" id="Shape"></path>
        </g>
    </g>
</svg>