<?xml version="1.0" encoding="UTF-8"?>
<svg width="16px" height="16px" viewBox="0 0 16 16" version="1.1" xmlns="http://www.w3.org/2000/svg" xmlns:xlink="http://www.w3.org/1999/xlink">
    <!-- Generator: Sketch 49.3 (51167) - http://www.bohemiancoding.com/sketch -->
    <title>Icon/Mode/Black/Mattapan/Small</title>
    <desc>Created with Sketch.</desc>
    <defs></defs>
    <g id="Icon/Mode/Black/Mattapan/Small" stroke="none" stroke-width="1" fill="none" fill-rule="evenodd">
        <g id="icon-trolley-small" transform="translate(4.000000, -1.000000)" fill="#1C1E23" fill-rule="nonzero">
            <path d="M8,11.79626 L8,4.90375 C7.994809,4.39241033 7.78621467,3.90418526 7.42031109,3.54696016 C7.05440751,3.18973506 6.56131697,2.9929178 6.05,3 L4.84174,3 L5.26074,1.61572 C5.66827826,1.73752398 6.04335031,1.94908504 6.3584,2.23486 C6.4095122,2.28475214 6.48335896,2.30358634 6.55212292,2.28426795 C6.62088689,2.26494955 6.67412116,2.21041348 6.69177292,2.14120295 C6.70942468,2.07199241 6.6888122,1.99862214 6.6377,1.94873 C5.78797971,1.23351305 4.68362683,0.895195304 3.5791,1.01173 C2.73322591,1.00926626 1.92366383,1.35523299 1.34082,1.96826 C1.29478084,2.02427015 1.28265968,2.10081044 1.30914024,2.16830504 C1.33562079,2.23579964 1.39655564,2.28367744 1.46839902,2.29343803 C1.54024241,2.30319863 1.6117421,2.2733133 1.65527,2.21533 C1.9416228,1.9010709 2.31476792,1.67882507 2.72748,1.57672 L3.15826,3 L1.95,3 C1.43868303,2.9929178 0.945592494,3.18973506 0.57968891,3.54696016 C0.213785326,3.90418526 0.00519100368,4.39241033 -1.77635684e-15,4.90375 L-1.77635684e-15,11.79626 C0.00892269185,12.7491232 0.718995162,13.5495507 1.664,13.672 L-1.77635684e-15,17 L1,17 L1.5,16 L6.5,16 L7,17 L8,17 L6.336,13.672 C7.28100484,13.5495507 7.99107731,12.7491232 8,11.79626 Z M3.11591,1.479 C3.27758311,1.44644566 3.44106333,1.423618 3.60547,1.41064 C4.0306987,1.38562041 4.45731645,1.42182018 4.87225,1.51813 L4.42377,3 L3.57623,3 L3.11591,1.479 Z M2,4.19409 C2.00000796,4.14260617 2.02046746,4.09323415 2.05687764,4.05683522 C2.09328783,4.02043628 2.14266617,3.99999204 2.19415,4 L5.80823,4 C5.91413478,4.00001656 5.99998344,4.08586522 6,4.19177 L6,4.80823 C5.99998344,4.91413478 5.91413478,4.99998344 5.80823,5 L2.19415,5 C2.14265659,5.00000531 2.0932707,4.97955198 2.05685936,4.94314064 C2.02044802,4.9067293 1.99999469,4.85734341 2,4.80585 L2,4.19409 Z M1,7 L1,6 L7,6 L7,8 L1,8 L1,7 Z M0.79,11.84509 C0.781891395,11.5075661 0.978980495,11.1987446 1.28852436,11.0639457 C1.59806823,10.9291468 1.95841435,10.9952186 2.19999699,11.2310702 C2.44157963,11.4669218 2.51628226,11.8255781 2.38895254,12.1382685 C2.26162283,12.450959 1.95762131,12.6554043 1.62,12.6554 C1.16705554,12.6608007 0.795473457,12.2980336 0.79,11.84509 Z M5,15 L2,15 L2.65,13.7 L5.35,13.7 L6,15 L5,15 Z M6.32,12.6554 C5.8723261,12.6419704 5.51924427,12.2700419 5.52909178,11.8222749 C5.53893928,11.3745079 5.90803108,11.0184617 6.35586255,11.0247265 C6.80369402,11.0309913 7.16268172,11.3972227 7.16,11.84509 C7.15793188,12.0645392 7.0678042,12.2739612 6.90985703,12.4263256 C6.75190986,12.5786901 6.53938162,12.6612267 6.32,12.6554 Z" id="Shape"></path>
        </g>
    </g>
</svg>