<?xml version="1.0" encoding="UTF-8"?>
<svg width="24px" height="24px" viewBox="0 0 24 24" version="1.1" xmlns="http://www.w3.org/2000/svg" xmlns:xlink="http://www.w3.org/1999/xlink">
    <!-- Generator: Sketch 49.3 (51167) - http://www.bohemiancoding.com/sketch -->
    <title>Icon/Facilities/Escalator/Regular</title>
    <desc>Created with Sketch.</desc>
    <defs></defs>
    <g id="Icon/Facilities/Escalator/Regular" stroke="none" stroke-width="1" fill="none" fill-rule="evenodd">
        <path d="M21.0154849,9.2366771 L19.0164235,9.2366771 C18.1708111,9.23943243 17.7954005,9.35763141 17.3101823,9.84191567 L7.74847459,19.3576111 C7.36335025,19.7403685 6.87278246,19.892939 6.24495518,19.895601 L3.09150622,19.895601 C2.28151094,19.892939 1.56794926,19.2112517 1.56546216,18.3152558 C1.56794926,17.4207543 2.24838095,16.9191441 2.95072724,16.9198446 L5.11309225,16.9198446 C5.74439208,16.9191441 6.15884537,16.7400944 6.52088196,16.3818548 L16.2402622,6.70924562 C16.6378689,6.3116375 17.0329416,6.26190146 17.7099946,6.26092075 L21.0380095,6.26092075 C21.8495534,6.26190146 22.3941803,7.16261415 22.3951188,7.70116441 C22.3941803,8.23691263 22.0077889,9.23943243 21.0154849,9.2366771 M21.1844196,4.69738776 C22.3941803,4.69925578 24.0014069,5.90884562 23.9999991,7.72358065 C24.0014069,9.55610857 22.4059118,10.82767 21.2801493,10.8282304 C20.2439692,10.82767 18.9375873,10.8282304 18.9375873,10.8282304 C18.5876577,10.82767 18.4752222,10.8835705 18.2731105,11.063601 L8.78460782,20.4728192 C8.02257125,21.1901857 7.09563558,21.4810832 6.32942256,21.4815502 C5.56635361,21.4810832 3.09150622,21.4815502 3.09150622,21.4815502 C1.09868602,21.4810832 0.00126701074,19.7269654 0,18.337672 C0.00126701074,16.9517411 1.09868602,15.3149817 2.92820261,15.3170832 C2.92820261,15.3170832 4.74711385,15.3154487 4.74706692,15.3170832 C5.298592,15.3149817 5.33280129,15.3028395 5.61426539,15.025672 L8.58751726,12.0611238 L8.58188611,12.0611238 L8.58188611,7.99257557 C8.58197996,5.89366796 11.7305017,5.8703177 11.7297039,7.99257557 L11.7297039,8.99009842 L15.1534485,5.58843344 C15.7396991,5.00635831 16.7230871,4.69523953 17.4903794,4.69738776 L21.1844196,4.69738776 Z M10.1827534,6.23213419 C9.287121,6.23246789 8.56305564,5.5090991 8.56205344,4.61892739 C8.56305564,3.7247036 9.287121,3.00143015 10.1827534,3 C11.0734703,3.00143015 11.7975356,3.7247036 11.7977265,4.61892739 C11.7975356,5.5090991 11.0734703,6.23246789 10.1827534,6.23213419 Z" id="Escalator" fill="#231F20"></path>
    </g>
</svg>