<?xml version="1.0" encoding="UTF-8"?>
<svg width="16px" height="16px" viewBox="0 0 16 16" version="1.1" xmlns="http://www.w3.org/2000/svg" xmlns:xlink="http://www.w3.org/1999/xlink">
    <!-- Generator: Sketch 49.3 (51167) - http://www.bohemiancoding.com/sketch -->
    <title>Icon/Facilities/Escalator/Small</title>
    <desc>Created with Sketch.</desc>
    <defs></defs>
    <g id="Icon/Facilities/Escalator/Small" stroke="none" stroke-width="1" fill="none" fill-rule="evenodd">
        <path d="M14.0103232,6.15778473 L12.6776157,6.15778473 C12.1138741,6.15962162 11.8636004,6.23842094 11.5401216,6.56127712 L5.16564973,12.9050741 C4.90890017,13.1602456 4.58185498,13.2619593 4.16330345,13.263734 L2.06100414,13.263734 C1.52100729,13.2619593 1.04529951,12.8075011 1.04364144,12.2101705 C1.04529951,11.6138362 1.49892064,11.2794294 1.9671515,11.2798964 L3.40872816,11.2798964 C3.82959472,11.2794294 4.10589692,11.1600629 4.34725464,10.9212365 L10.8268414,4.47283042 C11.0919126,4.20775833 11.3552944,4.17460097 11.8066631,4.17394717 L14.0253397,4.17394717 C14.5663689,4.17460097 14.9294535,4.7750761 14.9300792,5.1341096 C14.9294535,5.49127509 14.6718593,6.15962162 14.0103232,6.15778473 M14.1229464,3.13159184 C14.9294535,3.13283718 16.0009379,3.93923042 15.9999994,5.14905377 C16.0009379,6.37073905 14.9372746,7.21844666 14.1867662,7.21882026 C13.4959795,7.21844666 12.6250582,7.21882026 12.6250582,7.21882026 C12.3917718,7.21844666 12.3168148,7.25571366 12.1820737,7.37573397 L5.85640522,13.6485462 C5.34838083,14.1267905 4.73042372,14.3207221 4.21961504,14.3210335 C3.71090241,14.3207221 2.06100414,14.3210335 2.06100414,14.3210335 C0.732457347,14.3207221 0.000844673829,13.1513103 0,12.2251147 C0.000844673829,11.3011607 0.732457347,10.2099878 1.95213507,10.2113888 C1.95213507,10.2113888 3.16474256,10.2102991 3.16471128,10.2113888 C3.53239467,10.2099878 3.55520086,10.201893 3.74284359,10.0171147 L5.72501151,8.0407492 L5.7212574,8.0407492 L5.7212574,5.32838372 C5.72131997,3.92911197 7.82033444,3.91354514 7.81980261,5.32838372 L7.81980261,5.99339894 L10.102299,3.72562229 C10.4931327,3.33757221 11.1487247,3.13015969 11.6602529,3.13159184 L14.1229464,3.13159184 Z M6.78850227,4.15475612 C6.191414,4.15497859 5.70870376,3.67273273 5.70803562,3.07928493 C5.70870376,2.48313573 6.191414,2.00095343 6.78850227,2 C7.3823135,2.00095343 7.86502375,2.48313573 7.86515101,3.07928493 C7.86502375,3.67273273 7.3823135,4.15497859 6.78850227,4.15475612 Z" id="Escalator" fill="#231F20"></path>
    </g>
</svg>