<?xml version="1.0" encoding="UTF-8"?>
<svg width="24px" height="24px" viewBox="0 0 24 24" version="1.1" xmlns="http://www.w3.org/2000/svg" xmlns:xlink="http://www.w3.org/1999/xlink">
    <!-- Generator: Sketch 49.3 (51167) - http://www.bohemiancoding.com/sketch -->
    <title>Icon/Subway Line/Red/Default</title>
    <desc>Created with Sketch.</desc>
    <defs></defs>
    <g id="Icon/Subway-Line/Red/Default" stroke="none" stroke-width="1" fill="none" fill-rule="evenodd">
        <g id="icon-red-line-default" fill-rule="nonzero">
            <path d="M12.015,0 C5.387583,-1.87739444e-15 0.015,5.372583 0.015,12 C0.015,18.627417 5.387583,24 12.015,24 C18.642417,24 24.015,18.627417 24.015,12 C24.015,5.372583 18.642417,5.73488277e-15 12.015,5.32907052e-15" id="Shape" fill="#DA291C"></path>
            <g id="Group" transform="translate(3.000000, 6.500000)" fill="#FFFFFF">
                <path d="M5.58935,0.4319 C6.01804483,0.42554468 6.4439412,0.50194017 6.8437,0.6569 C7.20039667,0.796853028 7.52571678,1.00631152 7.80075,1.2731 C8.06377682,1.5301805 8.2710477,1.83866995 8.40965,2.17935 C8.55149307,2.53178101 8.62283956,2.90860936 8.61965,3.2885 C8.63392579,3.84003995 8.50147869,4.38547838 8.23585,4.86905 C7.94643941,5.34118214 7.50357788,5.69952434 6.98145,5.88405 L6.98145,5.91285 C7.23704646,5.97757104 7.47483564,6.09889205 7.67725,6.26785 C7.86061866,6.42719966 8.01306267,6.61896655 8.12695,6.83355 C8.24561102,7.05932271 8.33097884,7.30107749 8.3804,7.5513 C8.43316631,7.80972712 8.46953888,8.07123221 8.4893,8.33425 C8.49906667,8.49858333 8.50883333,8.69191667 8.5186,8.91425 C8.52786667,9.13688333 8.54478333,9.3641 8.56935,9.5959 C8.59160103,9.8183386 8.63029011,10.0388246 8.6851,10.25555 C8.73010847,10.4457141 8.81133937,10.6254237 8.92435,10.78485 L6.6479,10.78485 C6.51206141,10.4071987 6.43388437,10.0112399 6.416,9.6103 C6.3867,9.1562 6.34308333,8.7212 6.28515,8.3053 C6.2522786,7.86649423 6.07959466,7.44978513 5.79245,7.11635 C5.44724239,6.83342396 5.00440353,6.69801577 4.56,6.7395 L2.28315,6.7395 L2.28315,10.785 L0.0068,10.785 L0.0068,0.4319 L5.58935,0.4319 Z M4.7773,5.1155 C5.19820568,5.14745333 5.61616878,5.0235432 5.95165,4.76735 C6.23967539,4.46480723 6.38250781,4.05232207 6.34325,3.63645 C6.38046593,3.23166519 6.23716893,2.83108494 5.95165,2.54175 C5.61404483,2.29037325 5.19702508,2.16935282 4.7773,2.20095 L2.28315,2.20095 L2.28315,5.1155 L4.7773,5.1155 Z" id="Shape"></path>
                <polygon id="Shape" points="12.7519 0.4319 12.7519 8.87085 17.7983 8.87085 17.7983 10.785 10.47555 10.785 10.47555 0.4319"></polygon>
            </g>
        </g>
    </g>
</svg>