<?xml version="1.0" encoding="UTF-8"?>
<svg width="24px" height="24px" viewBox="0 0 24 24" version="1.1" xmlns="http://www.w3.org/2000/svg" xmlns:xlink="http://www.w3.org/1999/xlink">
    <!-- Generator: Sketch 51.2 (57519) - http://www.bohemiancoding.com/sketch -->
    <title>Icon/Subway Line/Orange/Default</title>
    <desc>Created with Sketch.</desc>
    <defs></defs>
    <g id="Icon/Subway-Line/Orange/Default" stroke="none" stroke-width="1" fill="none" fill-rule="evenodd">
        <g id="icon-orange-line-default" fill-rule="nonzero">
            <path d="M12,0 C5.372583,-1.87739444e-15 8.11850587e-16,5.372583 0,12 C-8.11850587e-16,18.627417 5.372583,24 12,24 C18.627417,24 24,18.627417 24,12 C24,5.372583 18.627417,5.73488277e-15 12,5.32907052e-15" id="Shape" fill="#ED8B00"></path>
            <g id="Group" transform="translate(1.500000, 6.000000)" fill="#FFFFFF">
                <path d="M0.82155,3.3977 C1.03908545,2.76052544 1.37892537,2.17194967 1.822,1.665 C2.26526563,1.16616827 2.81221501,0.770260946 3.42455,0.505 C4.0999709,0.216056173 4.82871153,0.0727238932 5.56325,0.08435 C6.30026787,0.0713848589 7.03166697,0.21475067 7.70925,0.505 C8.31846164,0.77177167 8.86254238,1.1675412 9.30395,1.665 C9.74704498,2.17201901 10.0869008,2.76066082 10.30445,3.3979 C10.5415129,4.09072553 10.6592355,4.81876915 10.6526,5.551 C10.6585426,6.26910461 10.5407715,6.98286896 10.30445,7.661 C10.0867008,8.28935459 9.74665867,8.86836092 9.30395,9.3646 C8.86029867,9.85419098 8.3163981,10.2424794 7.70925,10.50305 C7.03040005,10.788391 6.29951665,10.9290673 5.56325,10.9161 C4.82946097,10.9277506 4.10122879,10.7871062 3.42455,10.50305 C2.81426473,10.2438674 2.26749808,9.85532553 1.822,9.36425 C1.37928562,8.86802381 1.0392577,8.2890128 0.82155,7.66065 C0.585228535,6.98251896 0.467457417,6.26875461 0.4734,5.55065 C0.466781545,4.81846943 0.584503847,4.09047796 0.82155,3.3977 Z M2.9026,6.8196 C2.99713356,7.21530096 3.16149088,7.59096759 3.38795,7.92895 C3.61074248,8.25794527 3.90905519,8.52882692 4.25795,8.71895 C4.66043158,8.92785052 5.10969826,9.03021791 5.56295,9.0163 C6.01608773,9.03019574 6.46523584,8.92782791 6.8676,8.71895 C7.2165016,8.52883647 7.51481637,8.25795294 7.7376,7.92895 C7.96397354,7.59085972 8.12847982,7.21523958 8.22345,6.8196 C8.3255283,6.40441619 8.37667134,5.97834734 8.37575,5.5508 C8.37691168,5.1065651 8.32579351,4.66373671 8.22345,4.23145 C8.13037707,3.82613041 7.96585807,3.44062737 7.7376,3.093 C7.51643774,2.76069476 7.21788235,2.48707046 6.8676,2.29565 C6.46519577,2.0868814 6.01607648,1.98452014 5.56295,1.9983 C5.10971015,1.98450464 4.66047395,2.08686509 4.25795,2.29565 C3.90767701,2.48708354 3.60912447,2.76070522 3.38795,3.093 C3.15960833,3.44052364 2.99523895,3.82607286 2.9026,4.23145 C2.80024012,4.66373479 2.74910516,5.10656315 2.75025,5.5508 C2.74934503,5.97834938 2.80050486,6.40441826 2.9026,6.8196 Z" id="Shape"></path>
                <polygon id="Shape" points="14.48 0.3308 14.48 8.77 19.5266 8.77 19.5266 10.68405 12.20385 10.68405 12.20385 0.3308"></polygon>
            </g>
        </g>
    </g>
</svg>